%TF.GenerationSoftware,KiCad,Pcbnew,10.0.0*%
%TF.CreationDate,2026-08-21T11:49:24+05:30*%
%TF.ProjectId,new,6e65772e-6b69-4636-9164-5f7063625858,rev?*%
%TF.SameCoordinates,Original*%
%TF.FileFunction,Soldermask,Top*%
%TF.FilePolarity,Negative*%
%FSLAX46Y46*%
G04 Gerber Fmt 4.6, Leading zero omitted, Abs format (unit mm)*
G04 Created by KiCad (PCBNEW 10.0.0) date 2026-08-21 11:49:24*
%MOMM*%
%LPD*%
G01*
G04 APERTURE LIST*
%ADD10C,2.540000*%
%ADD11C,1.400000*%
%ADD12C,2.000000*%
%ADD13R,1.800000X1.800000*%
%ADD14C,1.800000*%
%ADD15C,1.600000*%
%ADD16R,1.600000X1.600000*%
%ADD17O,1.600000X1.600000*%
G04 APERTURE END LIST*
D10*
%TO.C,U1*%
X76150800Y-100220000D03*
X79046400Y-100220000D03*
X81942000Y-100220000D03*
X84736000Y-100220000D03*
X87530000Y-100220000D03*
%TD*%
D11*
%TO.C,R1*%
X132320000Y-111430000D03*
X132320000Y-103810000D03*
%TD*%
D12*
%TO.C,SW1*%
X140970000Y-104620000D03*
X140970000Y-111120000D03*
X136470000Y-104620000D03*
X136470000Y-111120000D03*
%TD*%
%TO.C,SW3*%
X136370000Y-89160000D03*
X136370000Y-82660000D03*
X140870000Y-89160000D03*
X140870000Y-82660000D03*
%TD*%
%TO.C,SW2*%
X136370000Y-100450000D03*
X136370000Y-93950000D03*
X140870000Y-100450000D03*
X140870000Y-93950000D03*
%TD*%
D11*
%TO.C,R4*%
X127320000Y-79450000D03*
X127320000Y-71830000D03*
%TD*%
%TO.C,R3*%
X132060000Y-89620000D03*
X132060000Y-82000000D03*
%TD*%
%TO.C,R2*%
X132060000Y-100740000D03*
X132060000Y-93120000D03*
%TD*%
D13*
%TO.C,D1*%
X131810000Y-74250000D03*
D14*
X134350000Y-74250000D03*
%TD*%
D15*
%TO.C,C3*%
X127320000Y-88610000D03*
X127320000Y-83610000D03*
%TD*%
%TO.C,C2*%
X127530000Y-99330000D03*
X127530000Y-94330000D03*
%TD*%
%TO.C,C1*%
X127370000Y-110580000D03*
X127370000Y-105580000D03*
%TD*%
D16*
%TO.C,A1*%
X121510000Y-110970000D03*
D17*
X121510000Y-108430000D03*
X121510000Y-105890000D03*
X121510000Y-103350000D03*
X121510000Y-100810000D03*
X121510000Y-98270000D03*
X121510000Y-95730000D03*
X121510000Y-93190000D03*
X121510000Y-90650000D03*
X121510000Y-88110000D03*
X121510000Y-85570000D03*
X121510000Y-83030000D03*
X121510000Y-80490000D03*
X121510000Y-77950000D03*
X121510000Y-75410000D03*
X106270000Y-75410000D03*
X106270000Y-77950000D03*
X106270000Y-80490000D03*
X106270000Y-83030000D03*
X106270000Y-85570000D03*
X106270000Y-88110000D03*
X106270000Y-90650000D03*
X106270000Y-93190000D03*
X106270000Y-95730000D03*
X106270000Y-98270000D03*
X106270000Y-100810000D03*
X106270000Y-103350000D03*
X106270000Y-105890000D03*
X106270000Y-108430000D03*
X106270000Y-110970000D03*
%TD*%
D10*
%TO.C,U2*%
X82205400Y-72790000D03*
X86269400Y-72790000D03*
X92365400Y-72790000D03*
X96400000Y-72790000D03*
%TD*%
M02*
