%TF.GenerationSoftware,KiCad,Pcbnew,10.0.0*%
%TF.CreationDate,2026-08-21T11:49:24+05:30*%
%TF.ProjectId,new,6e65772e-6b69-4636-9164-5f7063625858,rev?*%
%TF.SameCoordinates,Original*%
%TF.FileFunction,Copper,L2,Bot*%
%TF.FilePolarity,Positive*%
%FSLAX46Y46*%
G04 Gerber Fmt 4.6, Leading zero omitted, Abs format (unit mm)*
G04 Created by KiCad (PCBNEW 10.0.0) date 2026-08-21 11:49:24*
%MOMM*%
%LPD*%
G01*
G04 APERTURE LIST*
%TA.AperFunction,ComponentPad*%
%ADD10C,2.540000*%
%TD*%
%TA.AperFunction,ComponentPad*%
%ADD11C,1.400000*%
%TD*%
%TA.AperFunction,ComponentPad*%
%ADD12C,2.000000*%
%TD*%
%TA.AperFunction,ComponentPad*%
%ADD13R,1.800000X1.800000*%
%TD*%
%TA.AperFunction,ComponentPad*%
%ADD14C,1.800000*%
%TD*%
%TA.AperFunction,ComponentPad*%
%ADD15C,1.600000*%
%TD*%
%TA.AperFunction,ComponentPad*%
%ADD16R,1.600000X1.600000*%
%TD*%
%TA.AperFunction,ComponentPad*%
%ADD17O,1.600000X1.600000*%
%TD*%
%TA.AperFunction,ViaPad*%
%ADD18C,0.600000*%
%TD*%
%TA.AperFunction,Conductor*%
%ADD19C,0.200000*%
%TD*%
G04 APERTURE END LIST*
D10*
%TO.P,U1,5,Vcc_5*%
%TO.N,+5V*%
X76150800Y-100220000D03*
%TO.P,U1,4,gnd_4*%
%TO.N,GND*%
X79046400Y-100220000D03*
%TO.P,U1,3,SCL_3*%
%TO.N,Net-(A1-A5)*%
X81942000Y-100220000D03*
%TO.P,U1,2,SDA_2*%
%TO.N,Net-(A1-A4)*%
X84736000Y-100220000D03*
%TO.P,U1,1,INT_1*%
%TO.N,unconnected-(U1-INT-Pad1)*%
X87530000Y-100220000D03*
%TD*%
D11*
%TO.P,R1,1*%
%TO.N,+5V*%
X132320000Y-111430000D03*
%TO.P,R1,2*%
%TO.N,Net-(A1-D2)*%
X132320000Y-103810000D03*
%TD*%
D12*
%TO.P,SW1,2,2_2*%
%TO.N,GND*%
X140970000Y-104620000D03*
X140970000Y-111120000D03*
%TO.P,SW1,1,1_1*%
%TO.N,Net-(A1-D2)*%
X136470000Y-104620000D03*
X136470000Y-111120000D03*
%TD*%
%TO.P,SW3,1,1_1*%
%TO.N,Net-(A1-D4)*%
X136370000Y-89160000D03*
X136370000Y-82660000D03*
%TO.P,SW3,2,2_2*%
%TO.N,GND*%
X140870000Y-89160000D03*
X140870000Y-82660000D03*
%TD*%
%TO.P,SW2,1,1_1*%
%TO.N,Net-(A1-D3)*%
X136370000Y-100450000D03*
X136370000Y-93950000D03*
%TO.P,SW2,2,2_2*%
%TO.N,GND*%
X140870000Y-100450000D03*
X140870000Y-93950000D03*
%TD*%
D11*
%TO.P,R4,1*%
%TO.N,Net-(A1-D12)*%
X127320000Y-79450000D03*
%TO.P,R4,2*%
%TO.N,Net-(D1-A)*%
X127320000Y-71830000D03*
%TD*%
%TO.P,R3,1*%
%TO.N,+5V*%
X132060000Y-89620000D03*
%TO.P,R3,2*%
%TO.N,Net-(A1-D4)*%
X132060000Y-82000000D03*
%TD*%
%TO.P,R2,1*%
%TO.N,+5V*%
X132060000Y-100740000D03*
%TO.P,R2,2*%
%TO.N,Net-(A1-D3)*%
X132060000Y-93120000D03*
%TD*%
D13*
%TO.P,D1,1,K_1*%
%TO.N,GND*%
X131810000Y-74250000D03*
D14*
%TO.P,D1,2,A_2*%
%TO.N,Net-(D1-A)*%
X134350000Y-74250000D03*
%TD*%
D15*
%TO.P,C3,1*%
%TO.N,Net-(A1-D4)*%
X127320000Y-88610000D03*
%TO.P,C3,2*%
%TO.N,GND*%
X127320000Y-83610000D03*
%TD*%
%TO.P,C2,1*%
%TO.N,Net-(A1-D3)*%
X127530000Y-99330000D03*
%TO.P,C2,2*%
%TO.N,GND*%
X127530000Y-94330000D03*
%TD*%
%TO.P,C1,1*%
%TO.N,Net-(A1-D2)*%
X127370000Y-110580000D03*
%TO.P,C1,2*%
%TO.N,GND*%
X127370000Y-105580000D03*
%TD*%
D16*
%TO.P,A1,1,D1/TX_1*%
%TO.N,unconnected-(A1-D1{slash}TX-Pad1)*%
X121510000Y-110970000D03*
D17*
%TO.P,A1,2,D0/RX_2*%
%TO.N,unconnected-(A1-D0{slash}RX-Pad2)*%
X121510000Y-108430000D03*
%TO.P,A1,3,~{RESET}_3*%
%TO.N,unconnected-(A1-~{RESET}-Pad3)*%
X121510000Y-105890000D03*
%TO.P,A1,4,GND_4*%
%TO.N,GND*%
X121510000Y-103350000D03*
%TO.P,A1,5,D2_5*%
%TO.N,Net-(A1-D2)*%
X121510000Y-100810000D03*
%TO.P,A1,6,D3_6*%
%TO.N,Net-(A1-D3)*%
X121510000Y-98270000D03*
%TO.P,A1,7,D4_7*%
%TO.N,Net-(A1-D4)*%
X121510000Y-95730000D03*
%TO.P,A1,8,D5_8*%
%TO.N,unconnected-(A1-D5-Pad8)*%
X121510000Y-93190000D03*
%TO.P,A1,9,D6_9*%
%TO.N,unconnected-(A1-D6-Pad9)*%
X121510000Y-90650000D03*
%TO.P,A1,10,D7_10*%
%TO.N,unconnected-(A1-D7-Pad10)*%
X121510000Y-88110000D03*
%TO.P,A1,11,D8_11*%
%TO.N,unconnected-(A1-D8-Pad11)*%
X121510000Y-85570000D03*
%TO.P,A1,12,D9_12*%
%TO.N,unconnected-(A1-D9-Pad12)*%
X121510000Y-83030000D03*
%TO.P,A1,13,D10_13*%
%TO.N,unconnected-(A1-D10-Pad13)*%
X121510000Y-80490000D03*
%TO.P,A1,14,D11_14*%
%TO.N,unconnected-(A1-D11-Pad14)*%
X121510000Y-77950000D03*
%TO.P,A1,15,D12_15*%
%TO.N,Net-(A1-D12)*%
X121510000Y-75410000D03*
%TO.P,A1,16,D13_16*%
%TO.N,unconnected-(A1-D13-Pad16)*%
X106270000Y-75410000D03*
%TO.P,A1,17,3V3_17*%
%TO.N,unconnected-(A1-3V3-Pad17)*%
X106270000Y-77950000D03*
%TO.P,A1,18,AREF_18*%
%TO.N,unconnected-(A1-AREF-Pad18)*%
X106270000Y-80490000D03*
%TO.P,A1,19,A0_19*%
%TO.N,unconnected-(A1-A0-Pad19)*%
X106270000Y-83030000D03*
%TO.P,A1,20,A1_20*%
%TO.N,unconnected-(A1-A1-Pad20)*%
X106270000Y-85570000D03*
%TO.P,A1,21,A2_21*%
%TO.N,unconnected-(A1-A2-Pad21)*%
X106270000Y-88110000D03*
%TO.P,A1,22,A3_22*%
%TO.N,unconnected-(A1-A3-Pad22)*%
X106270000Y-90650000D03*
%TO.P,A1,23,A4_23*%
%TO.N,Net-(A1-A4)*%
X106270000Y-93190000D03*
%TO.P,A1,24,A5_24*%
%TO.N,Net-(A1-A5)*%
X106270000Y-95730000D03*
%TO.P,A1,25,A6_25*%
%TO.N,unconnected-(A1-A6-Pad25)*%
X106270000Y-98270000D03*
%TO.P,A1,26,A7_26*%
%TO.N,unconnected-(A1-A7-Pad26)*%
X106270000Y-100810000D03*
%TO.P,A1,27,+5V_27*%
%TO.N,+5V*%
X106270000Y-103350000D03*
%TO.P,A1,28,~{RESET}_28*%
%TO.N,unconnected-(A1-~{RESET}-Pad28)*%
X106270000Y-105890000D03*
%TO.P,A1,29,GND_29*%
%TO.N,GND*%
X106270000Y-108430000D03*
%TO.P,A1,30,VIN_30*%
%TO.N,unconnected-(A1-VIN-Pad30)*%
X106270000Y-110970000D03*
%TD*%
D10*
%TO.P,U2,1,gnd_1*%
%TO.N,GND*%
X82205400Y-72790000D03*
%TO.P,U2,2,Vcc_2*%
%TO.N,+5V*%
X86269400Y-72790000D03*
%TO.P,U2,3,SCL_3*%
%TO.N,Net-(A1-A5)*%
X92365400Y-72790000D03*
%TO.P,U2,4,SDA_4*%
%TO.N,Net-(A1-A4)*%
X96400000Y-72790000D03*
%TD*%
D18*
%TO.N,+5V*%
X86269400Y-92400600D03*
%TO.N,Net-(A1-A5)*%
X93750000Y-90000000D03*
%TO.N,+5V*%
X86269400Y-92400600D03*
%TD*%
%TO.N,Net-(A1-A5)*%
D19*
X106270000Y-95730000D02*
X99480000Y-95730000D01*
X99480000Y-95730000D02*
X93750000Y-90000000D01*
%TO.N,+5V*%
X97218800Y-103350000D02*
X86269400Y-92400600D01*
X106270000Y-103350000D02*
X97218800Y-103350000D01*
X131320000Y-101480000D02*
X131320000Y-110430000D01*
X131320000Y-110430000D02*
X132320000Y-111430000D01*
X132060000Y-100740000D02*
X131320000Y-101480000D01*
X131000000Y-90680000D02*
X132060000Y-89620000D01*
X131000000Y-99680000D02*
X131000000Y-90680000D01*
X132060000Y-100740000D02*
X131000000Y-99680000D01*
X130550000Y-102250000D02*
X107370000Y-102250000D01*
X107370000Y-102250000D02*
X106270000Y-103350000D01*
X132060000Y-100740000D02*
X130550000Y-102250000D01*
%TD*%
%TA.AperFunction,Conductor*%
%TO.N,GND*%
G36*
X145442539Y-68520185D02*
G01*
X145488294Y-68572989D01*
X145499500Y-68624500D01*
X145499500Y-115375500D01*
X145479815Y-115442539D01*
X145427011Y-115488294D01*
X145375500Y-115499500D01*
X74624500Y-115499500D01*
X74557461Y-115479815D01*
X74511706Y-115427011D01*
X74500500Y-115375500D01*
X74500500Y-101342944D01*
X74520185Y-101275905D01*
X74572989Y-101230150D01*
X74642147Y-101220206D01*
X74705703Y-101249231D01*
X74722874Y-101267456D01*
X74735384Y-101283759D01*
X74816809Y-101389875D01*
X74816815Y-101389882D01*
X74980917Y-101553984D01*
X74980924Y-101553990D01*
X75165054Y-101695278D01*
X75165056Y-101695279D01*
X75366037Y-101811314D01*
X75366040Y-101811315D01*
X75366048Y-101811320D01*
X75580470Y-101900137D01*
X75804651Y-101960206D01*
X76034755Y-101990500D01*
X76034762Y-101990500D01*
X76266838Y-101990500D01*
X76266845Y-101990500D01*
X76496949Y-101960206D01*
X76721130Y-101900137D01*
X76935552Y-101811320D01*
X77136548Y-101695276D01*
X77320677Y-101553989D01*
X77484789Y-101389877D01*
X77533287Y-101326673D01*
X77536940Y-101322686D01*
X77562397Y-101307304D01*
X77586419Y-101289764D01*
X77592949Y-101288844D01*
X77596741Y-101286554D01*
X77607174Y-101286843D01*
X77629086Y-101283759D01*
X78646400Y-100266445D01*
X78646400Y-100272661D01*
X78673659Y-100374394D01*
X78726320Y-100465606D01*
X78800794Y-100540080D01*
X78892006Y-100592741D01*
X78993739Y-100620000D01*
X78999954Y-100620000D01*
X77984071Y-101635881D01*
X78060930Y-101694857D01*
X78060938Y-101694863D01*
X78261861Y-101810867D01*
X78261878Y-101810875D01*
X78476232Y-101899663D01*
X78700346Y-101959713D01*
X78700359Y-101959716D01*
X78930377Y-101989998D01*
X78930395Y-101990000D01*
X79162405Y-101990000D01*
X79162422Y-101989998D01*
X79392440Y-101959716D01*
X79392453Y-101959713D01*
X79616567Y-101899663D01*
X79830921Y-101810875D01*
X79830938Y-101810867D01*
X80031875Y-101694855D01*
X80108727Y-101635883D01*
X80108727Y-101635880D01*
X79092846Y-100620000D01*
X79099061Y-100620000D01*
X79200794Y-100592741D01*
X79292006Y-100540080D01*
X79366480Y-100465606D01*
X79419141Y-100374394D01*
X79446400Y-100272661D01*
X79446400Y-100266446D01*
X80464502Y-101284549D01*
X80524504Y-101297976D01*
X80562807Y-101330966D01*
X80608009Y-101389875D01*
X80608015Y-101389882D01*
X80772117Y-101553984D01*
X80772124Y-101553990D01*
X80956254Y-101695278D01*
X80956256Y-101695279D01*
X81157237Y-101811314D01*
X81157240Y-101811315D01*
X81157248Y-101811320D01*
X81371670Y-101900137D01*
X81595851Y-101960206D01*
X81825955Y-101990500D01*
X81825962Y-101990500D01*
X82058038Y-101990500D01*
X82058045Y-101990500D01*
X82288149Y-101960206D01*
X82512330Y-101900137D01*
X82726752Y-101811320D01*
X82927748Y-101695276D01*
X83111877Y-101553989D01*
X83174256Y-101491610D01*
X83251319Y-101414548D01*
X83312642Y-101381063D01*
X83382334Y-101386047D01*
X83426681Y-101414548D01*
X83566117Y-101553984D01*
X83566124Y-101553990D01*
X83750254Y-101695278D01*
X83750256Y-101695279D01*
X83951237Y-101811314D01*
X83951240Y-101811315D01*
X83951248Y-101811320D01*
X84165670Y-101900137D01*
X84389851Y-101960206D01*
X84619955Y-101990500D01*
X84619962Y-101990500D01*
X84852038Y-101990500D01*
X84852045Y-101990500D01*
X85082149Y-101960206D01*
X85306330Y-101900137D01*
X85520752Y-101811320D01*
X85721748Y-101695276D01*
X85905877Y-101553989D01*
X85968256Y-101491610D01*
X86045319Y-101414548D01*
X86106642Y-101381063D01*
X86176334Y-101386047D01*
X86220681Y-101414548D01*
X86360117Y-101553984D01*
X86360124Y-101553990D01*
X86544254Y-101695278D01*
X86544256Y-101695279D01*
X86745237Y-101811314D01*
X86745240Y-101811315D01*
X86745248Y-101811320D01*
X86959670Y-101900137D01*
X87183851Y-101960206D01*
X87413955Y-101990500D01*
X87413962Y-101990500D01*
X87646038Y-101990500D01*
X87646045Y-101990500D01*
X87876149Y-101960206D01*
X88100330Y-101900137D01*
X88314752Y-101811320D01*
X88515748Y-101695276D01*
X88699877Y-101553989D01*
X88863989Y-101389877D01*
X89005276Y-101205748D01*
X89121320Y-101004752D01*
X89210137Y-100790330D01*
X89270206Y-100566149D01*
X89300500Y-100336045D01*
X89300500Y-100103955D01*
X89270206Y-99873851D01*
X89210137Y-99649670D01*
X89121320Y-99435248D01*
X89119648Y-99432352D01*
X89005279Y-99234256D01*
X89005278Y-99234254D01*
X88863990Y-99050124D01*
X88863984Y-99050117D01*
X88699882Y-98886015D01*
X88699875Y-98886009D01*
X88515745Y-98744721D01*
X88515743Y-98744720D01*
X88314762Y-98628685D01*
X88314754Y-98628681D01*
X88314752Y-98628680D01*
X88100330Y-98539863D01*
X88100331Y-98539863D01*
X88100328Y-98539862D01*
X87958203Y-98501780D01*
X87876149Y-98479794D01*
X87847386Y-98476007D01*
X87646052Y-98449500D01*
X87646045Y-98449500D01*
X87413955Y-98449500D01*
X87413947Y-98449500D01*
X87183851Y-98479794D01*
X86959671Y-98539862D01*
X86745254Y-98628677D01*
X86745237Y-98628685D01*
X86544256Y-98744720D01*
X86544254Y-98744721D01*
X86360124Y-98886009D01*
X86360117Y-98886015D01*
X86220681Y-99025452D01*
X86159358Y-99058937D01*
X86089666Y-99053953D01*
X86045319Y-99025452D01*
X85905882Y-98886015D01*
X85905875Y-98886009D01*
X85721745Y-98744721D01*
X85721743Y-98744720D01*
X85520762Y-98628685D01*
X85520754Y-98628681D01*
X85520752Y-98628680D01*
X85306330Y-98539863D01*
X85306331Y-98539863D01*
X85306328Y-98539862D01*
X85164203Y-98501780D01*
X85082149Y-98479794D01*
X85053386Y-98476007D01*
X84852052Y-98449500D01*
X84852045Y-98449500D01*
X84619955Y-98449500D01*
X84619947Y-98449500D01*
X84389851Y-98479794D01*
X84165671Y-98539862D01*
X83951254Y-98628677D01*
X83951237Y-98628685D01*
X83750256Y-98744720D01*
X83750254Y-98744721D01*
X83566124Y-98886009D01*
X83566117Y-98886015D01*
X83426681Y-99025452D01*
X83365358Y-99058937D01*
X83295666Y-99053953D01*
X83251319Y-99025452D01*
X83111882Y-98886015D01*
X83111875Y-98886009D01*
X82927745Y-98744721D01*
X82927743Y-98744720D01*
X82726762Y-98628685D01*
X82726754Y-98628681D01*
X82726752Y-98628680D01*
X82512330Y-98539863D01*
X82512331Y-98539863D01*
X82512328Y-98539862D01*
X82370203Y-98501780D01*
X82288149Y-98479794D01*
X82259386Y-98476007D01*
X82058052Y-98449500D01*
X82058045Y-98449500D01*
X81825955Y-98449500D01*
X81825947Y-98449500D01*
X81595851Y-98479794D01*
X81371671Y-98539862D01*
X81157254Y-98628677D01*
X81157237Y-98628685D01*
X80956256Y-98744720D01*
X80956254Y-98744721D01*
X80772124Y-98886009D01*
X80772117Y-98886015D01*
X80608019Y-99050114D01*
X80608009Y-99050125D01*
X80562806Y-99109033D01*
X80506378Y-99150235D01*
X80463711Y-99156240D01*
X79446400Y-100173552D01*
X79446400Y-100167339D01*
X79419141Y-100065606D01*
X79366480Y-99974394D01*
X79292006Y-99899920D01*
X79200794Y-99847259D01*
X79099061Y-99820000D01*
X79092847Y-99820000D01*
X80108727Y-98804117D01*
X80031869Y-98745142D01*
X80031861Y-98745136D01*
X79830938Y-98629132D01*
X79830921Y-98629124D01*
X79616567Y-98540336D01*
X79392453Y-98480286D01*
X79392440Y-98480283D01*
X79162422Y-98450001D01*
X79162405Y-98450000D01*
X78930395Y-98450000D01*
X78930377Y-98450001D01*
X78700359Y-98480283D01*
X78700346Y-98480286D01*
X78476232Y-98540336D01*
X78261878Y-98629124D01*
X78261861Y-98629132D01*
X78060941Y-98745134D01*
X78060933Y-98745140D01*
X77984071Y-98804116D01*
X77984071Y-98804117D01*
X78999954Y-99820000D01*
X78993739Y-99820000D01*
X78892006Y-99847259D01*
X78800794Y-99899920D01*
X78726320Y-99974394D01*
X78673659Y-100065606D01*
X78646400Y-100167339D01*
X78646400Y-100173553D01*
X77628296Y-99155449D01*
X77568291Y-99142020D01*
X77536939Y-99117312D01*
X77533282Y-99113321D01*
X77484789Y-99050123D01*
X77372506Y-98937840D01*
X77372496Y-98937829D01*
X77320682Y-98886015D01*
X77320675Y-98886009D01*
X77136545Y-98744721D01*
X77136543Y-98744720D01*
X76935562Y-98628685D01*
X76935554Y-98628681D01*
X76935552Y-98628680D01*
X76721130Y-98539863D01*
X76721131Y-98539863D01*
X76721128Y-98539862D01*
X76579003Y-98501780D01*
X76496949Y-98479794D01*
X76468186Y-98476007D01*
X76266852Y-98449500D01*
X76266845Y-98449500D01*
X76034755Y-98449500D01*
X76034747Y-98449500D01*
X75804651Y-98479794D01*
X75580471Y-98539862D01*
X75366054Y-98628677D01*
X75366037Y-98628685D01*
X75165056Y-98744720D01*
X75165054Y-98744721D01*
X74980924Y-98886009D01*
X74980917Y-98886015D01*
X74816815Y-99050117D01*
X74816809Y-99050124D01*
X74722876Y-99172541D01*
X74666448Y-99213744D01*
X74596702Y-99217899D01*
X74535782Y-99183687D01*
X74503029Y-99121970D01*
X74500500Y-99097055D01*
X74500500Y-92321753D01*
X85468900Y-92321753D01*
X85468900Y-92479446D01*
X85499661Y-92634089D01*
X85499664Y-92634101D01*
X85560002Y-92779772D01*
X85560009Y-92779785D01*
X85647610Y-92910888D01*
X85647613Y-92910892D01*
X85759107Y-93022386D01*
X85759111Y-93022389D01*
X85890214Y-93109990D01*
X85890227Y-93109997D01*
X86035898Y-93170335D01*
X86035903Y-93170337D01*
X86100547Y-93183195D01*
X86191249Y-93201238D01*
X86253160Y-93233623D01*
X86254739Y-93235174D01*
X96733939Y-103714374D01*
X96733949Y-103714385D01*
X96738279Y-103718715D01*
X96738280Y-103718716D01*
X96850084Y-103830520D01*
X96936895Y-103880639D01*
X96936897Y-103880641D01*
X96974951Y-103902611D01*
X96987015Y-103909577D01*
X97139743Y-103950501D01*
X97139746Y-103950501D01*
X97305453Y-103950501D01*
X97305469Y-103950500D01*
X105040398Y-103950500D01*
X105107437Y-103970185D01*
X105150883Y-104018205D01*
X105157715Y-104031614D01*
X105278028Y-104197213D01*
X105422786Y-104341971D01*
X105577749Y-104454556D01*
X105588390Y-104462287D01*
X105666227Y-104501947D01*
X105681080Y-104509515D01*
X105731876Y-104557490D01*
X105748671Y-104625311D01*
X105726134Y-104691446D01*
X105681080Y-104730485D01*
X105588386Y-104777715D01*
X105422786Y-104898028D01*
X105278028Y-105042786D01*
X105157715Y-105208386D01*
X105064781Y-105390776D01*
X105001522Y-105585465D01*
X104969500Y-105787648D01*
X104969500Y-105992351D01*
X105001522Y-106194534D01*
X105064781Y-106389223D01*
X105128691Y-106514653D01*
X105157712Y-106571609D01*
X105157715Y-106571613D01*
X105278028Y-106737213D01*
X105422786Y-106881971D01*
X105577749Y-106994556D01*
X105588390Y-107002287D01*
X105660424Y-107038990D01*
X105681629Y-107049795D01*
X105732425Y-107097770D01*
X105749220Y-107165591D01*
X105726682Y-107231726D01*
X105681629Y-107270765D01*
X105588650Y-107318140D01*
X105423105Y-107438417D01*
X105423104Y-107438417D01*
X105278417Y-107583104D01*
X105278417Y-107583105D01*
X105158140Y-107748650D01*
X105065244Y-107930970D01*
X105002009Y-108125586D01*
X104993391Y-108180000D01*
X105836988Y-108180000D01*
X105804075Y-108237007D01*
X105770000Y-108364174D01*
X105770000Y-108495826D01*
X105804075Y-108622993D01*
X105836988Y-108680000D01*
X104993391Y-108680000D01*
X105002009Y-108734413D01*
X105065244Y-108929029D01*
X105158140Y-109111349D01*
X105278417Y-109276894D01*
X105278417Y-109276895D01*
X105423104Y-109421582D01*
X105588652Y-109541861D01*
X105681628Y-109589234D01*
X105732425Y-109637208D01*
X105749220Y-109705029D01*
X105726683Y-109771164D01*
X105681630Y-109810203D01*
X105588388Y-109857713D01*
X105422786Y-109978028D01*
X105278028Y-110122786D01*
X105157715Y-110288386D01*
X105064781Y-110470776D01*
X105001522Y-110665465D01*
X104969500Y-110867648D01*
X104969500Y-111072351D01*
X105001522Y-111274534D01*
X105064781Y-111469223D01*
X105157715Y-111651613D01*
X105278028Y-111817213D01*
X105422786Y-111961971D01*
X105556612Y-112059199D01*
X105588390Y-112082287D01*
X105677212Y-112127544D01*
X105770776Y-112175218D01*
X105770778Y-112175218D01*
X105770781Y-112175220D01*
X105870800Y-112207718D01*
X105965465Y-112238477D01*
X106066557Y-112254488D01*
X106167648Y-112270500D01*
X106167649Y-112270500D01*
X106372351Y-112270500D01*
X106372352Y-112270500D01*
X106574534Y-112238477D01*
X106769219Y-112175220D01*
X106951610Y-112082287D01*
X107079865Y-111989105D01*
X107117213Y-111961971D01*
X107117215Y-111961968D01*
X107117219Y-111961966D01*
X107261966Y-111817219D01*
X107261968Y-111817215D01*
X107261971Y-111817213D01*
X107350039Y-111695996D01*
X107382287Y-111651610D01*
X107475220Y-111469219D01*
X107538477Y-111274534D01*
X107570500Y-111072352D01*
X107570500Y-110867648D01*
X107541152Y-110682352D01*
X107538477Y-110665465D01*
X107489363Y-110514310D01*
X107475220Y-110470781D01*
X107475218Y-110470778D01*
X107475218Y-110470776D01*
X107414157Y-110350939D01*
X107382287Y-110288390D01*
X107351322Y-110245770D01*
X107261971Y-110122786D01*
X107117213Y-109978028D01*
X106951611Y-109857713D01*
X106858369Y-109810203D01*
X106807574Y-109762229D01*
X106790779Y-109694407D01*
X106813317Y-109628273D01*
X106858371Y-109589234D01*
X106951347Y-109541861D01*
X107116894Y-109421582D01*
X107116895Y-109421582D01*
X107261582Y-109276895D01*
X107261582Y-109276894D01*
X107381859Y-109111349D01*
X107474755Y-108929029D01*
X107537990Y-108734413D01*
X107546609Y-108680000D01*
X106703012Y-108680000D01*
X106735925Y-108622993D01*
X106770000Y-108495826D01*
X106770000Y-108364174D01*
X106735925Y-108237007D01*
X106703012Y-108180000D01*
X107546609Y-108180000D01*
X107537990Y-108125586D01*
X107474755Y-107930970D01*
X107381859Y-107748650D01*
X107261582Y-107583105D01*
X107261582Y-107583104D01*
X107116895Y-107438417D01*
X106951349Y-107318140D01*
X106858370Y-107270765D01*
X106807574Y-107222790D01*
X106790779Y-107154969D01*
X106813316Y-107088835D01*
X106858370Y-107049795D01*
X106858920Y-107049515D01*
X106951610Y-107002287D01*
X106972770Y-106986913D01*
X107117213Y-106881971D01*
X107117215Y-106881968D01*
X107117219Y-106881966D01*
X107261966Y-106737219D01*
X107261968Y-106737215D01*
X107261971Y-106737213D01*
X107318451Y-106659474D01*
X107382287Y-106571610D01*
X107475220Y-106389219D01*
X107538477Y-106194534D01*
X107570500Y-105992352D01*
X107570500Y-105787648D01*
X107538477Y-105585466D01*
X107536701Y-105580001D01*
X107486535Y-105425606D01*
X107475220Y-105390781D01*
X107475218Y-105390778D01*
X107475218Y-105390776D01*
X107416523Y-105275582D01*
X107382287Y-105208390D01*
X107361661Y-105180000D01*
X107261971Y-105042786D01*
X107117213Y-104898028D01*
X106951614Y-104777715D01*
X106873859Y-104738097D01*
X106858917Y-104730483D01*
X106808123Y-104682511D01*
X106791328Y-104614690D01*
X106813865Y-104548555D01*
X106858917Y-104509516D01*
X106951610Y-104462287D01*
X107026732Y-104407708D01*
X107117213Y-104341971D01*
X107117215Y-104341968D01*
X107117219Y-104341966D01*
X107261966Y-104197219D01*
X107261968Y-104197215D01*
X107261971Y-104197213D01*
X107354395Y-104070000D01*
X107382287Y-104031610D01*
X107475220Y-103849219D01*
X107538477Y-103654534D01*
X107570500Y-103452352D01*
X107570500Y-103247648D01*
X107538477Y-103045466D01*
X107533827Y-103031157D01*
X107531831Y-102961318D01*
X107564079Y-102905155D01*
X107582419Y-102886816D01*
X107643743Y-102853333D01*
X107670098Y-102850500D01*
X120134725Y-102850500D01*
X120201764Y-102870185D01*
X120247519Y-102922989D01*
X120257463Y-102992147D01*
X120252656Y-103012817D01*
X120242010Y-103045581D01*
X120242009Y-103045586D01*
X120233391Y-103100000D01*
X121076988Y-103100000D01*
X121044075Y-103157007D01*
X121010000Y-103284174D01*
X121010000Y-103415826D01*
X121044075Y-103542993D01*
X121076988Y-103600000D01*
X120233391Y-103600000D01*
X120242009Y-103654413D01*
X120305244Y-103849029D01*
X120398140Y-104031349D01*
X120518417Y-104196894D01*
X120518417Y-104196895D01*
X120663104Y-104341582D01*
X120828652Y-104461861D01*
X120921628Y-104509234D01*
X120972425Y-104557208D01*
X120989220Y-104625029D01*
X120966683Y-104691164D01*
X120921630Y-104730203D01*
X120828388Y-104777713D01*
X120662786Y-104898028D01*
X120518028Y-105042786D01*
X120397715Y-105208386D01*
X120304781Y-105390776D01*
X120241522Y-105585465D01*
X120209500Y-105787648D01*
X120209500Y-105992351D01*
X120241522Y-106194534D01*
X120304781Y-106389223D01*
X120368691Y-106514653D01*
X120397712Y-106571609D01*
X120397715Y-106571613D01*
X120518028Y-106737213D01*
X120662786Y-106881971D01*
X120817749Y-106994556D01*
X120828390Y-107002287D01*
X120919840Y-107048883D01*
X120921080Y-107049515D01*
X120971876Y-107097490D01*
X120988671Y-107165311D01*
X120966134Y-107231446D01*
X120921080Y-107270485D01*
X120828386Y-107317715D01*
X120662786Y-107438028D01*
X120518028Y-107582786D01*
X120397715Y-107748386D01*
X120304781Y-107930776D01*
X120241522Y-108125465D01*
X120209500Y-108327648D01*
X120209500Y-108532351D01*
X120241522Y-108734534D01*
X120304781Y-108929223D01*
X120397715Y-109111613D01*
X120518028Y-109277213D01*
X120662784Y-109421969D01*
X120699068Y-109448330D01*
X120741735Y-109503659D01*
X120747715Y-109573273D01*
X120715109Y-109635068D01*
X120654271Y-109669426D01*
X120639440Y-109671938D01*
X120602519Y-109675907D01*
X120467671Y-109726202D01*
X120467664Y-109726206D01*
X120352455Y-109812452D01*
X120352452Y-109812455D01*
X120266206Y-109927664D01*
X120266202Y-109927671D01*
X120215908Y-110062517D01*
X120213945Y-110080781D01*
X120209501Y-110122123D01*
X120209500Y-110122135D01*
X120209500Y-111817870D01*
X120209501Y-111817876D01*
X120215908Y-111877483D01*
X120266202Y-112012328D01*
X120266206Y-112012335D01*
X120352452Y-112127544D01*
X120352455Y-112127547D01*
X120467664Y-112213793D01*
X120467671Y-112213797D01*
X120602517Y-112264091D01*
X120602516Y-112264091D01*
X120606451Y-112264514D01*
X120662127Y-112270500D01*
X122357872Y-112270499D01*
X122417483Y-112264091D01*
X122552331Y-112213796D01*
X122667546Y-112127546D01*
X122753796Y-112012331D01*
X122804091Y-111877483D01*
X122810500Y-111817873D01*
X122810499Y-110477648D01*
X126069500Y-110477648D01*
X126069500Y-110682351D01*
X126101522Y-110884534D01*
X126164781Y-111079223D01*
X126257715Y-111261613D01*
X126378028Y-111427213D01*
X126522786Y-111571971D01*
X126657714Y-111670000D01*
X126688390Y-111692287D01*
X126804607Y-111751503D01*
X126870776Y-111785218D01*
X126870778Y-111785218D01*
X126870781Y-111785220D01*
X126969245Y-111817213D01*
X127065465Y-111848477D01*
X127166557Y-111864488D01*
X127267648Y-111880500D01*
X127267649Y-111880500D01*
X127472351Y-111880500D01*
X127472352Y-111880500D01*
X127674534Y-111848477D01*
X127869219Y-111785220D01*
X128051610Y-111692287D01*
X128144590Y-111624732D01*
X128217213Y-111571971D01*
X128217215Y-111571968D01*
X128217219Y-111571966D01*
X128361966Y-111427219D01*
X128361968Y-111427215D01*
X128361971Y-111427213D01*
X128472897Y-111274534D01*
X128482287Y-111261610D01*
X128575220Y-111079219D01*
X128638477Y-110884534D01*
X128670500Y-110682352D01*
X128670500Y-110477648D01*
X128647721Y-110333828D01*
X128638477Y-110275465D01*
X128588868Y-110122786D01*
X128575220Y-110080781D01*
X128575218Y-110080778D01*
X128575218Y-110080776D01*
X128541503Y-110014607D01*
X128482287Y-109898390D01*
X128452734Y-109857713D01*
X128361971Y-109732786D01*
X128217213Y-109588028D01*
X128051613Y-109467715D01*
X128051612Y-109467714D01*
X128051610Y-109467713D01*
X127994653Y-109438691D01*
X127869223Y-109374781D01*
X127674534Y-109311522D01*
X127499995Y-109283878D01*
X127472352Y-109279500D01*
X127267648Y-109279500D01*
X127243329Y-109283351D01*
X127065465Y-109311522D01*
X126870776Y-109374781D01*
X126688386Y-109467715D01*
X126522786Y-109588028D01*
X126378028Y-109732786D01*
X126257715Y-109898386D01*
X126164781Y-110080776D01*
X126101522Y-110275465D01*
X126069500Y-110477648D01*
X122810499Y-110477648D01*
X122810499Y-110122128D01*
X122804091Y-110062517D01*
X122771629Y-109975483D01*
X122753797Y-109927671D01*
X122753793Y-109927664D01*
X122667547Y-109812455D01*
X122667544Y-109812452D01*
X122552335Y-109726206D01*
X122552328Y-109726202D01*
X122417482Y-109675908D01*
X122417483Y-109675908D01*
X122380560Y-109671939D01*
X122316009Y-109645201D01*
X122276160Y-109587809D01*
X122273667Y-109517984D01*
X122309319Y-109457895D01*
X122320930Y-109448331D01*
X122357219Y-109421966D01*
X122501966Y-109277219D01*
X122501968Y-109277215D01*
X122501971Y-109277213D01*
X122554732Y-109204590D01*
X122622287Y-109111610D01*
X122715220Y-108929219D01*
X122778477Y-108734534D01*
X122810500Y-108532352D01*
X122810500Y-108327648D01*
X122796144Y-108237007D01*
X122778477Y-108125465D01*
X122715218Y-107930776D01*
X122622419Y-107748650D01*
X122622287Y-107748390D01*
X122614556Y-107737749D01*
X122501971Y-107582786D01*
X122357213Y-107438028D01*
X122191614Y-107317715D01*
X122185006Y-107314348D01*
X122098917Y-107270483D01*
X122048123Y-107222511D01*
X122031328Y-107154690D01*
X122053865Y-107088555D01*
X122098917Y-107049516D01*
X122191610Y-107002287D01*
X122212770Y-106986913D01*
X122357213Y-106881971D01*
X122357215Y-106881968D01*
X122357219Y-106881966D01*
X122501966Y-106737219D01*
X122501968Y-106737215D01*
X122501971Y-106737213D01*
X122622287Y-106571610D01*
X122622288Y-106571609D01*
X122630279Y-106555925D01*
X122630281Y-106555920D01*
X122715218Y-106389223D01*
X122715218Y-106389222D01*
X122715220Y-106389219D01*
X122778477Y-106194534D01*
X122810500Y-105992352D01*
X122810500Y-105787648D01*
X122778477Y-105585466D01*
X122776701Y-105580001D01*
X122754325Y-105511135D01*
X122743456Y-105477682D01*
X126070000Y-105477682D01*
X126070000Y-105682317D01*
X126102009Y-105884417D01*
X126165244Y-106079031D01*
X126258141Y-106261350D01*
X126258147Y-106261359D01*
X126290523Y-106305921D01*
X126290524Y-106305922D01*
X126970000Y-105626446D01*
X126970000Y-105632661D01*
X126997259Y-105734394D01*
X127049920Y-105825606D01*
X127124394Y-105900080D01*
X127215606Y-105952741D01*
X127317339Y-105980000D01*
X127323553Y-105980000D01*
X126644076Y-106659474D01*
X126688650Y-106691859D01*
X126870968Y-106784755D01*
X127065582Y-106847990D01*
X127267683Y-106880000D01*
X127472317Y-106880000D01*
X127674417Y-106847990D01*
X127869031Y-106784755D01*
X128051349Y-106691859D01*
X128095921Y-106659474D01*
X127416447Y-105980000D01*
X127422661Y-105980000D01*
X127524394Y-105952741D01*
X127615606Y-105900080D01*
X127690080Y-105825606D01*
X127742741Y-105734394D01*
X127770000Y-105632661D01*
X127770000Y-105626447D01*
X128449474Y-106305921D01*
X128481859Y-106261349D01*
X128574755Y-106079031D01*
X128637990Y-105884417D01*
X128670000Y-105682317D01*
X128670000Y-105477682D01*
X128637990Y-105275582D01*
X128574755Y-105080968D01*
X128481859Y-104898650D01*
X128449474Y-104854077D01*
X128449474Y-104854076D01*
X127770000Y-105533551D01*
X127770000Y-105527339D01*
X127742741Y-105425606D01*
X127690080Y-105334394D01*
X127615606Y-105259920D01*
X127524394Y-105207259D01*
X127422661Y-105180000D01*
X127416446Y-105180000D01*
X128095922Y-104500524D01*
X128095921Y-104500523D01*
X128051359Y-104468147D01*
X128051350Y-104468141D01*
X127869031Y-104375244D01*
X127674417Y-104312009D01*
X127472317Y-104280000D01*
X127267683Y-104280000D01*
X127065582Y-104312009D01*
X126870968Y-104375244D01*
X126688644Y-104468143D01*
X126644077Y-104500523D01*
X126644077Y-104500524D01*
X127323554Y-105180000D01*
X127317339Y-105180000D01*
X127215606Y-105207259D01*
X127124394Y-105259920D01*
X127049920Y-105334394D01*
X126997259Y-105425606D01*
X126970000Y-105527339D01*
X126970000Y-105533553D01*
X126290524Y-104854077D01*
X126290523Y-104854077D01*
X126258143Y-104898644D01*
X126165244Y-105080968D01*
X126102009Y-105275582D01*
X126070000Y-105477682D01*
X122743456Y-105477682D01*
X122715220Y-105390781D01*
X122622287Y-105208390D01*
X122601661Y-105180000D01*
X122501971Y-105042786D01*
X122357213Y-104898028D01*
X122191611Y-104777713D01*
X122098369Y-104730203D01*
X122047574Y-104682229D01*
X122030779Y-104614407D01*
X122053317Y-104548273D01*
X122094409Y-104511344D01*
X122217229Y-104443056D01*
X122356894Y-104341582D01*
X122356895Y-104341582D01*
X122501582Y-104196895D01*
X122501582Y-104196894D01*
X122621859Y-104031349D01*
X122714755Y-103849029D01*
X122777990Y-103654413D01*
X122786609Y-103600000D01*
X121943012Y-103600000D01*
X121975925Y-103542993D01*
X122010000Y-103415826D01*
X122010000Y-103284174D01*
X121975925Y-103157007D01*
X121943012Y-103100000D01*
X122786609Y-103100000D01*
X122777990Y-103045586D01*
X122777989Y-103045581D01*
X122767344Y-103012817D01*
X122765349Y-102942976D01*
X122801430Y-102883143D01*
X122864131Y-102852316D01*
X122885275Y-102850500D01*
X130463332Y-102850500D01*
X130470939Y-102850500D01*
X130470943Y-102850501D01*
X130595501Y-102850501D01*
X130662540Y-102870186D01*
X130708295Y-102922990D01*
X130708296Y-102923003D01*
X130719500Y-102974501D01*
X130719500Y-110343330D01*
X130719499Y-110343348D01*
X130719499Y-110509054D01*
X130719498Y-110509054D01*
X130760423Y-110661785D01*
X130789358Y-110711900D01*
X130789359Y-110711904D01*
X130789360Y-110711904D01*
X130839479Y-110798714D01*
X130839481Y-110798717D01*
X130958349Y-110917585D01*
X130958355Y-110917590D01*
X131109933Y-111069168D01*
X131143418Y-111130491D01*
X131144725Y-111176247D01*
X131119500Y-111335513D01*
X131119500Y-111524486D01*
X131149059Y-111711118D01*
X131207454Y-111890836D01*
X131293240Y-112059199D01*
X131404310Y-112212073D01*
X131537927Y-112345690D01*
X131690801Y-112456760D01*
X131770347Y-112497290D01*
X131859163Y-112542545D01*
X131859165Y-112542545D01*
X131859168Y-112542547D01*
X131955497Y-112573846D01*
X132038881Y-112600940D01*
X132225514Y-112630500D01*
X132225519Y-112630500D01*
X132414486Y-112630500D01*
X132601118Y-112600940D01*
X132656131Y-112583065D01*
X132780832Y-112542547D01*
X132949199Y-112456760D01*
X133102073Y-112345690D01*
X133235690Y-112212073D01*
X133346760Y-112059199D01*
X133432547Y-111890832D01*
X133490940Y-111711118D01*
X133493366Y-111695802D01*
X133520500Y-111524486D01*
X133520500Y-111335513D01*
X133490940Y-111148881D01*
X133468305Y-111079219D01*
X133443183Y-111001902D01*
X134969500Y-111001902D01*
X134969500Y-111238097D01*
X135006446Y-111471368D01*
X135079433Y-111695996D01*
X135157127Y-111848477D01*
X135186657Y-111906433D01*
X135325483Y-112097510D01*
X135492490Y-112264517D01*
X135683567Y-112403343D01*
X135782991Y-112454002D01*
X135894003Y-112510566D01*
X135894005Y-112510566D01*
X135894008Y-112510568D01*
X135992423Y-112542545D01*
X136118631Y-112583553D01*
X136351903Y-112620500D01*
X136351908Y-112620500D01*
X136588097Y-112620500D01*
X136821368Y-112583553D01*
X136822870Y-112583065D01*
X137045992Y-112510568D01*
X137256433Y-112403343D01*
X137447510Y-112264517D01*
X137614517Y-112097510D01*
X137753343Y-111906433D01*
X137860568Y-111695992D01*
X137933553Y-111471368D01*
X137935717Y-111457708D01*
X137970500Y-111238097D01*
X137970500Y-111001947D01*
X139470000Y-111001947D01*
X139470000Y-111238052D01*
X139506934Y-111471247D01*
X139579897Y-111695802D01*
X139687087Y-111906174D01*
X139747338Y-111989104D01*
X139747340Y-111989105D01*
X140446212Y-111290233D01*
X140457482Y-111332292D01*
X140529890Y-111457708D01*
X140632292Y-111560110D01*
X140757708Y-111632518D01*
X140799765Y-111643787D01*
X140100893Y-112342658D01*
X140183828Y-112402914D01*
X140394197Y-112510102D01*
X140618752Y-112583065D01*
X140618751Y-112583065D01*
X140851948Y-112620000D01*
X141088052Y-112620000D01*
X141321247Y-112583065D01*
X141545802Y-112510102D01*
X141756163Y-112402918D01*
X141756169Y-112402914D01*
X141839104Y-112342658D01*
X141839105Y-112342658D01*
X141140233Y-111643787D01*
X141182292Y-111632518D01*
X141307708Y-111560110D01*
X141410110Y-111457708D01*
X141482518Y-111332292D01*
X141493787Y-111290234D01*
X142192658Y-111989105D01*
X142192658Y-111989104D01*
X142252914Y-111906169D01*
X142252918Y-111906163D01*
X142360102Y-111695802D01*
X142433065Y-111471247D01*
X142470000Y-111238052D01*
X142470000Y-111001947D01*
X142433065Y-110768752D01*
X142360102Y-110544197D01*
X142252914Y-110333828D01*
X142192658Y-110250894D01*
X142192658Y-110250893D01*
X141493787Y-110949765D01*
X141482518Y-110907708D01*
X141410110Y-110782292D01*
X141307708Y-110679890D01*
X141182292Y-110607482D01*
X141140234Y-110596212D01*
X141839105Y-109897340D01*
X141839104Y-109897338D01*
X141756174Y-109837087D01*
X141545802Y-109729897D01*
X141321247Y-109656934D01*
X141321248Y-109656934D01*
X141088052Y-109620000D01*
X140851948Y-109620000D01*
X140618752Y-109656934D01*
X140394197Y-109729897D01*
X140183830Y-109837084D01*
X140100894Y-109897340D01*
X140799766Y-110596212D01*
X140757708Y-110607482D01*
X140632292Y-110679890D01*
X140529890Y-110782292D01*
X140457482Y-110907708D01*
X140446212Y-110949766D01*
X139747340Y-110250894D01*
X139687084Y-110333830D01*
X139579897Y-110544197D01*
X139506934Y-110768752D01*
X139470000Y-111001947D01*
X137970500Y-111001947D01*
X137970500Y-111001902D01*
X137933553Y-110768631D01*
X137860566Y-110544003D01*
X137788843Y-110403240D01*
X137753343Y-110333567D01*
X137614517Y-110142490D01*
X137447510Y-109975483D01*
X137256433Y-109836657D01*
X137208928Y-109812452D01*
X137045996Y-109729433D01*
X136821368Y-109656446D01*
X136588097Y-109619500D01*
X136588092Y-109619500D01*
X136351908Y-109619500D01*
X136351903Y-109619500D01*
X136118631Y-109656446D01*
X135894003Y-109729433D01*
X135683566Y-109836657D01*
X135598599Y-109898390D01*
X135492490Y-109975483D01*
X135492488Y-109975485D01*
X135492487Y-109975485D01*
X135325485Y-110142487D01*
X135325485Y-110142488D01*
X135325483Y-110142490D01*
X135297312Y-110181264D01*
X135186657Y-110333566D01*
X135079433Y-110544003D01*
X135006446Y-110768631D01*
X134969500Y-111001902D01*
X133443183Y-111001902D01*
X133432547Y-110969168D01*
X133346760Y-110800801D01*
X133235690Y-110647927D01*
X133102073Y-110514310D01*
X132949199Y-110403240D01*
X132780836Y-110317454D01*
X132601118Y-110259059D01*
X132414486Y-110229500D01*
X132414481Y-110229500D01*
X132225519Y-110229500D01*
X132225514Y-110229500D01*
X132066248Y-110254725D01*
X131996954Y-110245770D01*
X131959151Y-110219916D01*
X131956800Y-110217564D01*
X131923328Y-110156233D01*
X131920500Y-110129901D01*
X131920500Y-105107375D01*
X131940185Y-105040336D01*
X131992989Y-104994581D01*
X132062147Y-104984637D01*
X132063884Y-104984900D01*
X132080715Y-104987565D01*
X132225514Y-105010500D01*
X132225519Y-105010500D01*
X132414486Y-105010500D01*
X132601118Y-104980940D01*
X132780832Y-104922547D01*
X132949199Y-104836760D01*
X133102073Y-104725690D01*
X133235690Y-104592073D01*
X133301203Y-104501902D01*
X134969500Y-104501902D01*
X134969500Y-104738097D01*
X135006446Y-104971368D01*
X135079433Y-105195996D01*
X135149951Y-105334394D01*
X135186657Y-105406433D01*
X135325483Y-105597510D01*
X135492490Y-105764517D01*
X135683567Y-105903343D01*
X135780516Y-105952741D01*
X135894003Y-106010566D01*
X135894005Y-106010566D01*
X135894008Y-106010568D01*
X136014412Y-106049689D01*
X136118631Y-106083553D01*
X136351903Y-106120500D01*
X136351908Y-106120500D01*
X136588097Y-106120500D01*
X136821368Y-106083553D01*
X136835285Y-106079031D01*
X137045992Y-106010568D01*
X137256433Y-105903343D01*
X137447510Y-105764517D01*
X137614517Y-105597510D01*
X137753343Y-105406433D01*
X137860568Y-105195992D01*
X137933553Y-104971368D01*
X137938129Y-104942475D01*
X137970500Y-104738097D01*
X137970500Y-104501947D01*
X139470000Y-104501947D01*
X139470000Y-104738052D01*
X139506934Y-104971247D01*
X139579897Y-105195802D01*
X139687087Y-105406174D01*
X139747338Y-105489104D01*
X139747340Y-105489105D01*
X140446212Y-104790233D01*
X140457482Y-104832292D01*
X140529890Y-104957708D01*
X140632292Y-105060110D01*
X140757708Y-105132518D01*
X140799765Y-105143787D01*
X140100893Y-105842658D01*
X140183828Y-105902914D01*
X140394197Y-106010102D01*
X140618752Y-106083065D01*
X140618751Y-106083065D01*
X140851948Y-106120000D01*
X141088052Y-106120000D01*
X141321247Y-106083065D01*
X141545802Y-106010102D01*
X141756163Y-105902918D01*
X141756169Y-105902914D01*
X141839104Y-105842658D01*
X141839105Y-105842658D01*
X141140233Y-105143787D01*
X141182292Y-105132518D01*
X141307708Y-105060110D01*
X141410110Y-104957708D01*
X141482518Y-104832292D01*
X141493787Y-104790234D01*
X142192658Y-105489105D01*
X142192658Y-105489104D01*
X142252914Y-105406169D01*
X142252918Y-105406163D01*
X142360102Y-105195802D01*
X142433065Y-104971247D01*
X142470000Y-104738052D01*
X142470000Y-104501947D01*
X142433065Y-104268752D01*
X142360102Y-104044197D01*
X142252914Y-103833828D01*
X142192658Y-103750894D01*
X142192658Y-103750893D01*
X141493787Y-104449765D01*
X141482518Y-104407708D01*
X141410110Y-104282292D01*
X141307708Y-104179890D01*
X141182292Y-104107482D01*
X141140234Y-104096212D01*
X141839105Y-103397340D01*
X141839104Y-103397338D01*
X141756174Y-103337087D01*
X141545802Y-103229897D01*
X141321247Y-103156934D01*
X141321248Y-103156934D01*
X141088052Y-103120000D01*
X140851948Y-103120000D01*
X140618752Y-103156934D01*
X140394197Y-103229897D01*
X140183830Y-103337084D01*
X140100894Y-103397340D01*
X140799766Y-104096212D01*
X140757708Y-104107482D01*
X140632292Y-104179890D01*
X140529890Y-104282292D01*
X140457482Y-104407708D01*
X140446212Y-104449766D01*
X139747340Y-103750894D01*
X139687084Y-103833830D01*
X139579897Y-104044197D01*
X139506934Y-104268752D01*
X139470000Y-104501947D01*
X137970500Y-104501947D01*
X137970500Y-104501902D01*
X137933553Y-104268631D01*
X137860566Y-104044003D01*
X137753477Y-103833830D01*
X137753343Y-103833567D01*
X137614517Y-103642490D01*
X137447510Y-103475483D01*
X137256433Y-103336657D01*
X137045996Y-103229433D01*
X136821368Y-103156446D01*
X136588097Y-103119500D01*
X136588092Y-103119500D01*
X136351908Y-103119500D01*
X136351903Y-103119500D01*
X136118631Y-103156446D01*
X135894003Y-103229433D01*
X135683566Y-103336657D01*
X135600047Y-103397338D01*
X135492490Y-103475483D01*
X135492488Y-103475485D01*
X135492487Y-103475485D01*
X135325485Y-103642487D01*
X135325485Y-103642488D01*
X135325483Y-103642490D01*
X135314936Y-103657007D01*
X135186657Y-103833566D01*
X135079433Y-104044003D01*
X135006446Y-104268631D01*
X134969500Y-104501902D01*
X133301203Y-104501902D01*
X133346760Y-104439199D01*
X133432547Y-104270832D01*
X133490940Y-104091118D01*
X133494285Y-104070000D01*
X133520500Y-103904486D01*
X133520500Y-103715513D01*
X133490940Y-103528881D01*
X133432545Y-103349163D01*
X133380820Y-103247648D01*
X133346760Y-103180801D01*
X133235690Y-103027927D01*
X133102073Y-102894310D01*
X132949199Y-102783240D01*
X132780836Y-102697454D01*
X132601118Y-102639059D01*
X132414486Y-102609500D01*
X132414481Y-102609500D01*
X132225519Y-102609500D01*
X132225514Y-102609500D01*
X132063898Y-102635097D01*
X131994604Y-102626142D01*
X131941152Y-102581146D01*
X131920513Y-102514394D01*
X131920500Y-102512624D01*
X131920500Y-102064500D01*
X131940185Y-101997461D01*
X131992989Y-101951706D01*
X132044500Y-101940500D01*
X132154486Y-101940500D01*
X132341118Y-101910940D01*
X132374366Y-101900137D01*
X132520832Y-101852547D01*
X132689199Y-101766760D01*
X132842073Y-101655690D01*
X132975690Y-101522073D01*
X133086760Y-101369199D01*
X133172547Y-101200832D01*
X133230940Y-101021118D01*
X133248167Y-100912351D01*
X133260500Y-100834486D01*
X133260500Y-100645513D01*
X133230940Y-100458881D01*
X133200551Y-100365355D01*
X133191030Y-100336052D01*
X133189682Y-100331902D01*
X134869500Y-100331902D01*
X134869500Y-100568097D01*
X134906446Y-100801368D01*
X134979433Y-101025996D01*
X134998310Y-101063043D01*
X135086657Y-101236433D01*
X135225483Y-101427510D01*
X135392490Y-101594517D01*
X135583567Y-101733343D01*
X135649150Y-101766759D01*
X135794003Y-101840566D01*
X135794005Y-101840566D01*
X135794008Y-101840568D01*
X135914412Y-101879689D01*
X136018631Y-101913553D01*
X136251903Y-101950500D01*
X136251908Y-101950500D01*
X136488097Y-101950500D01*
X136721368Y-101913553D01*
X136762658Y-101900137D01*
X136945992Y-101840568D01*
X137156433Y-101733343D01*
X137347510Y-101594517D01*
X137514517Y-101427510D01*
X137653343Y-101236433D01*
X137760568Y-101025992D01*
X137833553Y-100801368D01*
X137848397Y-100707648D01*
X137870500Y-100568097D01*
X137870500Y-100331947D01*
X139370000Y-100331947D01*
X139370000Y-100568052D01*
X139406934Y-100801247D01*
X139479897Y-101025802D01*
X139587087Y-101236174D01*
X139647338Y-101319104D01*
X139647340Y-101319105D01*
X140346212Y-100620233D01*
X140357482Y-100662292D01*
X140429890Y-100787708D01*
X140532292Y-100890110D01*
X140657708Y-100962518D01*
X140699765Y-100973787D01*
X140000893Y-101672658D01*
X140083828Y-101732914D01*
X140294197Y-101840102D01*
X140518752Y-101913065D01*
X140518751Y-101913065D01*
X140751948Y-101950000D01*
X140988052Y-101950000D01*
X141221247Y-101913065D01*
X141445802Y-101840102D01*
X141656163Y-101732918D01*
X141656169Y-101732914D01*
X141739104Y-101672658D01*
X141739105Y-101672658D01*
X141040233Y-100973787D01*
X141082292Y-100962518D01*
X141207708Y-100890110D01*
X141310110Y-100787708D01*
X141382518Y-100662292D01*
X141393787Y-100620233D01*
X142092658Y-101319105D01*
X142092658Y-101319104D01*
X142152914Y-101236169D01*
X142152918Y-101236163D01*
X142260102Y-101025802D01*
X142333065Y-100801247D01*
X142370000Y-100568052D01*
X142370000Y-100331947D01*
X142333065Y-100098752D01*
X142260102Y-99874197D01*
X142152914Y-99663828D01*
X142092658Y-99580894D01*
X142092658Y-99580893D01*
X141393787Y-100279765D01*
X141382518Y-100237708D01*
X141310110Y-100112292D01*
X141207708Y-100009890D01*
X141082292Y-99937482D01*
X141040234Y-99926212D01*
X141739105Y-99227340D01*
X141739104Y-99227338D01*
X141656174Y-99167087D01*
X141445802Y-99059897D01*
X141221247Y-98986934D01*
X141221248Y-98986934D01*
X140988052Y-98950000D01*
X140751948Y-98950000D01*
X140518752Y-98986934D01*
X140294197Y-99059897D01*
X140083830Y-99167084D01*
X140000894Y-99227340D01*
X140699766Y-99926212D01*
X140657708Y-99937482D01*
X140532292Y-100009890D01*
X140429890Y-100112292D01*
X140357482Y-100237708D01*
X140346212Y-100279766D01*
X139647340Y-99580894D01*
X139587084Y-99663830D01*
X139479897Y-99874197D01*
X139406934Y-100098752D01*
X139370000Y-100331947D01*
X137870500Y-100331947D01*
X137870500Y-100331902D01*
X137833553Y-100098631D01*
X137772843Y-99911787D01*
X137760568Y-99874008D01*
X137760566Y-99874005D01*
X137760566Y-99874003D01*
X137701996Y-99759054D01*
X137653343Y-99663567D01*
X137514517Y-99472490D01*
X137347510Y-99305483D01*
X137156433Y-99166657D01*
X136945996Y-99059433D01*
X136721368Y-98986446D01*
X136488097Y-98949500D01*
X136488092Y-98949500D01*
X136251908Y-98949500D01*
X136251903Y-98949500D01*
X136018631Y-98986446D01*
X135794003Y-99059433D01*
X135583566Y-99166657D01*
X135500047Y-99227338D01*
X135392490Y-99305483D01*
X135392488Y-99305485D01*
X135392487Y-99305485D01*
X135225485Y-99472487D01*
X135225485Y-99472488D01*
X135225483Y-99472490D01*
X135172575Y-99545311D01*
X135086657Y-99663566D01*
X134979433Y-99874003D01*
X134906446Y-100098631D01*
X134869500Y-100331902D01*
X133189682Y-100331902D01*
X133172547Y-100279168D01*
X133172545Y-100279165D01*
X133172545Y-100279163D01*
X133127290Y-100190347D01*
X133086760Y-100110801D01*
X132975690Y-99957927D01*
X132842073Y-99824310D01*
X132689199Y-99713240D01*
X132520836Y-99627454D01*
X132341118Y-99569059D01*
X132154486Y-99539500D01*
X132154481Y-99539500D01*
X131965519Y-99539500D01*
X131965514Y-99539500D01*
X131806247Y-99564725D01*
X131736953Y-99555770D01*
X131699168Y-99529933D01*
X131636819Y-99467584D01*
X131603334Y-99406261D01*
X131600500Y-99379903D01*
X131600500Y-94403651D01*
X131620185Y-94336612D01*
X131672989Y-94290857D01*
X131742147Y-94280913D01*
X131762811Y-94285718D01*
X131778882Y-94290940D01*
X131858525Y-94303554D01*
X131965514Y-94320500D01*
X131965519Y-94320500D01*
X132154486Y-94320500D01*
X132341118Y-94290940D01*
X132357183Y-94285720D01*
X132520832Y-94232547D01*
X132689199Y-94146760D01*
X132842073Y-94035690D01*
X132975690Y-93902073D01*
X133026672Y-93831902D01*
X134869500Y-93831902D01*
X134869500Y-94068097D01*
X134906446Y-94301368D01*
X134979433Y-94525996D01*
X135026166Y-94617713D01*
X135086657Y-94736433D01*
X135225483Y-94927510D01*
X135392490Y-95094517D01*
X135583567Y-95233343D01*
X135682991Y-95284002D01*
X135794003Y-95340566D01*
X135794005Y-95340566D01*
X135794008Y-95340568D01*
X135914412Y-95379689D01*
X136018631Y-95413553D01*
X136251903Y-95450500D01*
X136251908Y-95450500D01*
X136488097Y-95450500D01*
X136721368Y-95413553D01*
X136761442Y-95400532D01*
X136945992Y-95340568D01*
X137156433Y-95233343D01*
X137347510Y-95094517D01*
X137514517Y-94927510D01*
X137653343Y-94736433D01*
X137760568Y-94525992D01*
X137833553Y-94301368D01*
X137844453Y-94232547D01*
X137870500Y-94068097D01*
X137870500Y-93831947D01*
X139370000Y-93831947D01*
X139370000Y-94068052D01*
X139406934Y-94301247D01*
X139479897Y-94525802D01*
X139587087Y-94736174D01*
X139647338Y-94819104D01*
X139647340Y-94819105D01*
X140346212Y-94120233D01*
X140357482Y-94162292D01*
X140429890Y-94287708D01*
X140532292Y-94390110D01*
X140657708Y-94462518D01*
X140699765Y-94473787D01*
X140000893Y-95172658D01*
X140083828Y-95232914D01*
X140294197Y-95340102D01*
X140518752Y-95413065D01*
X140518751Y-95413065D01*
X140751948Y-95450000D01*
X140988052Y-95450000D01*
X141221247Y-95413065D01*
X141445802Y-95340102D01*
X141656163Y-95232918D01*
X141656169Y-95232914D01*
X141739104Y-95172658D01*
X141739105Y-95172658D01*
X141040233Y-94473787D01*
X141082292Y-94462518D01*
X141207708Y-94390110D01*
X141310110Y-94287708D01*
X141382518Y-94162292D01*
X141393787Y-94120233D01*
X142092658Y-94819105D01*
X142092658Y-94819104D01*
X142152914Y-94736169D01*
X142152918Y-94736163D01*
X142260102Y-94525802D01*
X142333065Y-94301247D01*
X142370000Y-94068052D01*
X142370000Y-93831947D01*
X142333065Y-93598752D01*
X142260102Y-93374197D01*
X142152914Y-93163828D01*
X142092658Y-93080894D01*
X142092658Y-93080893D01*
X141393787Y-93779765D01*
X141382518Y-93737708D01*
X141310110Y-93612292D01*
X141207708Y-93509890D01*
X141082292Y-93437482D01*
X141040234Y-93426212D01*
X141739105Y-92727340D01*
X141739104Y-92727338D01*
X141656174Y-92667087D01*
X141445802Y-92559897D01*
X141221247Y-92486934D01*
X141221248Y-92486934D01*
X140988052Y-92450000D01*
X140751948Y-92450000D01*
X140518752Y-92486934D01*
X140294197Y-92559897D01*
X140083830Y-92667084D01*
X140000894Y-92727340D01*
X140699766Y-93426212D01*
X140657708Y-93437482D01*
X140532292Y-93509890D01*
X140429890Y-93612292D01*
X140357482Y-93737708D01*
X140346212Y-93779766D01*
X139647340Y-93080894D01*
X139587084Y-93163830D01*
X139479897Y-93374197D01*
X139406934Y-93598752D01*
X139370000Y-93831947D01*
X137870500Y-93831947D01*
X137870500Y-93831902D01*
X137833553Y-93598631D01*
X137781192Y-93437482D01*
X137760568Y-93374008D01*
X137760566Y-93374005D01*
X137760566Y-93374003D01*
X137697649Y-93250523D01*
X137653343Y-93163567D01*
X137514517Y-92972490D01*
X137347510Y-92805483D01*
X137156433Y-92666657D01*
X137141725Y-92659163D01*
X136945996Y-92559433D01*
X136721368Y-92486446D01*
X136488097Y-92449500D01*
X136488092Y-92449500D01*
X136251908Y-92449500D01*
X136251903Y-92449500D01*
X136018631Y-92486446D01*
X135794003Y-92559433D01*
X135583566Y-92666657D01*
X135550363Y-92690781D01*
X135392490Y-92805483D01*
X135392488Y-92805485D01*
X135392487Y-92805485D01*
X135225485Y-92972487D01*
X135225485Y-92972488D01*
X135225483Y-92972490D01*
X135165862Y-93054550D01*
X135086657Y-93163566D01*
X134979433Y-93374003D01*
X134906446Y-93598631D01*
X134869500Y-93831902D01*
X133026672Y-93831902D01*
X133086760Y-93749199D01*
X133172547Y-93580832D01*
X133230940Y-93401118D01*
X133248167Y-93292351D01*
X133260500Y-93214486D01*
X133260500Y-93025513D01*
X133230940Y-92838881D01*
X133203846Y-92755497D01*
X133172547Y-92659168D01*
X133172545Y-92659165D01*
X133172545Y-92659163D01*
X133086759Y-92490800D01*
X133083950Y-92486934D01*
X132975690Y-92337927D01*
X132842073Y-92204310D01*
X132689199Y-92093240D01*
X132520836Y-92007454D01*
X132341118Y-91949059D01*
X132154486Y-91919500D01*
X132154481Y-91919500D01*
X131965519Y-91919500D01*
X131965514Y-91919500D01*
X131778880Y-91949060D01*
X131778871Y-91949062D01*
X131762814Y-91954279D01*
X131692972Y-91956272D01*
X131633141Y-91920189D01*
X131602315Y-91857487D01*
X131600500Y-91836347D01*
X131600500Y-90980097D01*
X131620185Y-90913058D01*
X131636814Y-90892419D01*
X131699169Y-90830064D01*
X131760490Y-90796581D01*
X131806246Y-90795274D01*
X131829006Y-90798878D01*
X131965514Y-90820500D01*
X131965519Y-90820500D01*
X132154486Y-90820500D01*
X132341118Y-90790940D01*
X132371753Y-90780986D01*
X132520832Y-90732547D01*
X132689199Y-90646760D01*
X132842073Y-90535690D01*
X132975690Y-90402073D01*
X133086760Y-90249199D01*
X133172547Y-90080832D01*
X133230940Y-89901118D01*
X133234526Y-89878477D01*
X133260500Y-89714486D01*
X133260500Y-89525513D01*
X133230940Y-89338881D01*
X133204788Y-89258396D01*
X133172547Y-89159168D01*
X133172545Y-89159165D01*
X133172544Y-89159160D01*
X133139003Y-89093332D01*
X133139002Y-89093331D01*
X133112797Y-89041902D01*
X134869500Y-89041902D01*
X134869500Y-89278097D01*
X134906446Y-89511368D01*
X134979433Y-89735996D01*
X135063568Y-89901118D01*
X135086657Y-89946433D01*
X135225483Y-90137510D01*
X135392490Y-90304517D01*
X135583567Y-90443343D01*
X135682991Y-90494002D01*
X135794003Y-90550566D01*
X135794005Y-90550566D01*
X135794008Y-90550568D01*
X135914412Y-90589689D01*
X136018631Y-90623553D01*
X136251903Y-90660500D01*
X136251908Y-90660500D01*
X136488097Y-90660500D01*
X136721368Y-90623553D01*
X136726806Y-90621786D01*
X136945992Y-90550568D01*
X137156433Y-90443343D01*
X137347510Y-90304517D01*
X137514517Y-90137510D01*
X137653343Y-89946433D01*
X137760568Y-89735992D01*
X137833553Y-89511368D01*
X137843044Y-89451446D01*
X137870500Y-89278097D01*
X137870500Y-89041947D01*
X139370000Y-89041947D01*
X139370000Y-89278052D01*
X139406934Y-89511247D01*
X139479897Y-89735802D01*
X139587087Y-89946174D01*
X139647338Y-90029104D01*
X139647340Y-90029105D01*
X140346212Y-89330233D01*
X140357482Y-89372292D01*
X140429890Y-89497708D01*
X140532292Y-89600110D01*
X140657708Y-89672518D01*
X140699765Y-89683787D01*
X140000893Y-90382658D01*
X140083828Y-90442914D01*
X140294197Y-90550102D01*
X140518752Y-90623065D01*
X140518751Y-90623065D01*
X140751948Y-90660000D01*
X140988052Y-90660000D01*
X141221247Y-90623065D01*
X141445802Y-90550102D01*
X141656163Y-90442918D01*
X141656169Y-90442914D01*
X141739104Y-90382658D01*
X141739105Y-90382658D01*
X141040233Y-89683787D01*
X141082292Y-89672518D01*
X141207708Y-89600110D01*
X141310110Y-89497708D01*
X141382518Y-89372292D01*
X141393787Y-89330233D01*
X142092658Y-90029105D01*
X142092658Y-90029104D01*
X142152914Y-89946169D01*
X142152918Y-89946163D01*
X142260102Y-89735802D01*
X142333065Y-89511247D01*
X142370000Y-89278052D01*
X142370000Y-89041947D01*
X142333065Y-88808752D01*
X142260102Y-88584197D01*
X142152914Y-88373828D01*
X142092658Y-88290894D01*
X142092658Y-88290893D01*
X141393787Y-88989765D01*
X141382518Y-88947708D01*
X141310110Y-88822292D01*
X141207708Y-88719890D01*
X141082292Y-88647482D01*
X141040234Y-88636212D01*
X141739105Y-87937340D01*
X141739104Y-87937338D01*
X141656174Y-87877087D01*
X141445802Y-87769897D01*
X141221247Y-87696934D01*
X141221248Y-87696934D01*
X140988052Y-87660000D01*
X140751948Y-87660000D01*
X140518752Y-87696934D01*
X140294197Y-87769897D01*
X140083830Y-87877084D01*
X140000894Y-87937340D01*
X140699766Y-88636212D01*
X140657708Y-88647482D01*
X140532292Y-88719890D01*
X140429890Y-88822292D01*
X140357482Y-88947708D01*
X140346212Y-88989766D01*
X139647340Y-88290894D01*
X139587084Y-88373830D01*
X139479897Y-88584197D01*
X139406934Y-88808752D01*
X139370000Y-89041947D01*
X137870500Y-89041947D01*
X137870500Y-89041902D01*
X137833553Y-88808631D01*
X137768761Y-88609223D01*
X137760568Y-88584008D01*
X137760566Y-88584005D01*
X137760566Y-88584003D01*
X137699654Y-88464457D01*
X137653343Y-88373567D01*
X137514517Y-88182490D01*
X137347510Y-88015483D01*
X137156433Y-87876657D01*
X136945996Y-87769433D01*
X136721368Y-87696446D01*
X136488097Y-87659500D01*
X136488092Y-87659500D01*
X136251908Y-87659500D01*
X136251903Y-87659500D01*
X136018631Y-87696446D01*
X135794003Y-87769433D01*
X135583566Y-87876657D01*
X135512368Y-87928386D01*
X135392490Y-88015483D01*
X135392488Y-88015485D01*
X135392487Y-88015485D01*
X135225485Y-88182487D01*
X135225485Y-88182488D01*
X135225483Y-88182490D01*
X135203788Y-88212351D01*
X135086657Y-88373566D01*
X134979433Y-88584003D01*
X134906446Y-88808631D01*
X134869500Y-89041902D01*
X133112797Y-89041902D01*
X133086759Y-88990800D01*
X133062361Y-88957219D01*
X132975690Y-88837927D01*
X132842073Y-88704310D01*
X132689199Y-88593240D01*
X132671080Y-88584008D01*
X132520836Y-88507454D01*
X132341118Y-88449059D01*
X132154486Y-88419500D01*
X132154481Y-88419500D01*
X131965519Y-88419500D01*
X131965514Y-88419500D01*
X131778881Y-88449059D01*
X131599163Y-88507454D01*
X131430800Y-88593240D01*
X131356144Y-88647482D01*
X131277927Y-88704310D01*
X131277925Y-88704312D01*
X131277924Y-88704312D01*
X131144312Y-88837924D01*
X131144312Y-88837925D01*
X131144310Y-88837927D01*
X131096610Y-88903579D01*
X131033240Y-88990800D01*
X130947454Y-89159163D01*
X130889059Y-89338881D01*
X130859500Y-89525513D01*
X130859500Y-89714486D01*
X130884725Y-89873751D01*
X130875770Y-89943045D01*
X130849933Y-89980830D01*
X130631286Y-90199478D01*
X130519481Y-90311282D01*
X130519479Y-90311284D01*
X130499746Y-90345465D01*
X130486322Y-90368716D01*
X130467063Y-90402074D01*
X130443484Y-90442914D01*
X130440423Y-90448215D01*
X130399499Y-90600943D01*
X130399499Y-90600945D01*
X130399499Y-90769046D01*
X130399500Y-90769059D01*
X130399500Y-99593330D01*
X130399499Y-99593348D01*
X130399499Y-99759054D01*
X130399498Y-99759054D01*
X130440423Y-99911787D01*
X130440425Y-99911790D01*
X130455259Y-99937482D01*
X130466721Y-99957334D01*
X130469866Y-99962781D01*
X130519479Y-100048714D01*
X130519481Y-100048717D01*
X130638349Y-100167585D01*
X130638355Y-100167590D01*
X130849933Y-100379168D01*
X130883418Y-100440491D01*
X130884725Y-100486247D01*
X130859500Y-100645513D01*
X130859500Y-100834486D01*
X130884725Y-100993750D01*
X130875770Y-101063043D01*
X130849942Y-101100821D01*
X130845218Y-101105545D01*
X130839485Y-101111278D01*
X130839481Y-101111280D01*
X130839478Y-101111286D01*
X130581566Y-101369199D01*
X130337584Y-101613181D01*
X130276261Y-101646666D01*
X130249903Y-101649500D01*
X122744188Y-101649500D01*
X122677149Y-101629815D01*
X122631394Y-101577011D01*
X122621450Y-101507853D01*
X122633703Y-101469205D01*
X122715218Y-101309223D01*
X122715218Y-101309222D01*
X122715220Y-101309219D01*
X122778477Y-101114534D01*
X122810500Y-100912352D01*
X122810500Y-100707648D01*
X122788390Y-100568052D01*
X122778477Y-100505465D01*
X122723431Y-100336052D01*
X122715220Y-100310781D01*
X122715218Y-100310778D01*
X122715218Y-100310776D01*
X122677987Y-100237708D01*
X122622287Y-100128390D01*
X122609507Y-100110800D01*
X122501971Y-99962786D01*
X122357213Y-99818028D01*
X122191614Y-99697715D01*
X122185006Y-99694348D01*
X122098917Y-99650483D01*
X122048123Y-99602511D01*
X122031328Y-99534690D01*
X122053865Y-99468555D01*
X122098917Y-99429516D01*
X122191610Y-99382287D01*
X122297320Y-99305485D01*
X122357213Y-99261971D01*
X122357215Y-99261968D01*
X122357219Y-99261966D01*
X122391537Y-99227648D01*
X126229500Y-99227648D01*
X126229500Y-99432351D01*
X126261522Y-99634534D01*
X126324781Y-99829223D01*
X126366852Y-99911790D01*
X126398750Y-99974394D01*
X126417715Y-100011613D01*
X126538028Y-100177213D01*
X126682786Y-100321971D01*
X126761513Y-100379168D01*
X126848390Y-100442287D01*
X126964607Y-100501503D01*
X127030776Y-100535218D01*
X127030778Y-100535218D01*
X127030781Y-100535220D01*
X127131951Y-100568092D01*
X127225465Y-100598477D01*
X127326557Y-100614488D01*
X127427648Y-100630500D01*
X127427649Y-100630500D01*
X127632351Y-100630500D01*
X127632352Y-100630500D01*
X127834534Y-100598477D01*
X128029219Y-100535220D01*
X128211610Y-100442287D01*
X128317499Y-100365355D01*
X128377213Y-100321971D01*
X128377215Y-100321968D01*
X128377219Y-100321966D01*
X128521966Y-100177219D01*
X128521968Y-100177215D01*
X128521971Y-100177213D01*
X128579063Y-100098631D01*
X128642287Y-100011610D01*
X128735220Y-99829219D01*
X128798477Y-99634534D01*
X128830500Y-99432352D01*
X128830500Y-99227648D01*
X128813024Y-99117312D01*
X128798477Y-99025465D01*
X128769127Y-98935137D01*
X128735220Y-98830781D01*
X128735218Y-98830778D01*
X128735218Y-98830776D01*
X128691584Y-98745140D01*
X128642287Y-98648390D01*
X128588628Y-98574534D01*
X128521971Y-98482786D01*
X128377213Y-98338028D01*
X128211613Y-98217715D01*
X128211612Y-98217714D01*
X128211610Y-98217713D01*
X128154653Y-98188691D01*
X128029223Y-98124781D01*
X127834534Y-98061522D01*
X127659995Y-98033878D01*
X127632352Y-98029500D01*
X127427648Y-98029500D01*
X127403329Y-98033351D01*
X127225465Y-98061522D01*
X127030776Y-98124781D01*
X126848386Y-98217715D01*
X126682786Y-98338028D01*
X126538028Y-98482786D01*
X126417715Y-98648386D01*
X126324781Y-98830776D01*
X126261522Y-99025465D01*
X126229500Y-99227648D01*
X122391537Y-99227648D01*
X122501966Y-99117219D01*
X122501968Y-99117215D01*
X122501971Y-99117213D01*
X122568628Y-99025466D01*
X122622287Y-98951610D01*
X122715220Y-98769219D01*
X122778477Y-98574534D01*
X122810500Y-98372352D01*
X122810500Y-98167648D01*
X122778477Y-97965466D01*
X122715220Y-97770781D01*
X122715218Y-97770778D01*
X122715218Y-97770776D01*
X122681503Y-97704607D01*
X122622287Y-97588390D01*
X122614556Y-97577749D01*
X122501971Y-97422786D01*
X122357213Y-97278028D01*
X122191614Y-97157715D01*
X122185006Y-97154348D01*
X122098917Y-97110483D01*
X122048123Y-97062511D01*
X122031328Y-96994690D01*
X122053865Y-96928555D01*
X122098917Y-96889516D01*
X122191610Y-96842287D01*
X122212770Y-96826913D01*
X122357213Y-96721971D01*
X122357215Y-96721968D01*
X122357219Y-96721966D01*
X122501966Y-96577219D01*
X122501968Y-96577215D01*
X122501971Y-96577213D01*
X122554732Y-96504590D01*
X122622287Y-96411610D01*
X122715220Y-96229219D01*
X122778477Y-96034534D01*
X122810500Y-95832352D01*
X122810500Y-95627648D01*
X122778477Y-95425466D01*
X122715220Y-95230781D01*
X122622287Y-95048390D01*
X122595376Y-95011350D01*
X122501971Y-94882786D01*
X122357213Y-94738028D01*
X122191614Y-94617715D01*
X122108970Y-94575606D01*
X122098917Y-94570483D01*
X122048123Y-94522511D01*
X122031328Y-94454690D01*
X122053865Y-94388555D01*
X122098917Y-94349516D01*
X122191610Y-94302287D01*
X122225948Y-94277339D01*
X122294296Y-94227682D01*
X126230000Y-94227682D01*
X126230000Y-94432317D01*
X126262009Y-94634417D01*
X126325244Y-94829031D01*
X126418141Y-95011350D01*
X126418147Y-95011359D01*
X126450523Y-95055921D01*
X126450524Y-95055922D01*
X127130000Y-94376446D01*
X127130000Y-94382661D01*
X127157259Y-94484394D01*
X127209920Y-94575606D01*
X127284394Y-94650080D01*
X127375606Y-94702741D01*
X127477339Y-94730000D01*
X127483553Y-94730000D01*
X126804076Y-95409474D01*
X126848650Y-95441859D01*
X127030968Y-95534755D01*
X127225582Y-95597990D01*
X127427683Y-95630000D01*
X127632317Y-95630000D01*
X127834417Y-95597990D01*
X128029031Y-95534755D01*
X128211349Y-95441859D01*
X128255921Y-95409474D01*
X127576447Y-94730000D01*
X127582661Y-94730000D01*
X127684394Y-94702741D01*
X127775606Y-94650080D01*
X127850080Y-94575606D01*
X127902741Y-94484394D01*
X127930000Y-94382661D01*
X127930000Y-94376447D01*
X128609474Y-95055921D01*
X128641859Y-95011349D01*
X128734755Y-94829031D01*
X128797990Y-94634417D01*
X128830000Y-94432317D01*
X128830000Y-94227682D01*
X128797990Y-94025582D01*
X128734755Y-93830968D01*
X128641859Y-93648650D01*
X128609474Y-93604077D01*
X128609474Y-93604076D01*
X127930000Y-94283551D01*
X127930000Y-94277339D01*
X127902741Y-94175606D01*
X127850080Y-94084394D01*
X127775606Y-94009920D01*
X127684394Y-93957259D01*
X127582661Y-93930000D01*
X127576446Y-93930000D01*
X128255922Y-93250524D01*
X128255921Y-93250523D01*
X128211359Y-93218147D01*
X128211350Y-93218141D01*
X128029031Y-93125244D01*
X127834417Y-93062009D01*
X127632317Y-93030000D01*
X127427683Y-93030000D01*
X127225582Y-93062009D01*
X127030968Y-93125244D01*
X126848644Y-93218143D01*
X126804077Y-93250523D01*
X126804077Y-93250524D01*
X127483554Y-93930000D01*
X127477339Y-93930000D01*
X127375606Y-93957259D01*
X127284394Y-94009920D01*
X127209920Y-94084394D01*
X127157259Y-94175606D01*
X127130000Y-94277339D01*
X127130000Y-94283553D01*
X126450524Y-93604077D01*
X126450523Y-93604077D01*
X126418143Y-93648644D01*
X126325244Y-93830968D01*
X126262009Y-94025582D01*
X126230000Y-94227682D01*
X122294296Y-94227682D01*
X122357213Y-94181971D01*
X122357215Y-94181968D01*
X122357219Y-94181966D01*
X122501966Y-94037219D01*
X122501968Y-94037215D01*
X122501971Y-94037213D01*
X122565334Y-93950000D01*
X122622287Y-93871610D01*
X122715220Y-93689219D01*
X122778477Y-93494534D01*
X122810500Y-93292352D01*
X122810500Y-93087648D01*
X122800163Y-93022386D01*
X122778477Y-92885465D01*
X122744135Y-92779772D01*
X122715220Y-92690781D01*
X122715218Y-92690778D01*
X122715218Y-92690776D01*
X122648531Y-92559897D01*
X122622287Y-92508390D01*
X122609507Y-92490800D01*
X122501971Y-92342786D01*
X122357213Y-92198028D01*
X122191614Y-92077715D01*
X122185006Y-92074348D01*
X122098917Y-92030483D01*
X122048123Y-91982511D01*
X122031328Y-91914690D01*
X122053865Y-91848555D01*
X122098917Y-91809516D01*
X122191610Y-91762287D01*
X122212770Y-91746913D01*
X122357213Y-91641971D01*
X122357215Y-91641968D01*
X122357219Y-91641966D01*
X122501966Y-91497219D01*
X122501968Y-91497215D01*
X122501971Y-91497213D01*
X122554732Y-91424590D01*
X122622287Y-91331610D01*
X122715220Y-91149219D01*
X122778477Y-90954534D01*
X122810500Y-90752352D01*
X122810500Y-90547648D01*
X122794751Y-90448213D01*
X122778477Y-90345465D01*
X122731043Y-90199480D01*
X122715220Y-90150781D01*
X122715218Y-90150778D01*
X122715218Y-90150776D01*
X122678565Y-90078842D01*
X122622287Y-89968390D01*
X122609844Y-89951264D01*
X122501971Y-89802786D01*
X122357213Y-89658028D01*
X122191614Y-89537715D01*
X122139905Y-89511368D01*
X122098917Y-89490483D01*
X122048123Y-89442511D01*
X122031328Y-89374690D01*
X122053865Y-89308555D01*
X122098917Y-89269516D01*
X122191610Y-89222287D01*
X122222974Y-89199500D01*
X122357213Y-89101971D01*
X122357215Y-89101968D01*
X122357219Y-89101966D01*
X122501966Y-88957219D01*
X122501968Y-88957215D01*
X122501971Y-88957213D01*
X122599995Y-88822292D01*
X122622287Y-88791610D01*
X122715220Y-88609219D01*
X122748222Y-88507648D01*
X126019500Y-88507648D01*
X126019500Y-88712351D01*
X126051522Y-88914534D01*
X126114781Y-89109223D01*
X126172391Y-89222287D01*
X126207201Y-89290606D01*
X126207715Y-89291613D01*
X126328028Y-89457213D01*
X126472786Y-89601971D01*
X126569888Y-89672518D01*
X126638390Y-89722287D01*
X126754607Y-89781503D01*
X126820776Y-89815218D01*
X126820778Y-89815218D01*
X126820781Y-89815220D01*
X126925137Y-89849127D01*
X127015465Y-89878477D01*
X127116557Y-89894488D01*
X127217648Y-89910500D01*
X127217649Y-89910500D01*
X127422351Y-89910500D01*
X127422352Y-89910500D01*
X127624534Y-89878477D01*
X127819219Y-89815220D01*
X128001610Y-89722287D01*
X128141259Y-89620827D01*
X128167213Y-89601971D01*
X128167215Y-89601968D01*
X128167219Y-89601966D01*
X128311966Y-89457219D01*
X128311968Y-89457215D01*
X128311971Y-89457213D01*
X128371926Y-89374690D01*
X128432287Y-89291610D01*
X128525220Y-89109219D01*
X128588477Y-88914534D01*
X128620500Y-88712352D01*
X128620500Y-88507648D01*
X128588477Y-88305466D01*
X128583742Y-88290894D01*
X128525218Y-88110776D01*
X128472671Y-88007648D01*
X128432287Y-87928390D01*
X128424556Y-87917749D01*
X128311971Y-87762786D01*
X128167213Y-87618028D01*
X128001613Y-87497715D01*
X128001612Y-87497714D01*
X128001610Y-87497713D01*
X127944653Y-87468691D01*
X127819223Y-87404781D01*
X127624534Y-87341522D01*
X127449995Y-87313878D01*
X127422352Y-87309500D01*
X127217648Y-87309500D01*
X127193329Y-87313351D01*
X127015465Y-87341522D01*
X126820776Y-87404781D01*
X126638386Y-87497715D01*
X126472786Y-87618028D01*
X126328028Y-87762786D01*
X126207715Y-87928386D01*
X126114781Y-88110776D01*
X126051522Y-88305465D01*
X126019500Y-88507648D01*
X122748222Y-88507648D01*
X122778477Y-88414534D01*
X122810500Y-88212352D01*
X122810500Y-88007648D01*
X122778477Y-87805466D01*
X122764609Y-87762786D01*
X122731050Y-87659500D01*
X122715220Y-87610781D01*
X122715218Y-87610778D01*
X122715218Y-87610776D01*
X122657610Y-87497715D01*
X122622287Y-87428390D01*
X122605134Y-87404781D01*
X122501971Y-87262786D01*
X122357213Y-87118028D01*
X122191614Y-86997715D01*
X122185006Y-86994348D01*
X122098917Y-86950483D01*
X122048123Y-86902511D01*
X122031328Y-86834690D01*
X122053865Y-86768555D01*
X122098917Y-86729516D01*
X122191610Y-86682287D01*
X122212770Y-86666913D01*
X122357213Y-86561971D01*
X122357215Y-86561968D01*
X122357219Y-86561966D01*
X122501966Y-86417219D01*
X122501968Y-86417215D01*
X122501971Y-86417213D01*
X122554732Y-86344590D01*
X122622287Y-86251610D01*
X122715220Y-86069219D01*
X122778477Y-85874534D01*
X122810500Y-85672352D01*
X122810500Y-85467648D01*
X122778477Y-85265466D01*
X122715220Y-85070781D01*
X122715218Y-85070778D01*
X122715218Y-85070776D01*
X122681503Y-85004607D01*
X122622287Y-84888390D01*
X122606913Y-84867229D01*
X122501971Y-84722787D01*
X122501967Y-84722782D01*
X122357213Y-84578028D01*
X122191614Y-84457715D01*
X122185006Y-84454348D01*
X122098917Y-84410483D01*
X122048123Y-84362511D01*
X122031328Y-84294690D01*
X122053865Y-84228555D01*
X122098917Y-84189516D01*
X122191610Y-84142287D01*
X122237383Y-84109031D01*
X122357213Y-84021971D01*
X122357215Y-84021968D01*
X122357219Y-84021966D01*
X122501966Y-83877219D01*
X122501968Y-83877215D01*
X122501971Y-83877213D01*
X122621773Y-83712317D01*
X122622287Y-83711610D01*
X122715220Y-83529219D01*
X122722218Y-83507682D01*
X126020000Y-83507682D01*
X126020000Y-83712317D01*
X126052009Y-83914417D01*
X126115244Y-84109031D01*
X126208141Y-84291350D01*
X126208147Y-84291359D01*
X126240523Y-84335921D01*
X126240524Y-84335922D01*
X126920000Y-83656446D01*
X126920000Y-83662661D01*
X126947259Y-83764394D01*
X126999920Y-83855606D01*
X127074394Y-83930080D01*
X127165606Y-83982741D01*
X127267339Y-84010000D01*
X127273553Y-84010000D01*
X126594076Y-84689474D01*
X126638650Y-84721859D01*
X126820968Y-84814755D01*
X127015582Y-84877990D01*
X127217683Y-84910000D01*
X127422317Y-84910000D01*
X127624417Y-84877990D01*
X127819031Y-84814755D01*
X128001349Y-84721859D01*
X128045921Y-84689474D01*
X127366447Y-84010000D01*
X127372661Y-84010000D01*
X127474394Y-83982741D01*
X127565606Y-83930080D01*
X127640080Y-83855606D01*
X127692741Y-83764394D01*
X127720000Y-83662661D01*
X127720000Y-83656448D01*
X128399474Y-84335922D01*
X128399474Y-84335921D01*
X128431859Y-84291349D01*
X128524755Y-84109031D01*
X128587990Y-83914417D01*
X128620000Y-83712317D01*
X128620000Y-83507682D01*
X128587990Y-83305582D01*
X128524755Y-83110968D01*
X128431859Y-82928650D01*
X128399474Y-82884077D01*
X128399474Y-82884076D01*
X127720000Y-83563551D01*
X127720000Y-83557339D01*
X127692741Y-83455606D01*
X127640080Y-83364394D01*
X127565606Y-83289920D01*
X127474394Y-83237259D01*
X127372661Y-83210000D01*
X127366446Y-83210000D01*
X128045922Y-82530524D01*
X128045921Y-82530523D01*
X128001359Y-82498147D01*
X128001350Y-82498141D01*
X127819031Y-82405244D01*
X127624417Y-82342009D01*
X127422317Y-82310000D01*
X127217683Y-82310000D01*
X127015582Y-82342009D01*
X126820968Y-82405244D01*
X126638644Y-82498143D01*
X126594077Y-82530523D01*
X126594077Y-82530524D01*
X127273554Y-83210000D01*
X127267339Y-83210000D01*
X127165606Y-83237259D01*
X127074394Y-83289920D01*
X126999920Y-83364394D01*
X126947259Y-83455606D01*
X126920000Y-83557339D01*
X126920000Y-83563553D01*
X126240524Y-82884077D01*
X126240523Y-82884077D01*
X126208143Y-82928644D01*
X126115244Y-83110968D01*
X126052009Y-83305582D01*
X126020000Y-83507682D01*
X122722218Y-83507682D01*
X122778477Y-83334534D01*
X122810500Y-83132352D01*
X122810500Y-82927648D01*
X122778477Y-82725466D01*
X122715220Y-82530781D01*
X122622287Y-82348390D01*
X122603326Y-82322292D01*
X122501971Y-82182786D01*
X122357217Y-82038032D01*
X122357212Y-82038028D01*
X122306222Y-82000981D01*
X122306199Y-82000966D01*
X122191609Y-81917712D01*
X122167667Y-81905513D01*
X130859500Y-81905513D01*
X130859500Y-82094486D01*
X130889059Y-82281118D01*
X130947454Y-82460836D01*
X131026566Y-82616100D01*
X131033240Y-82629199D01*
X131144310Y-82782073D01*
X131277927Y-82915690D01*
X131430801Y-83026760D01*
X131510347Y-83067290D01*
X131599163Y-83112545D01*
X131599165Y-83112545D01*
X131599168Y-83112547D01*
X131695497Y-83143846D01*
X131778881Y-83170940D01*
X131965514Y-83200500D01*
X131965519Y-83200500D01*
X132154486Y-83200500D01*
X132341118Y-83170940D01*
X132520832Y-83112547D01*
X132689199Y-83026760D01*
X132842073Y-82915690D01*
X132975690Y-82782073D01*
X133086760Y-82629199D01*
X133131240Y-82541902D01*
X134869500Y-82541902D01*
X134869500Y-82778097D01*
X134906446Y-83011368D01*
X134979433Y-83235996D01*
X135044856Y-83364394D01*
X135086657Y-83446433D01*
X135225483Y-83637510D01*
X135392490Y-83804517D01*
X135583567Y-83943343D01*
X135660890Y-83982741D01*
X135794003Y-84050566D01*
X135794005Y-84050566D01*
X135794008Y-84050568D01*
X135914412Y-84089689D01*
X136018631Y-84123553D01*
X136251903Y-84160500D01*
X136251908Y-84160500D01*
X136488097Y-84160500D01*
X136721368Y-84123553D01*
X136766062Y-84109031D01*
X136945992Y-84050568D01*
X137156433Y-83943343D01*
X137347510Y-83804517D01*
X137514517Y-83637510D01*
X137653343Y-83446433D01*
X137760568Y-83235992D01*
X137833553Y-83011368D01*
X137848707Y-82915690D01*
X137870500Y-82778097D01*
X137870500Y-82541947D01*
X139370000Y-82541947D01*
X139370000Y-82778052D01*
X139406934Y-83011247D01*
X139479897Y-83235802D01*
X139587087Y-83446174D01*
X139647338Y-83529104D01*
X139647340Y-83529105D01*
X140346212Y-82830233D01*
X140357482Y-82872292D01*
X140429890Y-82997708D01*
X140532292Y-83100110D01*
X140657708Y-83172518D01*
X140699765Y-83183787D01*
X140000893Y-83882658D01*
X140083828Y-83942914D01*
X140294197Y-84050102D01*
X140518752Y-84123065D01*
X140518751Y-84123065D01*
X140751948Y-84160000D01*
X140988052Y-84160000D01*
X141221247Y-84123065D01*
X141445802Y-84050102D01*
X141656163Y-83942918D01*
X141656169Y-83942914D01*
X141739104Y-83882658D01*
X141739105Y-83882658D01*
X141040233Y-83183787D01*
X141082292Y-83172518D01*
X141207708Y-83100110D01*
X141310110Y-82997708D01*
X141382518Y-82872292D01*
X141393787Y-82830233D01*
X142092658Y-83529105D01*
X142092658Y-83529104D01*
X142152914Y-83446169D01*
X142152918Y-83446163D01*
X142260102Y-83235802D01*
X142333065Y-83011247D01*
X142370000Y-82778052D01*
X142370000Y-82541947D01*
X142333065Y-82308752D01*
X142260102Y-82084197D01*
X142152914Y-81873828D01*
X142092658Y-81790894D01*
X142092658Y-81790893D01*
X141393787Y-82489765D01*
X141382518Y-82447708D01*
X141310110Y-82322292D01*
X141207708Y-82219890D01*
X141082292Y-82147482D01*
X141040234Y-82136212D01*
X141739105Y-81437340D01*
X141739104Y-81437338D01*
X141656174Y-81377087D01*
X141445802Y-81269897D01*
X141221247Y-81196934D01*
X141221248Y-81196934D01*
X140988052Y-81160000D01*
X140751948Y-81160000D01*
X140518752Y-81196934D01*
X140294197Y-81269897D01*
X140083830Y-81377084D01*
X140000894Y-81437340D01*
X140699766Y-82136212D01*
X140657708Y-82147482D01*
X140532292Y-82219890D01*
X140429890Y-82322292D01*
X140357482Y-82447708D01*
X140346212Y-82489766D01*
X139647340Y-81790894D01*
X139587084Y-81873830D01*
X139479897Y-82084197D01*
X139406934Y-82308752D01*
X139370000Y-82541947D01*
X137870500Y-82541947D01*
X137870500Y-82541902D01*
X137833553Y-82308631D01*
X137769013Y-82110000D01*
X137760568Y-82084008D01*
X137760566Y-82084005D01*
X137760566Y-82084003D01*
X137704002Y-81972991D01*
X137653343Y-81873567D01*
X137514517Y-81682490D01*
X137347510Y-81515483D01*
X137156433Y-81376657D01*
X137079032Y-81337219D01*
X136945996Y-81269433D01*
X136721368Y-81196446D01*
X136488097Y-81159500D01*
X136488092Y-81159500D01*
X136251908Y-81159500D01*
X136251903Y-81159500D01*
X136018631Y-81196446D01*
X135794003Y-81269433D01*
X135583566Y-81376657D01*
X135500047Y-81437338D01*
X135392490Y-81515483D01*
X135392488Y-81515485D01*
X135392487Y-81515485D01*
X135225485Y-81682487D01*
X135225485Y-81682488D01*
X135225483Y-81682490D01*
X135170275Y-81758477D01*
X135086657Y-81873566D01*
X134979433Y-82084003D01*
X134906446Y-82308631D01*
X134869500Y-82541902D01*
X133131240Y-82541902D01*
X133172547Y-82460832D01*
X133230940Y-82281118D01*
X133260500Y-82094486D01*
X133260500Y-81905513D01*
X133230940Y-81718881D01*
X133172545Y-81539163D01*
X133120662Y-81437338D01*
X133086760Y-81370801D01*
X132975690Y-81217927D01*
X132842073Y-81084310D01*
X132689199Y-80973240D01*
X132520836Y-80887454D01*
X132341118Y-80829059D01*
X132154486Y-80799500D01*
X132154481Y-80799500D01*
X131965519Y-80799500D01*
X131965514Y-80799500D01*
X131778881Y-80829059D01*
X131599163Y-80887454D01*
X131430800Y-80973240D01*
X131408802Y-80989223D01*
X131277927Y-81084310D01*
X131277925Y-81084312D01*
X131277924Y-81084312D01*
X131144312Y-81217924D01*
X131144312Y-81217925D01*
X131144310Y-81217927D01*
X131096610Y-81283579D01*
X131033240Y-81370800D01*
X130947454Y-81539163D01*
X130889059Y-81718881D01*
X130859500Y-81905513D01*
X122167667Y-81905513D01*
X122145546Y-81894242D01*
X122098917Y-81870483D01*
X122048123Y-81822511D01*
X122031328Y-81754690D01*
X122053865Y-81688555D01*
X122098917Y-81649516D01*
X122191610Y-81602287D01*
X122278487Y-81539168D01*
X122357213Y-81481971D01*
X122357215Y-81481968D01*
X122357219Y-81481966D01*
X122501966Y-81337219D01*
X122501968Y-81337215D01*
X122501971Y-81337213D01*
X122603888Y-81196934D01*
X122622287Y-81171610D01*
X122715220Y-80989219D01*
X122778477Y-80794534D01*
X122810500Y-80592352D01*
X122810500Y-80387648D01*
X122778477Y-80185466D01*
X122715220Y-79990781D01*
X122715218Y-79990778D01*
X122715218Y-79990776D01*
X122674484Y-79910832D01*
X122622287Y-79808390D01*
X122614556Y-79797749D01*
X122501971Y-79642786D01*
X122357217Y-79498032D01*
X122357212Y-79498028D01*
X122296046Y-79453588D01*
X122296030Y-79453578D01*
X122191610Y-79377713D01*
X122148040Y-79355513D01*
X126119500Y-79355513D01*
X126119500Y-79544486D01*
X126149059Y-79731118D01*
X126207454Y-79910836D01*
X126293240Y-80079199D01*
X126404310Y-80232073D01*
X126537927Y-80365690D01*
X126690801Y-80476760D01*
X126770347Y-80517290D01*
X126859163Y-80562545D01*
X126859165Y-80562545D01*
X126859168Y-80562547D01*
X126950895Y-80592351D01*
X127038881Y-80620940D01*
X127225514Y-80650500D01*
X127225519Y-80650500D01*
X127414486Y-80650500D01*
X127601118Y-80620940D01*
X127780832Y-80562547D01*
X127949199Y-80476760D01*
X128102073Y-80365690D01*
X128235690Y-80232073D01*
X128346760Y-80079199D01*
X128432547Y-79910832D01*
X128490940Y-79731118D01*
X128520500Y-79544486D01*
X128520500Y-79355513D01*
X128490940Y-79168881D01*
X128432545Y-78989163D01*
X128346759Y-78820800D01*
X128235690Y-78667927D01*
X128102073Y-78534310D01*
X127949199Y-78423240D01*
X127780836Y-78337454D01*
X127601118Y-78279059D01*
X127414486Y-78249500D01*
X127414481Y-78249500D01*
X127225519Y-78249500D01*
X127225514Y-78249500D01*
X127038881Y-78279059D01*
X126859163Y-78337454D01*
X126690800Y-78423240D01*
X126603579Y-78486610D01*
X126537927Y-78534310D01*
X126537925Y-78534312D01*
X126537924Y-78534312D01*
X126404312Y-78667924D01*
X126404312Y-78667925D01*
X126404310Y-78667927D01*
X126356610Y-78733579D01*
X126293240Y-78820800D01*
X126207454Y-78989163D01*
X126149059Y-79168881D01*
X126119500Y-79355513D01*
X122148040Y-79355513D01*
X122094220Y-79328090D01*
X122089736Y-79325302D01*
X122069843Y-79303025D01*
X122048123Y-79282511D01*
X122046817Y-79277237D01*
X122043199Y-79273186D01*
X122038507Y-79243683D01*
X122031328Y-79214690D01*
X122033080Y-79209548D01*
X122032227Y-79204183D01*
X122044229Y-79176829D01*
X122053865Y-79148555D01*
X122058337Y-79144679D01*
X122060302Y-79140202D01*
X122074000Y-79131107D01*
X122098917Y-79109516D01*
X122191610Y-79062287D01*
X122212770Y-79046913D01*
X122357213Y-78941971D01*
X122357215Y-78941968D01*
X122357219Y-78941966D01*
X122501966Y-78797219D01*
X122501968Y-78797215D01*
X122501971Y-78797213D01*
X122595901Y-78667927D01*
X122622287Y-78631610D01*
X122715220Y-78449219D01*
X122778477Y-78254534D01*
X122810500Y-78052352D01*
X122810500Y-77847648D01*
X122778477Y-77645466D01*
X122715220Y-77450781D01*
X122715218Y-77450778D01*
X122715218Y-77450776D01*
X122681503Y-77384607D01*
X122622287Y-77268390D01*
X122614556Y-77257749D01*
X122501971Y-77102786D01*
X122357213Y-76958028D01*
X122191614Y-76837715D01*
X122185006Y-76834348D01*
X122098917Y-76790483D01*
X122048123Y-76742511D01*
X122031328Y-76674690D01*
X122053865Y-76608555D01*
X122098917Y-76569516D01*
X122191610Y-76522287D01*
X122212770Y-76506913D01*
X122357213Y-76401971D01*
X122357215Y-76401968D01*
X122357219Y-76401966D01*
X122501966Y-76257219D01*
X122501968Y-76257215D01*
X122501971Y-76257213D01*
X122554732Y-76184590D01*
X122622287Y-76091610D01*
X122715220Y-75909219D01*
X122778477Y-75714534D01*
X122810500Y-75512352D01*
X122810500Y-75307648D01*
X122798468Y-75231680D01*
X122778477Y-75105465D01*
X122715218Y-74910776D01*
X122652459Y-74787606D01*
X122622287Y-74728390D01*
X122579380Y-74669333D01*
X122501971Y-74562786D01*
X122357213Y-74418028D01*
X122191613Y-74297715D01*
X122191612Y-74297714D01*
X122191610Y-74297713D01*
X122127123Y-74264855D01*
X122009223Y-74204781D01*
X121814534Y-74141522D01*
X121639995Y-74113878D01*
X121612352Y-74109500D01*
X121407648Y-74109500D01*
X121383329Y-74113351D01*
X121205465Y-74141522D01*
X121010776Y-74204781D01*
X120828386Y-74297715D01*
X120662786Y-74418028D01*
X120518028Y-74562786D01*
X120397715Y-74728386D01*
X120304781Y-74910776D01*
X120241522Y-75105465D01*
X120209500Y-75307648D01*
X120209500Y-75512351D01*
X120241522Y-75714534D01*
X120304781Y-75909223D01*
X120397715Y-76091613D01*
X120518028Y-76257213D01*
X120662786Y-76401971D01*
X120817749Y-76514556D01*
X120828390Y-76522287D01*
X120919840Y-76568883D01*
X120921080Y-76569515D01*
X120971876Y-76617490D01*
X120988671Y-76685311D01*
X120966134Y-76751446D01*
X120921080Y-76790485D01*
X120828386Y-76837715D01*
X120662786Y-76958028D01*
X120518028Y-77102786D01*
X120397715Y-77268386D01*
X120304781Y-77450776D01*
X120241522Y-77645465D01*
X120209500Y-77847648D01*
X120209500Y-78052351D01*
X120241522Y-78254534D01*
X120304781Y-78449223D01*
X120397715Y-78631613D01*
X120518028Y-78797213D01*
X120662786Y-78941971D01*
X120817749Y-79054556D01*
X120828390Y-79062287D01*
X120919840Y-79108883D01*
X120921080Y-79109515D01*
X120971876Y-79157490D01*
X120988671Y-79225311D01*
X120966134Y-79291446D01*
X120921080Y-79330485D01*
X120828386Y-79377715D01*
X120662786Y-79498028D01*
X120518028Y-79642786D01*
X120397715Y-79808386D01*
X120304781Y-79990776D01*
X120241522Y-80185465D01*
X120209500Y-80387648D01*
X120209500Y-80592351D01*
X120241522Y-80794534D01*
X120304781Y-80989223D01*
X120353231Y-81084310D01*
X120391797Y-81160000D01*
X120397715Y-81171613D01*
X120518028Y-81337213D01*
X120662786Y-81481971D01*
X120741513Y-81539168D01*
X120828390Y-81602287D01*
X120919840Y-81648883D01*
X120921080Y-81649515D01*
X120971876Y-81697490D01*
X120988671Y-81765311D01*
X120966134Y-81831446D01*
X120921080Y-81870485D01*
X120828386Y-81917715D01*
X120662786Y-82038028D01*
X120518028Y-82182786D01*
X120397715Y-82348386D01*
X120304781Y-82530776D01*
X120241522Y-82725465D01*
X120209500Y-82927648D01*
X120209500Y-83132351D01*
X120241522Y-83334534D01*
X120304781Y-83529223D01*
X120397715Y-83711613D01*
X120518028Y-83877213D01*
X120662786Y-84021971D01*
X120817749Y-84134556D01*
X120828390Y-84142287D01*
X120919840Y-84188883D01*
X120921080Y-84189515D01*
X120971876Y-84237490D01*
X120988671Y-84305311D01*
X120966134Y-84371446D01*
X120921080Y-84410485D01*
X120828386Y-84457715D01*
X120662786Y-84578028D01*
X120518028Y-84722786D01*
X120397715Y-84888386D01*
X120304781Y-85070776D01*
X120241522Y-85265465D01*
X120209500Y-85467648D01*
X120209500Y-85672351D01*
X120241522Y-85874534D01*
X120304781Y-86069223D01*
X120397715Y-86251613D01*
X120518028Y-86417213D01*
X120662786Y-86561971D01*
X120817749Y-86674556D01*
X120828390Y-86682287D01*
X120919840Y-86728883D01*
X120921080Y-86729515D01*
X120971876Y-86777490D01*
X120988671Y-86845311D01*
X120966134Y-86911446D01*
X120921080Y-86950485D01*
X120828386Y-86997715D01*
X120662786Y-87118028D01*
X120518028Y-87262786D01*
X120397715Y-87428386D01*
X120304781Y-87610776D01*
X120241522Y-87805465D01*
X120209500Y-88007648D01*
X120209500Y-88212351D01*
X120241522Y-88414534D01*
X120304781Y-88609223D01*
X120397715Y-88791613D01*
X120518028Y-88957213D01*
X120662786Y-89101971D01*
X120797026Y-89199500D01*
X120828390Y-89222287D01*
X120919840Y-89268883D01*
X120921080Y-89269515D01*
X120971876Y-89317490D01*
X120988671Y-89385311D01*
X120966134Y-89451446D01*
X120921080Y-89490485D01*
X120828386Y-89537715D01*
X120662786Y-89658028D01*
X120518028Y-89802786D01*
X120397715Y-89968386D01*
X120304781Y-90150776D01*
X120241522Y-90345465D01*
X120211394Y-90535687D01*
X120209500Y-90547648D01*
X120209500Y-90752352D01*
X120212144Y-90769046D01*
X120241522Y-90954534D01*
X120304781Y-91149223D01*
X120397715Y-91331613D01*
X120518028Y-91497213D01*
X120662786Y-91641971D01*
X120817749Y-91754556D01*
X120828390Y-91762287D01*
X120919840Y-91808883D01*
X120921080Y-91809515D01*
X120971876Y-91857490D01*
X120988671Y-91925311D01*
X120966134Y-91991446D01*
X120921080Y-92030485D01*
X120828386Y-92077715D01*
X120662786Y-92198028D01*
X120518028Y-92342786D01*
X120397715Y-92508386D01*
X120304781Y-92690776D01*
X120241522Y-92885465D01*
X120209500Y-93087648D01*
X120209500Y-93292351D01*
X120241522Y-93494534D01*
X120304781Y-93689223D01*
X120397715Y-93871613D01*
X120518028Y-94037213D01*
X120662786Y-94181971D01*
X120812658Y-94290857D01*
X120828390Y-94302287D01*
X120882782Y-94330001D01*
X120921080Y-94349515D01*
X120971876Y-94397490D01*
X120988671Y-94465311D01*
X120966134Y-94531446D01*
X120921080Y-94570485D01*
X120828386Y-94617715D01*
X120662786Y-94738028D01*
X120518028Y-94882786D01*
X120397715Y-95048386D01*
X120304781Y-95230776D01*
X120241522Y-95425465D01*
X120209500Y-95627648D01*
X120209500Y-95832351D01*
X120241522Y-96034534D01*
X120304781Y-96229223D01*
X120397715Y-96411613D01*
X120518028Y-96577213D01*
X120662786Y-96721971D01*
X120817749Y-96834556D01*
X120828390Y-96842287D01*
X120919840Y-96888883D01*
X120921080Y-96889515D01*
X120971876Y-96937490D01*
X120988671Y-97005311D01*
X120966134Y-97071446D01*
X120921080Y-97110485D01*
X120828386Y-97157715D01*
X120662786Y-97278028D01*
X120518028Y-97422786D01*
X120397715Y-97588386D01*
X120304781Y-97770776D01*
X120241522Y-97965465D01*
X120209500Y-98167648D01*
X120209500Y-98372351D01*
X120241522Y-98574534D01*
X120304781Y-98769223D01*
X120364289Y-98886011D01*
X120390691Y-98937829D01*
X120397715Y-98951613D01*
X120518028Y-99117213D01*
X120662786Y-99261971D01*
X120817749Y-99374556D01*
X120828390Y-99382287D01*
X120875442Y-99406261D01*
X120921080Y-99429515D01*
X120971876Y-99477490D01*
X120988671Y-99545311D01*
X120966134Y-99611446D01*
X120921080Y-99650485D01*
X120828386Y-99697715D01*
X120662786Y-99818028D01*
X120518028Y-99962786D01*
X120397715Y-100128386D01*
X120304781Y-100310776D01*
X120241522Y-100505465D01*
X120209500Y-100707648D01*
X120209500Y-100912351D01*
X120241522Y-101114534D01*
X120304781Y-101309223D01*
X120386297Y-101469205D01*
X120399193Y-101537874D01*
X120372917Y-101602615D01*
X120315810Y-101642872D01*
X120275812Y-101649500D01*
X107504188Y-101649500D01*
X107437149Y-101629815D01*
X107391394Y-101577011D01*
X107381450Y-101507853D01*
X107393703Y-101469205D01*
X107475218Y-101309223D01*
X107475218Y-101309222D01*
X107475220Y-101309219D01*
X107538477Y-101114534D01*
X107570500Y-100912352D01*
X107570500Y-100707648D01*
X107548390Y-100568052D01*
X107538477Y-100505465D01*
X107483431Y-100336052D01*
X107475220Y-100310781D01*
X107475218Y-100310778D01*
X107475218Y-100310776D01*
X107437987Y-100237708D01*
X107382287Y-100128390D01*
X107369507Y-100110800D01*
X107261971Y-99962786D01*
X107117213Y-99818028D01*
X106951614Y-99697715D01*
X106945006Y-99694348D01*
X106858917Y-99650483D01*
X106808123Y-99602511D01*
X106791328Y-99534690D01*
X106813865Y-99468555D01*
X106858917Y-99429516D01*
X106951610Y-99382287D01*
X107057320Y-99305485D01*
X107117213Y-99261971D01*
X107117215Y-99261968D01*
X107117219Y-99261966D01*
X107261966Y-99117219D01*
X107261968Y-99117215D01*
X107261971Y-99117213D01*
X107328628Y-99025466D01*
X107382287Y-98951610D01*
X107475220Y-98769219D01*
X107538477Y-98574534D01*
X107570500Y-98372352D01*
X107570500Y-98167648D01*
X107538477Y-97965466D01*
X107475220Y-97770781D01*
X107475218Y-97770778D01*
X107475218Y-97770776D01*
X107441503Y-97704607D01*
X107382287Y-97588390D01*
X107374556Y-97577749D01*
X107261971Y-97422786D01*
X107117213Y-97278028D01*
X106951614Y-97157715D01*
X106945006Y-97154348D01*
X106858917Y-97110483D01*
X106808123Y-97062511D01*
X106791328Y-96994690D01*
X106813865Y-96928555D01*
X106858917Y-96889516D01*
X106951610Y-96842287D01*
X106972770Y-96826913D01*
X107117213Y-96721971D01*
X107117215Y-96721968D01*
X107117219Y-96721966D01*
X107261966Y-96577219D01*
X107261968Y-96577215D01*
X107261971Y-96577213D01*
X107314732Y-96504590D01*
X107382287Y-96411610D01*
X107475220Y-96229219D01*
X107538477Y-96034534D01*
X107570500Y-95832352D01*
X107570500Y-95627648D01*
X107542363Y-95450000D01*
X107538477Y-95425465D01*
X107475218Y-95230776D01*
X107441503Y-95164607D01*
X107382287Y-95048390D01*
X107355376Y-95011350D01*
X107261971Y-94882786D01*
X107117213Y-94738028D01*
X106951614Y-94617715D01*
X106868970Y-94575606D01*
X106858917Y-94570483D01*
X106808123Y-94522511D01*
X106791328Y-94454690D01*
X106813865Y-94388555D01*
X106858917Y-94349516D01*
X106951610Y-94302287D01*
X106985948Y-94277339D01*
X107117213Y-94181971D01*
X107117215Y-94181968D01*
X107117219Y-94181966D01*
X107261966Y-94037219D01*
X107261968Y-94037215D01*
X107261971Y-94037213D01*
X107325334Y-93950000D01*
X107382287Y-93871610D01*
X107475220Y-93689219D01*
X107538477Y-93494534D01*
X107570500Y-93292352D01*
X107570500Y-93087648D01*
X107560163Y-93022386D01*
X107538477Y-92885465D01*
X107504135Y-92779772D01*
X107475220Y-92690781D01*
X107475218Y-92690778D01*
X107475218Y-92690776D01*
X107408531Y-92559897D01*
X107382287Y-92508390D01*
X107369507Y-92490800D01*
X107261971Y-92342786D01*
X107117213Y-92198028D01*
X106951614Y-92077715D01*
X106945006Y-92074348D01*
X106858917Y-92030483D01*
X106808123Y-91982511D01*
X106791328Y-91914690D01*
X106813865Y-91848555D01*
X106858917Y-91809516D01*
X106951610Y-91762287D01*
X106972770Y-91746913D01*
X107117213Y-91641971D01*
X107117215Y-91641968D01*
X107117219Y-91641966D01*
X107261966Y-91497219D01*
X107261968Y-91497215D01*
X107261971Y-91497213D01*
X107314732Y-91424590D01*
X107382287Y-91331610D01*
X107475220Y-91149219D01*
X107538477Y-90954534D01*
X107570500Y-90752352D01*
X107570500Y-90547648D01*
X107554751Y-90448213D01*
X107538477Y-90345465D01*
X107491043Y-90199480D01*
X107475220Y-90150781D01*
X107475218Y-90150778D01*
X107475218Y-90150776D01*
X107438565Y-90078842D01*
X107382287Y-89968390D01*
X107369844Y-89951264D01*
X107261971Y-89802786D01*
X107117213Y-89658028D01*
X106951614Y-89537715D01*
X106899905Y-89511368D01*
X106858917Y-89490483D01*
X106808123Y-89442511D01*
X106791328Y-89374690D01*
X106813865Y-89308555D01*
X106858917Y-89269516D01*
X106951610Y-89222287D01*
X106982974Y-89199500D01*
X107117213Y-89101971D01*
X107117215Y-89101968D01*
X107117219Y-89101966D01*
X107261966Y-88957219D01*
X107261968Y-88957215D01*
X107261971Y-88957213D01*
X107359995Y-88822292D01*
X107382287Y-88791610D01*
X107475220Y-88609219D01*
X107538477Y-88414534D01*
X107570500Y-88212352D01*
X107570500Y-88007648D01*
X107538477Y-87805466D01*
X107524609Y-87762786D01*
X107491050Y-87659500D01*
X107475220Y-87610781D01*
X107475218Y-87610778D01*
X107475218Y-87610776D01*
X107417610Y-87497715D01*
X107382287Y-87428390D01*
X107365134Y-87404781D01*
X107261971Y-87262786D01*
X107117213Y-87118028D01*
X106951614Y-86997715D01*
X106945006Y-86994348D01*
X106858917Y-86950483D01*
X106808123Y-86902511D01*
X106791328Y-86834690D01*
X106813865Y-86768555D01*
X106858917Y-86729516D01*
X106951610Y-86682287D01*
X106972770Y-86666913D01*
X107117213Y-86561971D01*
X107117215Y-86561968D01*
X107117219Y-86561966D01*
X107261966Y-86417219D01*
X107261968Y-86417215D01*
X107261971Y-86417213D01*
X107314732Y-86344590D01*
X107382287Y-86251610D01*
X107475220Y-86069219D01*
X107538477Y-85874534D01*
X107570500Y-85672352D01*
X107570500Y-85467648D01*
X107538477Y-85265466D01*
X107475220Y-85070781D01*
X107475218Y-85070778D01*
X107475218Y-85070776D01*
X107441503Y-85004607D01*
X107382287Y-84888390D01*
X107374556Y-84877749D01*
X107261971Y-84722786D01*
X107117213Y-84578028D01*
X106951614Y-84457715D01*
X106945006Y-84454348D01*
X106858917Y-84410483D01*
X106808123Y-84362511D01*
X106791328Y-84294690D01*
X106813865Y-84228555D01*
X106858917Y-84189516D01*
X106951610Y-84142287D01*
X106997383Y-84109031D01*
X107117213Y-84021971D01*
X107117215Y-84021968D01*
X107117219Y-84021966D01*
X107261966Y-83877219D01*
X107261968Y-83877215D01*
X107261971Y-83877213D01*
X107381773Y-83712317D01*
X107382287Y-83711610D01*
X107475220Y-83529219D01*
X107538477Y-83334534D01*
X107570500Y-83132352D01*
X107570500Y-82927648D01*
X107538477Y-82725466D01*
X107517205Y-82659999D01*
X107475218Y-82530776D01*
X107432892Y-82447708D01*
X107382287Y-82348390D01*
X107363326Y-82322292D01*
X107261971Y-82182786D01*
X107117213Y-82038028D01*
X106951614Y-81917715D01*
X106927666Y-81905513D01*
X106858917Y-81870483D01*
X106808123Y-81822511D01*
X106791328Y-81754690D01*
X106813865Y-81688555D01*
X106858917Y-81649516D01*
X106951610Y-81602287D01*
X107038487Y-81539168D01*
X107117213Y-81481971D01*
X107117215Y-81481968D01*
X107117219Y-81481966D01*
X107261966Y-81337219D01*
X107261968Y-81337215D01*
X107261971Y-81337213D01*
X107363888Y-81196934D01*
X107382287Y-81171610D01*
X107475220Y-80989219D01*
X107538477Y-80794534D01*
X107570500Y-80592352D01*
X107570500Y-80387648D01*
X107538477Y-80185466D01*
X107475220Y-79990781D01*
X107475218Y-79990778D01*
X107475218Y-79990776D01*
X107434484Y-79910832D01*
X107382287Y-79808390D01*
X107374556Y-79797749D01*
X107261971Y-79642786D01*
X107117213Y-79498028D01*
X106951614Y-79377715D01*
X106945006Y-79374348D01*
X106858917Y-79330483D01*
X106808123Y-79282511D01*
X106791328Y-79214690D01*
X106813865Y-79148555D01*
X106858917Y-79109516D01*
X106951610Y-79062287D01*
X106972770Y-79046913D01*
X107117213Y-78941971D01*
X107117215Y-78941968D01*
X107117219Y-78941966D01*
X107261966Y-78797219D01*
X107261968Y-78797215D01*
X107261971Y-78797213D01*
X107355901Y-78667927D01*
X107382287Y-78631610D01*
X107475220Y-78449219D01*
X107538477Y-78254534D01*
X107570500Y-78052352D01*
X107570500Y-77847648D01*
X107538477Y-77645466D01*
X107475220Y-77450781D01*
X107475218Y-77450778D01*
X107475218Y-77450776D01*
X107441503Y-77384607D01*
X107382287Y-77268390D01*
X107374556Y-77257749D01*
X107261971Y-77102786D01*
X107117213Y-76958028D01*
X106951614Y-76837715D01*
X106945006Y-76834348D01*
X106858917Y-76790483D01*
X106808123Y-76742511D01*
X106791328Y-76674690D01*
X106813865Y-76608555D01*
X106858917Y-76569516D01*
X106951610Y-76522287D01*
X106972770Y-76506913D01*
X107117213Y-76401971D01*
X107117215Y-76401968D01*
X107117219Y-76401966D01*
X107261966Y-76257219D01*
X107261968Y-76257215D01*
X107261971Y-76257213D01*
X107314732Y-76184590D01*
X107382287Y-76091610D01*
X107475220Y-75909219D01*
X107538477Y-75714534D01*
X107570500Y-75512352D01*
X107570500Y-75307648D01*
X107558468Y-75231680D01*
X107538477Y-75105465D01*
X107475218Y-74910776D01*
X107412459Y-74787606D01*
X107382287Y-74728390D01*
X107339380Y-74669333D01*
X107261971Y-74562786D01*
X107117213Y-74418028D01*
X106951613Y-74297715D01*
X106951612Y-74297714D01*
X106951610Y-74297713D01*
X106887123Y-74264855D01*
X106769223Y-74204781D01*
X106574534Y-74141522D01*
X106399995Y-74113878D01*
X106372352Y-74109500D01*
X106167648Y-74109500D01*
X106143329Y-74113351D01*
X105965465Y-74141522D01*
X105770776Y-74204781D01*
X105588386Y-74297715D01*
X105422786Y-74418028D01*
X105278028Y-74562786D01*
X105157715Y-74728386D01*
X105064781Y-74910776D01*
X105001522Y-75105465D01*
X104969500Y-75307648D01*
X104969500Y-75512351D01*
X105001522Y-75714534D01*
X105064781Y-75909223D01*
X105157715Y-76091613D01*
X105278028Y-76257213D01*
X105422786Y-76401971D01*
X105577749Y-76514556D01*
X105588390Y-76522287D01*
X105679840Y-76568883D01*
X105681080Y-76569515D01*
X105731876Y-76617490D01*
X105748671Y-76685311D01*
X105726134Y-76751446D01*
X105681080Y-76790485D01*
X105588386Y-76837715D01*
X105422786Y-76958028D01*
X105278028Y-77102786D01*
X105157715Y-77268386D01*
X105064781Y-77450776D01*
X105001522Y-77645465D01*
X104969500Y-77847648D01*
X104969500Y-78052351D01*
X105001522Y-78254534D01*
X105064781Y-78449223D01*
X105157715Y-78631613D01*
X105278028Y-78797213D01*
X105422786Y-78941971D01*
X105577749Y-79054556D01*
X105588390Y-79062287D01*
X105679840Y-79108883D01*
X105681080Y-79109515D01*
X105731876Y-79157490D01*
X105748671Y-79225311D01*
X105726134Y-79291446D01*
X105681080Y-79330485D01*
X105588386Y-79377715D01*
X105422786Y-79498028D01*
X105278028Y-79642786D01*
X105157715Y-79808386D01*
X105064781Y-79990776D01*
X105001522Y-80185465D01*
X104969500Y-80387648D01*
X104969500Y-80592351D01*
X105001522Y-80794534D01*
X105064781Y-80989223D01*
X105113231Y-81084310D01*
X105151797Y-81160000D01*
X105157715Y-81171613D01*
X105278028Y-81337213D01*
X105422786Y-81481971D01*
X105501513Y-81539168D01*
X105588390Y-81602287D01*
X105679840Y-81648883D01*
X105681080Y-81649515D01*
X105731876Y-81697490D01*
X105748671Y-81765311D01*
X105726134Y-81831446D01*
X105681080Y-81870485D01*
X105588386Y-81917715D01*
X105422786Y-82038028D01*
X105278028Y-82182786D01*
X105157715Y-82348386D01*
X105064781Y-82530776D01*
X105001522Y-82725465D01*
X104969500Y-82927648D01*
X104969500Y-83132351D01*
X105001522Y-83334534D01*
X105064781Y-83529223D01*
X105157715Y-83711613D01*
X105278028Y-83877213D01*
X105422786Y-84021971D01*
X105577749Y-84134556D01*
X105588390Y-84142287D01*
X105679840Y-84188883D01*
X105681080Y-84189515D01*
X105731876Y-84237490D01*
X105748671Y-84305311D01*
X105726134Y-84371446D01*
X105681080Y-84410485D01*
X105588386Y-84457715D01*
X105422786Y-84578028D01*
X105278028Y-84722786D01*
X105157715Y-84888386D01*
X105064781Y-85070776D01*
X105001522Y-85265465D01*
X104969500Y-85467648D01*
X104969500Y-85672351D01*
X105001522Y-85874534D01*
X105064781Y-86069223D01*
X105157715Y-86251613D01*
X105278028Y-86417213D01*
X105422786Y-86561971D01*
X105577749Y-86674556D01*
X105588390Y-86682287D01*
X105679840Y-86728883D01*
X105681080Y-86729515D01*
X105731876Y-86777490D01*
X105748671Y-86845311D01*
X105726134Y-86911446D01*
X105681080Y-86950485D01*
X105588386Y-86997715D01*
X105422786Y-87118028D01*
X105278028Y-87262786D01*
X105157715Y-87428386D01*
X105064781Y-87610776D01*
X105001522Y-87805465D01*
X104969500Y-88007648D01*
X104969500Y-88212351D01*
X105001522Y-88414534D01*
X105064781Y-88609223D01*
X105157715Y-88791613D01*
X105278028Y-88957213D01*
X105422786Y-89101971D01*
X105557026Y-89199500D01*
X105588390Y-89222287D01*
X105679840Y-89268883D01*
X105681080Y-89269515D01*
X105731876Y-89317490D01*
X105748671Y-89385311D01*
X105726134Y-89451446D01*
X105681080Y-89490485D01*
X105588386Y-89537715D01*
X105422786Y-89658028D01*
X105278028Y-89802786D01*
X105157715Y-89968386D01*
X105064781Y-90150776D01*
X105001522Y-90345465D01*
X104971394Y-90535687D01*
X104969500Y-90547648D01*
X104969500Y-90752352D01*
X104972144Y-90769046D01*
X105001522Y-90954534D01*
X105064781Y-91149223D01*
X105157715Y-91331613D01*
X105278028Y-91497213D01*
X105422786Y-91641971D01*
X105577749Y-91754556D01*
X105588390Y-91762287D01*
X105679840Y-91808883D01*
X105681080Y-91809515D01*
X105731876Y-91857490D01*
X105748671Y-91925311D01*
X105726134Y-91991446D01*
X105681080Y-92030485D01*
X105588386Y-92077715D01*
X105422786Y-92198028D01*
X105278028Y-92342786D01*
X105157715Y-92508386D01*
X105064781Y-92690776D01*
X105001522Y-92885465D01*
X104969500Y-93087648D01*
X104969500Y-93292351D01*
X105001522Y-93494534D01*
X105064781Y-93689223D01*
X105157715Y-93871613D01*
X105278028Y-94037213D01*
X105422786Y-94181971D01*
X105572658Y-94290857D01*
X105588390Y-94302287D01*
X105642782Y-94330001D01*
X105681080Y-94349515D01*
X105731876Y-94397490D01*
X105748671Y-94465311D01*
X105726134Y-94531446D01*
X105681080Y-94570485D01*
X105588386Y-94617715D01*
X105422786Y-94738028D01*
X105278028Y-94882786D01*
X105157715Y-95048385D01*
X105150883Y-95061795D01*
X105102909Y-95112591D01*
X105040398Y-95129500D01*
X99780098Y-95129500D01*
X99713059Y-95109815D01*
X99692417Y-95093181D01*
X94584573Y-89985337D01*
X94551088Y-89924014D01*
X94550637Y-89921847D01*
X94519738Y-89766510D01*
X94519737Y-89766503D01*
X94496333Y-89710000D01*
X94459397Y-89620827D01*
X94459390Y-89620814D01*
X94371789Y-89489711D01*
X94371786Y-89489707D01*
X94260292Y-89378213D01*
X94260288Y-89378210D01*
X94129185Y-89290609D01*
X94129172Y-89290602D01*
X93983501Y-89230264D01*
X93983489Y-89230261D01*
X93828845Y-89199500D01*
X93828842Y-89199500D01*
X93671158Y-89199500D01*
X93671155Y-89199500D01*
X93516510Y-89230261D01*
X93516498Y-89230264D01*
X93370827Y-89290602D01*
X93370814Y-89290609D01*
X93239711Y-89378210D01*
X93239707Y-89378213D01*
X93128213Y-89489707D01*
X93128210Y-89489711D01*
X93040609Y-89620814D01*
X93040602Y-89620827D01*
X92980264Y-89766498D01*
X92980261Y-89766510D01*
X92949500Y-89921153D01*
X92949500Y-90078846D01*
X92980261Y-90233489D01*
X92980264Y-90233501D01*
X93040602Y-90379172D01*
X93040609Y-90379185D01*
X93128210Y-90510288D01*
X93128213Y-90510292D01*
X93239707Y-90621786D01*
X93239711Y-90621789D01*
X93370814Y-90709390D01*
X93370827Y-90709397D01*
X93490719Y-90759057D01*
X93516503Y-90769737D01*
X93573055Y-90780986D01*
X93671849Y-90800638D01*
X93733760Y-90833023D01*
X93735338Y-90834573D01*
X99111284Y-96210520D01*
X99111286Y-96210521D01*
X99111290Y-96210524D01*
X99248209Y-96289573D01*
X99248216Y-96289577D01*
X99400943Y-96330501D01*
X99400945Y-96330501D01*
X99566654Y-96330501D01*
X99566670Y-96330500D01*
X105040398Y-96330500D01*
X105107437Y-96350185D01*
X105150883Y-96398205D01*
X105157715Y-96411614D01*
X105278028Y-96577213D01*
X105422786Y-96721971D01*
X105577749Y-96834556D01*
X105588390Y-96842287D01*
X105679840Y-96888883D01*
X105681080Y-96889515D01*
X105731876Y-96937490D01*
X105748671Y-97005311D01*
X105726134Y-97071446D01*
X105681080Y-97110485D01*
X105588386Y-97157715D01*
X105422786Y-97278028D01*
X105278028Y-97422786D01*
X105157715Y-97588386D01*
X105064781Y-97770776D01*
X105001522Y-97965465D01*
X104969500Y-98167648D01*
X104969500Y-98372351D01*
X105001522Y-98574534D01*
X105064781Y-98769223D01*
X105124289Y-98886011D01*
X105150691Y-98937829D01*
X105157715Y-98951613D01*
X105278028Y-99117213D01*
X105422786Y-99261971D01*
X105577749Y-99374556D01*
X105588390Y-99382287D01*
X105635442Y-99406261D01*
X105681080Y-99429515D01*
X105731876Y-99477490D01*
X105748671Y-99545311D01*
X105726134Y-99611446D01*
X105681080Y-99650485D01*
X105588386Y-99697715D01*
X105422786Y-99818028D01*
X105278028Y-99962786D01*
X105157715Y-100128386D01*
X105064781Y-100310776D01*
X105001522Y-100505465D01*
X104969500Y-100707648D01*
X104969500Y-100912351D01*
X105001522Y-101114534D01*
X105064781Y-101309223D01*
X105157715Y-101491613D01*
X105278028Y-101657213D01*
X105422786Y-101801971D01*
X105557250Y-101899663D01*
X105588390Y-101922287D01*
X105662810Y-101960206D01*
X105681080Y-101969515D01*
X105731876Y-102017490D01*
X105748671Y-102085311D01*
X105726134Y-102151446D01*
X105681080Y-102190485D01*
X105588386Y-102237715D01*
X105422786Y-102358028D01*
X105278028Y-102502786D01*
X105157715Y-102668385D01*
X105150883Y-102681795D01*
X105102909Y-102732591D01*
X105040398Y-102749500D01*
X97518897Y-102749500D01*
X97451858Y-102729815D01*
X97431216Y-102713181D01*
X87103974Y-92385939D01*
X87070489Y-92324616D01*
X87070038Y-92322449D01*
X87046538Y-92204310D01*
X87039137Y-92167103D01*
X87002111Y-92077713D01*
X86978797Y-92021427D01*
X86978790Y-92021414D01*
X86891189Y-91890311D01*
X86891186Y-91890307D01*
X86779692Y-91778813D01*
X86779688Y-91778810D01*
X86648585Y-91691209D01*
X86648572Y-91691202D01*
X86502901Y-91630864D01*
X86502889Y-91630861D01*
X86348245Y-91600100D01*
X86348242Y-91600100D01*
X86190558Y-91600100D01*
X86190555Y-91600100D01*
X86035910Y-91630861D01*
X86035898Y-91630864D01*
X85890227Y-91691202D01*
X85890214Y-91691209D01*
X85759111Y-91778810D01*
X85759107Y-91778813D01*
X85647613Y-91890307D01*
X85647610Y-91890311D01*
X85560009Y-92021414D01*
X85560002Y-92021427D01*
X85499664Y-92167098D01*
X85499661Y-92167110D01*
X85468900Y-92321753D01*
X74500500Y-92321753D01*
X74500500Y-72673994D01*
X80435400Y-72673994D01*
X80435400Y-72906005D01*
X80435401Y-72906022D01*
X80465683Y-73136040D01*
X80465686Y-73136053D01*
X80525736Y-73360167D01*
X80614524Y-73574521D01*
X80614532Y-73574538D01*
X80730536Y-73775461D01*
X80730542Y-73775469D01*
X80789517Y-73852327D01*
X81805400Y-72836445D01*
X81805400Y-72842661D01*
X81832659Y-72944394D01*
X81885320Y-73035606D01*
X81959794Y-73110080D01*
X82051006Y-73162741D01*
X82152739Y-73190000D01*
X82158954Y-73190000D01*
X81143071Y-74205881D01*
X81219930Y-74264857D01*
X81219938Y-74264863D01*
X81420861Y-74380867D01*
X81420878Y-74380875D01*
X81635232Y-74469663D01*
X81859346Y-74529713D01*
X81859359Y-74529716D01*
X82089377Y-74559998D01*
X82089395Y-74560000D01*
X82321405Y-74560000D01*
X82321422Y-74559998D01*
X82551440Y-74529716D01*
X82551453Y-74529713D01*
X82775567Y-74469663D01*
X82989921Y-74380875D01*
X82989938Y-74380867D01*
X83190875Y-74264855D01*
X83267727Y-74205883D01*
X83267727Y-74205880D01*
X82251846Y-73190000D01*
X82258061Y-73190000D01*
X82359794Y-73162741D01*
X82451006Y-73110080D01*
X82525480Y-73035606D01*
X82578141Y-72944394D01*
X82605400Y-72842661D01*
X82605400Y-72836446D01*
X83621280Y-73852327D01*
X83621283Y-73852327D01*
X83680255Y-73775475D01*
X83796267Y-73574538D01*
X83796275Y-73574521D01*
X83885063Y-73360167D01*
X83945113Y-73136053D01*
X83945116Y-73136040D01*
X83975398Y-72906022D01*
X83975400Y-72906005D01*
X83975400Y-72673986D01*
X83975395Y-72673947D01*
X84498900Y-72673947D01*
X84498900Y-72906052D01*
X84510323Y-72992812D01*
X84529193Y-73136145D01*
X84529194Y-73136148D01*
X84589262Y-73360328D01*
X84678077Y-73574745D01*
X84678085Y-73574762D01*
X84794120Y-73775743D01*
X84794121Y-73775745D01*
X84935409Y-73959875D01*
X84935415Y-73959882D01*
X85099517Y-74123984D01*
X85099524Y-74123990D01*
X85283654Y-74265278D01*
X85283656Y-74265279D01*
X85484637Y-74381314D01*
X85484640Y-74381315D01*
X85484648Y-74381320D01*
X85699070Y-74470137D01*
X85923251Y-74530206D01*
X86153355Y-74560500D01*
X86153362Y-74560500D01*
X86385438Y-74560500D01*
X86385445Y-74560500D01*
X86615549Y-74530206D01*
X86839730Y-74470137D01*
X87054152Y-74381320D01*
X87188149Y-74303957D01*
X87255143Y-74265279D01*
X87255145Y-74265278D01*
X87255694Y-74264857D01*
X87439277Y-74123989D01*
X87603389Y-73959877D01*
X87744676Y-73775748D01*
X87860720Y-73574752D01*
X87949537Y-73360330D01*
X88009606Y-73136149D01*
X88039900Y-72906045D01*
X88039900Y-72673955D01*
X88039899Y-72673947D01*
X90594900Y-72673947D01*
X90594900Y-72906052D01*
X90606323Y-72992812D01*
X90625193Y-73136145D01*
X90625194Y-73136148D01*
X90685262Y-73360328D01*
X90774077Y-73574745D01*
X90774085Y-73574762D01*
X90890120Y-73775743D01*
X90890121Y-73775745D01*
X91031409Y-73959875D01*
X91031415Y-73959882D01*
X91195517Y-74123984D01*
X91195524Y-74123990D01*
X91379654Y-74265278D01*
X91379656Y-74265279D01*
X91580637Y-74381314D01*
X91580640Y-74381315D01*
X91580648Y-74381320D01*
X91795070Y-74470137D01*
X92019251Y-74530206D01*
X92249355Y-74560500D01*
X92249362Y-74560500D01*
X92481438Y-74560500D01*
X92481445Y-74560500D01*
X92711549Y-74530206D01*
X92935730Y-74470137D01*
X93150152Y-74381320D01*
X93284149Y-74303957D01*
X93351143Y-74265279D01*
X93351145Y-74265278D01*
X93351694Y-74264857D01*
X93535277Y-74123989D01*
X93699389Y-73959877D01*
X93840676Y-73775748D01*
X93956720Y-73574752D01*
X94045537Y-73360330D01*
X94105606Y-73136149D01*
X94135900Y-72906045D01*
X94135900Y-72673955D01*
X94135899Y-72673947D01*
X94629500Y-72673947D01*
X94629500Y-72906052D01*
X94640923Y-72992812D01*
X94659793Y-73136145D01*
X94659794Y-73136148D01*
X94719862Y-73360328D01*
X94808677Y-73574745D01*
X94808685Y-73574762D01*
X94924720Y-73775743D01*
X94924721Y-73775745D01*
X95066009Y-73959875D01*
X95066015Y-73959882D01*
X95230117Y-74123984D01*
X95230124Y-74123990D01*
X95414254Y-74265278D01*
X95414256Y-74265279D01*
X95615237Y-74381314D01*
X95615240Y-74381315D01*
X95615248Y-74381320D01*
X95829670Y-74470137D01*
X96053851Y-74530206D01*
X96283955Y-74560500D01*
X96283962Y-74560500D01*
X96516038Y-74560500D01*
X96516045Y-74560500D01*
X96746149Y-74530206D01*
X96970330Y-74470137D01*
X97184752Y-74381320D01*
X97318749Y-74303957D01*
X97385743Y-74265279D01*
X97385745Y-74265278D01*
X97386294Y-74264857D01*
X97569877Y-74123989D01*
X97733989Y-73959877D01*
X97875276Y-73775748D01*
X97991320Y-73574752D01*
X98080137Y-73360330D01*
X98095725Y-73302155D01*
X130410000Y-73302155D01*
X130410000Y-74000000D01*
X131434722Y-74000000D01*
X131390667Y-74076306D01*
X131360000Y-74190756D01*
X131360000Y-74309244D01*
X131390667Y-74423694D01*
X131434722Y-74500000D01*
X130410000Y-74500000D01*
X130410000Y-75197844D01*
X130416401Y-75257372D01*
X130416403Y-75257379D01*
X130466645Y-75392086D01*
X130466649Y-75392093D01*
X130552809Y-75507187D01*
X130552812Y-75507190D01*
X130667906Y-75593350D01*
X130667913Y-75593354D01*
X130802620Y-75643596D01*
X130802627Y-75643598D01*
X130862155Y-75649999D01*
X130862172Y-75650000D01*
X131560000Y-75650000D01*
X131560000Y-74625277D01*
X131636306Y-74669333D01*
X131750756Y-74700000D01*
X131869244Y-74700000D01*
X131983694Y-74669333D01*
X132060000Y-74625277D01*
X132060000Y-75650000D01*
X132757828Y-75650000D01*
X132757844Y-75649999D01*
X132817372Y-75643598D01*
X132817379Y-75643596D01*
X132952086Y-75593354D01*
X132952093Y-75593350D01*
X133067187Y-75507190D01*
X133067190Y-75507187D01*
X133153350Y-75392093D01*
X133153354Y-75392086D01*
X133183213Y-75312031D01*
X133225084Y-75256097D01*
X133290548Y-75231680D01*
X133358821Y-75246531D01*
X133387076Y-75267683D01*
X133437636Y-75318243D01*
X133437641Y-75318247D01*
X133593192Y-75431260D01*
X133615978Y-75447815D01*
X133732501Y-75507187D01*
X133812393Y-75547895D01*
X133812396Y-75547896D01*
X133917221Y-75581955D01*
X134022049Y-75616015D01*
X134239778Y-75650500D01*
X134239779Y-75650500D01*
X134460221Y-75650500D01*
X134460222Y-75650500D01*
X134677951Y-75616015D01*
X134887606Y-75547895D01*
X135084022Y-75447815D01*
X135262365Y-75318242D01*
X135418242Y-75162365D01*
X135547815Y-74984022D01*
X135647895Y-74787606D01*
X135716015Y-74577951D01*
X135750500Y-74360222D01*
X135750500Y-74139778D01*
X135716015Y-73922049D01*
X135681955Y-73817221D01*
X135647896Y-73712396D01*
X135647895Y-73712393D01*
X135577762Y-73574752D01*
X135547815Y-73515978D01*
X135434731Y-73360330D01*
X135418247Y-73337641D01*
X135418243Y-73337636D01*
X135262363Y-73181756D01*
X135262358Y-73181752D01*
X135084025Y-73052187D01*
X135084024Y-73052186D01*
X135084022Y-73052185D01*
X135021096Y-73020122D01*
X134887606Y-72952104D01*
X134887603Y-72952103D01*
X134677952Y-72883985D01*
X134569086Y-72866742D01*
X134460222Y-72849500D01*
X134239778Y-72849500D01*
X134167201Y-72860995D01*
X134022047Y-72883985D01*
X133812396Y-72952103D01*
X133812393Y-72952104D01*
X133615974Y-73052187D01*
X133437641Y-73181752D01*
X133437636Y-73181756D01*
X133387075Y-73232317D01*
X133325752Y-73265801D01*
X133256060Y-73260816D01*
X133200127Y-73218945D01*
X133183213Y-73187968D01*
X133153354Y-73107913D01*
X133153350Y-73107906D01*
X133067190Y-72992812D01*
X133067187Y-72992809D01*
X132952093Y-72906649D01*
X132952086Y-72906645D01*
X132817379Y-72856403D01*
X132817372Y-72856401D01*
X132757844Y-72850000D01*
X132060000Y-72850000D01*
X132060000Y-73874722D01*
X131983694Y-73830667D01*
X131869244Y-73800000D01*
X131750756Y-73800000D01*
X131636306Y-73830667D01*
X131560000Y-73874722D01*
X131560000Y-72850000D01*
X130862155Y-72850000D01*
X130802627Y-72856401D01*
X130802620Y-72856403D01*
X130667913Y-72906645D01*
X130667906Y-72906649D01*
X130552812Y-72992809D01*
X130552809Y-72992812D01*
X130466649Y-73107906D01*
X130466645Y-73107913D01*
X130416403Y-73242620D01*
X130416401Y-73242627D01*
X130410000Y-73302155D01*
X98095725Y-73302155D01*
X98140206Y-73136149D01*
X98170500Y-72906045D01*
X98170500Y-72673955D01*
X98140206Y-72443851D01*
X98080137Y-72219670D01*
X97991320Y-72005248D01*
X97991314Y-72005237D01*
X97875279Y-71804256D01*
X97875275Y-71804250D01*
X97822531Y-71735513D01*
X126119500Y-71735513D01*
X126119500Y-71924486D01*
X126149059Y-72111118D01*
X126207454Y-72290836D01*
X126281647Y-72436446D01*
X126293240Y-72459199D01*
X126404310Y-72612073D01*
X126537927Y-72745690D01*
X126690801Y-72856760D01*
X126770347Y-72897290D01*
X126859163Y-72942545D01*
X126859165Y-72942545D01*
X126859168Y-72942547D01*
X126955497Y-72973846D01*
X127038881Y-73000940D01*
X127225514Y-73030500D01*
X127225519Y-73030500D01*
X127414486Y-73030500D01*
X127601118Y-73000940D01*
X127626142Y-72992809D01*
X127780832Y-72942547D01*
X127949199Y-72856760D01*
X128102073Y-72745690D01*
X128235690Y-72612073D01*
X128346760Y-72459199D01*
X128432547Y-72290832D01*
X128490940Y-72111118D01*
X128507672Y-72005478D01*
X128520500Y-71924486D01*
X128520500Y-71735513D01*
X128490940Y-71548881D01*
X128460764Y-71456011D01*
X128432547Y-71369168D01*
X128432545Y-71369165D01*
X128432545Y-71369163D01*
X128346759Y-71200800D01*
X128345547Y-71199132D01*
X128235690Y-71047927D01*
X128102073Y-70914310D01*
X127949199Y-70803240D01*
X127780836Y-70717454D01*
X127601118Y-70659059D01*
X127414486Y-70629500D01*
X127414481Y-70629500D01*
X127225519Y-70629500D01*
X127225514Y-70629500D01*
X127038881Y-70659059D01*
X126859163Y-70717454D01*
X126690800Y-70803240D01*
X126603579Y-70866610D01*
X126537927Y-70914310D01*
X126537925Y-70914312D01*
X126537924Y-70914312D01*
X126404312Y-71047924D01*
X126404312Y-71047925D01*
X126404310Y-71047927D01*
X126359311Y-71109862D01*
X126293240Y-71200800D01*
X126207454Y-71369163D01*
X126149059Y-71548881D01*
X126119500Y-71735513D01*
X97822531Y-71735513D01*
X97733990Y-71620124D01*
X97733984Y-71620117D01*
X97569882Y-71456015D01*
X97569875Y-71456009D01*
X97385745Y-71314721D01*
X97385743Y-71314720D01*
X97184762Y-71198685D01*
X97184754Y-71198681D01*
X97184752Y-71198680D01*
X96970330Y-71109863D01*
X96970331Y-71109863D01*
X96970328Y-71109862D01*
X96828203Y-71071780D01*
X96746149Y-71049794D01*
X96717386Y-71046007D01*
X96516052Y-71019500D01*
X96516045Y-71019500D01*
X96283955Y-71019500D01*
X96283947Y-71019500D01*
X96053851Y-71049794D01*
X95829671Y-71109862D01*
X95615254Y-71198677D01*
X95615237Y-71198685D01*
X95414256Y-71314720D01*
X95414254Y-71314721D01*
X95230124Y-71456009D01*
X95230117Y-71456015D01*
X95066015Y-71620117D01*
X95066009Y-71620124D01*
X94924721Y-71804254D01*
X94924720Y-71804256D01*
X94808685Y-72005237D01*
X94808677Y-72005254D01*
X94719862Y-72219671D01*
X94659794Y-72443851D01*
X94629500Y-72673947D01*
X94135899Y-72673947D01*
X94105606Y-72443851D01*
X94045537Y-72219670D01*
X93956720Y-72005248D01*
X93956714Y-72005237D01*
X93840679Y-71804256D01*
X93840678Y-71804254D01*
X93699390Y-71620124D01*
X93699384Y-71620117D01*
X93535282Y-71456015D01*
X93535275Y-71456009D01*
X93351145Y-71314721D01*
X93351143Y-71314720D01*
X93150162Y-71198685D01*
X93150154Y-71198681D01*
X93150152Y-71198680D01*
X92935730Y-71109863D01*
X92935731Y-71109863D01*
X92935728Y-71109862D01*
X92793603Y-71071780D01*
X92711549Y-71049794D01*
X92682786Y-71046007D01*
X92481452Y-71019500D01*
X92481445Y-71019500D01*
X92249355Y-71019500D01*
X92249347Y-71019500D01*
X92019251Y-71049794D01*
X91795071Y-71109862D01*
X91580654Y-71198677D01*
X91580637Y-71198685D01*
X91379656Y-71314720D01*
X91379654Y-71314721D01*
X91195524Y-71456009D01*
X91195517Y-71456015D01*
X91031415Y-71620117D01*
X91031409Y-71620124D01*
X90890121Y-71804254D01*
X90890120Y-71804256D01*
X90774085Y-72005237D01*
X90774077Y-72005254D01*
X90685262Y-72219671D01*
X90625194Y-72443851D01*
X90594900Y-72673947D01*
X88039899Y-72673947D01*
X88009606Y-72443851D01*
X87949537Y-72219670D01*
X87860720Y-72005248D01*
X87860714Y-72005237D01*
X87744679Y-71804256D01*
X87744678Y-71804254D01*
X87603390Y-71620124D01*
X87603384Y-71620117D01*
X87439282Y-71456015D01*
X87439275Y-71456009D01*
X87255145Y-71314721D01*
X87255143Y-71314720D01*
X87054162Y-71198685D01*
X87054154Y-71198681D01*
X87054152Y-71198680D01*
X86839730Y-71109863D01*
X86839731Y-71109863D01*
X86839728Y-71109862D01*
X86697603Y-71071780D01*
X86615549Y-71049794D01*
X86586786Y-71046007D01*
X86385452Y-71019500D01*
X86385445Y-71019500D01*
X86153355Y-71019500D01*
X86153347Y-71019500D01*
X85923251Y-71049794D01*
X85699071Y-71109862D01*
X85484654Y-71198677D01*
X85484637Y-71198685D01*
X85283656Y-71314720D01*
X85283654Y-71314721D01*
X85099524Y-71456009D01*
X85099517Y-71456015D01*
X84935415Y-71620117D01*
X84935409Y-71620124D01*
X84794121Y-71804254D01*
X84794120Y-71804256D01*
X84678085Y-72005237D01*
X84678077Y-72005254D01*
X84589262Y-72219671D01*
X84529194Y-72443851D01*
X84498900Y-72673947D01*
X83975395Y-72673947D01*
X83945116Y-72443959D01*
X83945113Y-72443946D01*
X83885063Y-72219832D01*
X83796275Y-72005478D01*
X83796267Y-72005461D01*
X83680263Y-71804538D01*
X83680257Y-71804530D01*
X83621281Y-71727671D01*
X82605400Y-72743552D01*
X82605400Y-72737339D01*
X82578141Y-72635606D01*
X82525480Y-72544394D01*
X82451006Y-72469920D01*
X82359794Y-72417259D01*
X82258061Y-72390000D01*
X82251847Y-72390000D01*
X83267727Y-71374117D01*
X83190869Y-71315142D01*
X83190861Y-71315136D01*
X82989938Y-71199132D01*
X82989921Y-71199124D01*
X82775567Y-71110336D01*
X82551453Y-71050286D01*
X82551440Y-71050283D01*
X82321422Y-71020001D01*
X82321405Y-71020000D01*
X82089395Y-71020000D01*
X82089377Y-71020001D01*
X81859359Y-71050283D01*
X81859346Y-71050286D01*
X81635232Y-71110336D01*
X81420878Y-71199124D01*
X81420861Y-71199132D01*
X81219941Y-71315134D01*
X81219933Y-71315140D01*
X81143071Y-71374116D01*
X81143071Y-71374117D01*
X82158954Y-72390000D01*
X82152739Y-72390000D01*
X82051006Y-72417259D01*
X81959794Y-72469920D01*
X81885320Y-72544394D01*
X81832659Y-72635606D01*
X81805400Y-72737339D01*
X81805400Y-72743553D01*
X80789517Y-71727671D01*
X80789516Y-71727671D01*
X80730540Y-71804533D01*
X80730534Y-71804541D01*
X80614532Y-72005461D01*
X80614524Y-72005478D01*
X80525736Y-72219832D01*
X80465686Y-72443946D01*
X80465683Y-72443959D01*
X80435401Y-72673977D01*
X80435400Y-72673994D01*
X74500500Y-72673994D01*
X74500500Y-68624500D01*
X74520185Y-68557461D01*
X74572989Y-68511706D01*
X74624500Y-68500500D01*
X145375500Y-68500500D01*
X145442539Y-68520185D01*
G37*
%TD.AperFunction*%
%TD*%
M02*
