%TF.GenerationSoftware,KiCad,Pcbnew,10.0.0*%
%TF.CreationDate,2026-08-21T11:49:24+05:30*%
%TF.ProjectId,new,6e65772e-6b69-4636-9164-5f7063625858,rev?*%
%TF.SameCoordinates,Original*%
%TF.FileFunction,Legend,Top*%
%TF.FilePolarity,Positive*%
%FSLAX46Y46*%
G04 Gerber Fmt 4.6, Leading zero omitted, Abs format (unit mm)*
G04 Created by KiCad (PCBNEW 10.0.0) date 2026-08-21 11:49:24*
%MOMM*%
%LPD*%
G01*
G04 APERTURE LIST*
%ADD10C,0.300000*%
%ADD11C,0.100000*%
%ADD12C,0.087500*%
%ADD13C,0.150000*%
%ADD14C,0.120000*%
G04 APERTURE END LIST*
D10*
X82483082Y-84729400D02*
X82697368Y-84800828D01*
X82697368Y-84800828D02*
X83054510Y-84800828D01*
X83054510Y-84800828D02*
X83197368Y-84729400D01*
X83197368Y-84729400D02*
X83268796Y-84657971D01*
X83268796Y-84657971D02*
X83340225Y-84515114D01*
X83340225Y-84515114D02*
X83340225Y-84372257D01*
X83340225Y-84372257D02*
X83268796Y-84229400D01*
X83268796Y-84229400D02*
X83197368Y-84157971D01*
X83197368Y-84157971D02*
X83054510Y-84086542D01*
X83054510Y-84086542D02*
X82768796Y-84015114D01*
X82768796Y-84015114D02*
X82625939Y-83943685D01*
X82625939Y-83943685D02*
X82554510Y-83872257D01*
X82554510Y-83872257D02*
X82483082Y-83729400D01*
X82483082Y-83729400D02*
X82483082Y-83586542D01*
X82483082Y-83586542D02*
X82554510Y-83443685D01*
X82554510Y-83443685D02*
X82625939Y-83372257D01*
X82625939Y-83372257D02*
X82768796Y-83300828D01*
X82768796Y-83300828D02*
X83125939Y-83300828D01*
X83125939Y-83300828D02*
X83340225Y-83372257D01*
X83911653Y-84729400D02*
X84125939Y-84800828D01*
X84125939Y-84800828D02*
X84483081Y-84800828D01*
X84483081Y-84800828D02*
X84625939Y-84729400D01*
X84625939Y-84729400D02*
X84697367Y-84657971D01*
X84697367Y-84657971D02*
X84768796Y-84515114D01*
X84768796Y-84515114D02*
X84768796Y-84372257D01*
X84768796Y-84372257D02*
X84697367Y-84229400D01*
X84697367Y-84229400D02*
X84625939Y-84157971D01*
X84625939Y-84157971D02*
X84483081Y-84086542D01*
X84483081Y-84086542D02*
X84197367Y-84015114D01*
X84197367Y-84015114D02*
X84054510Y-83943685D01*
X84054510Y-83943685D02*
X83983081Y-83872257D01*
X83983081Y-83872257D02*
X83911653Y-83729400D01*
X83911653Y-83729400D02*
X83911653Y-83586542D01*
X83911653Y-83586542D02*
X83983081Y-83443685D01*
X83983081Y-83443685D02*
X84054510Y-83372257D01*
X84054510Y-83372257D02*
X84197367Y-83300828D01*
X84197367Y-83300828D02*
X84554510Y-83300828D01*
X84554510Y-83300828D02*
X84768796Y-83372257D01*
X85411652Y-84800828D02*
X85411652Y-83300828D01*
X85411652Y-83300828D02*
X85768795Y-83300828D01*
X85768795Y-83300828D02*
X85983081Y-83372257D01*
X85983081Y-83372257D02*
X86125938Y-83515114D01*
X86125938Y-83515114D02*
X86197367Y-83657971D01*
X86197367Y-83657971D02*
X86268795Y-83943685D01*
X86268795Y-83943685D02*
X86268795Y-84157971D01*
X86268795Y-84157971D02*
X86197367Y-84443685D01*
X86197367Y-84443685D02*
X86125938Y-84586542D01*
X86125938Y-84586542D02*
X85983081Y-84729400D01*
X85983081Y-84729400D02*
X85768795Y-84800828D01*
X85768795Y-84800828D02*
X85411652Y-84800828D01*
X87697367Y-84800828D02*
X86840224Y-84800828D01*
X87268795Y-84800828D02*
X87268795Y-83300828D01*
X87268795Y-83300828D02*
X87125938Y-83515114D01*
X87125938Y-83515114D02*
X86983081Y-83657971D01*
X86983081Y-83657971D02*
X86840224Y-83729400D01*
X88197366Y-83300828D02*
X89125938Y-83300828D01*
X89125938Y-83300828D02*
X88625938Y-83872257D01*
X88625938Y-83872257D02*
X88840223Y-83872257D01*
X88840223Y-83872257D02*
X88983081Y-83943685D01*
X88983081Y-83943685D02*
X89054509Y-84015114D01*
X89054509Y-84015114D02*
X89125938Y-84157971D01*
X89125938Y-84157971D02*
X89125938Y-84515114D01*
X89125938Y-84515114D02*
X89054509Y-84657971D01*
X89054509Y-84657971D02*
X88983081Y-84729400D01*
X88983081Y-84729400D02*
X88840223Y-84800828D01*
X88840223Y-84800828D02*
X88411652Y-84800828D01*
X88411652Y-84800828D02*
X88268795Y-84729400D01*
X88268795Y-84729400D02*
X88197366Y-84657971D01*
X90054509Y-83300828D02*
X90197366Y-83300828D01*
X90197366Y-83300828D02*
X90340223Y-83372257D01*
X90340223Y-83372257D02*
X90411652Y-83443685D01*
X90411652Y-83443685D02*
X90483080Y-83586542D01*
X90483080Y-83586542D02*
X90554509Y-83872257D01*
X90554509Y-83872257D02*
X90554509Y-84229400D01*
X90554509Y-84229400D02*
X90483080Y-84515114D01*
X90483080Y-84515114D02*
X90411652Y-84657971D01*
X90411652Y-84657971D02*
X90340223Y-84729400D01*
X90340223Y-84729400D02*
X90197366Y-84800828D01*
X90197366Y-84800828D02*
X90054509Y-84800828D01*
X90054509Y-84800828D02*
X89911652Y-84729400D01*
X89911652Y-84729400D02*
X89840223Y-84657971D01*
X89840223Y-84657971D02*
X89768794Y-84515114D01*
X89768794Y-84515114D02*
X89697366Y-84229400D01*
X89697366Y-84229400D02*
X89697366Y-83872257D01*
X89697366Y-83872257D02*
X89768794Y-83586542D01*
X89768794Y-83586542D02*
X89840223Y-83443685D01*
X89840223Y-83443685D02*
X89911652Y-83372257D01*
X89911652Y-83372257D02*
X90054509Y-83300828D01*
X91840223Y-83300828D02*
X91554508Y-83300828D01*
X91554508Y-83300828D02*
X91411651Y-83372257D01*
X91411651Y-83372257D02*
X91340223Y-83443685D01*
X91340223Y-83443685D02*
X91197365Y-83657971D01*
X91197365Y-83657971D02*
X91125937Y-83943685D01*
X91125937Y-83943685D02*
X91125937Y-84515114D01*
X91125937Y-84515114D02*
X91197365Y-84657971D01*
X91197365Y-84657971D02*
X91268794Y-84729400D01*
X91268794Y-84729400D02*
X91411651Y-84800828D01*
X91411651Y-84800828D02*
X91697365Y-84800828D01*
X91697365Y-84800828D02*
X91840223Y-84729400D01*
X91840223Y-84729400D02*
X91911651Y-84657971D01*
X91911651Y-84657971D02*
X91983080Y-84515114D01*
X91983080Y-84515114D02*
X91983080Y-84157971D01*
X91983080Y-84157971D02*
X91911651Y-84015114D01*
X91911651Y-84015114D02*
X91840223Y-83943685D01*
X91840223Y-83943685D02*
X91697365Y-83872257D01*
X91697365Y-83872257D02*
X91411651Y-83872257D01*
X91411651Y-83872257D02*
X91268794Y-83943685D01*
X91268794Y-83943685D02*
X91197365Y-84015114D01*
X91197365Y-84015114D02*
X91125937Y-84157971D01*
X92911651Y-83300828D02*
X93197365Y-83300828D01*
X93197365Y-83300828D02*
X93340222Y-83372257D01*
X93340222Y-83372257D02*
X93483079Y-83515114D01*
X93483079Y-83515114D02*
X93554508Y-83800828D01*
X93554508Y-83800828D02*
X93554508Y-84300828D01*
X93554508Y-84300828D02*
X93483079Y-84586542D01*
X93483079Y-84586542D02*
X93340222Y-84729400D01*
X93340222Y-84729400D02*
X93197365Y-84800828D01*
X93197365Y-84800828D02*
X92911651Y-84800828D01*
X92911651Y-84800828D02*
X92768794Y-84729400D01*
X92768794Y-84729400D02*
X92625936Y-84586542D01*
X92625936Y-84586542D02*
X92554508Y-84300828D01*
X92554508Y-84300828D02*
X92554508Y-83800828D01*
X92554508Y-83800828D02*
X92625936Y-83515114D01*
X92625936Y-83515114D02*
X92768794Y-83372257D01*
X92768794Y-83372257D02*
X92911651Y-83300828D01*
X94911651Y-84800828D02*
X94197365Y-84800828D01*
X94197365Y-84800828D02*
X94197365Y-83300828D01*
X95411651Y-84015114D02*
X95911651Y-84015114D01*
X96125937Y-84800828D02*
X95411651Y-84800828D01*
X95411651Y-84800828D02*
X95411651Y-83300828D01*
X95411651Y-83300828D02*
X96125937Y-83300828D01*
X96768794Y-84800828D02*
X96768794Y-83300828D01*
X96768794Y-83300828D02*
X97125937Y-83300828D01*
X97125937Y-83300828D02*
X97340223Y-83372257D01*
X97340223Y-83372257D02*
X97483080Y-83515114D01*
X97483080Y-83515114D02*
X97554509Y-83657971D01*
X97554509Y-83657971D02*
X97625937Y-83943685D01*
X97625937Y-83943685D02*
X97625937Y-84157971D01*
X97625937Y-84157971D02*
X97554509Y-84443685D01*
X97554509Y-84443685D02*
X97483080Y-84586542D01*
X97483080Y-84586542D02*
X97340223Y-84729400D01*
X97340223Y-84729400D02*
X97125937Y-84800828D01*
X97125937Y-84800828D02*
X96768794Y-84800828D01*
D11*
X86768095Y-114917419D02*
X86768095Y-115726942D01*
X86768095Y-115726942D02*
X86815714Y-115822180D01*
X86815714Y-115822180D02*
X86863333Y-115869800D01*
X86863333Y-115869800D02*
X86958571Y-115917419D01*
X86958571Y-115917419D02*
X87149047Y-115917419D01*
X87149047Y-115917419D02*
X87244285Y-115869800D01*
X87244285Y-115869800D02*
X87291904Y-115822180D01*
X87291904Y-115822180D02*
X87339523Y-115726942D01*
X87339523Y-115726942D02*
X87339523Y-114917419D01*
X88339523Y-115917419D02*
X87768095Y-115917419D01*
X88053809Y-115917419D02*
X88053809Y-114917419D01*
X88053809Y-114917419D02*
X87958571Y-115060276D01*
X87958571Y-115060276D02*
X87863333Y-115155514D01*
X87863333Y-115155514D02*
X87768095Y-115203133D01*
D12*
X87947783Y-103145368D02*
X87247783Y-103145368D01*
X87947783Y-102812035D02*
X87247783Y-102812035D01*
X87247783Y-102812035D02*
X87947783Y-102412035D01*
X87947783Y-102412035D02*
X87247783Y-102412035D01*
X87247783Y-102178702D02*
X87247783Y-101778702D01*
X87947783Y-101978702D02*
X87247783Y-101978702D01*
X84866450Y-103432701D02*
X84899783Y-103332701D01*
X84899783Y-103332701D02*
X84899783Y-103166035D01*
X84899783Y-103166035D02*
X84866450Y-103099368D01*
X84866450Y-103099368D02*
X84833116Y-103066035D01*
X84833116Y-103066035D02*
X84766450Y-103032701D01*
X84766450Y-103032701D02*
X84699783Y-103032701D01*
X84699783Y-103032701D02*
X84633116Y-103066035D01*
X84633116Y-103066035D02*
X84599783Y-103099368D01*
X84599783Y-103099368D02*
X84566450Y-103166035D01*
X84566450Y-103166035D02*
X84533116Y-103299368D01*
X84533116Y-103299368D02*
X84499783Y-103366035D01*
X84499783Y-103366035D02*
X84466450Y-103399368D01*
X84466450Y-103399368D02*
X84399783Y-103432701D01*
X84399783Y-103432701D02*
X84333116Y-103432701D01*
X84333116Y-103432701D02*
X84266450Y-103399368D01*
X84266450Y-103399368D02*
X84233116Y-103366035D01*
X84233116Y-103366035D02*
X84199783Y-103299368D01*
X84199783Y-103299368D02*
X84199783Y-103132701D01*
X84199783Y-103132701D02*
X84233116Y-103032701D01*
X84899783Y-102732701D02*
X84199783Y-102732701D01*
X84199783Y-102732701D02*
X84199783Y-102566034D01*
X84199783Y-102566034D02*
X84233116Y-102466034D01*
X84233116Y-102466034D02*
X84299783Y-102399368D01*
X84299783Y-102399368D02*
X84366450Y-102366034D01*
X84366450Y-102366034D02*
X84499783Y-102332701D01*
X84499783Y-102332701D02*
X84599783Y-102332701D01*
X84599783Y-102332701D02*
X84733116Y-102366034D01*
X84733116Y-102366034D02*
X84799783Y-102399368D01*
X84799783Y-102399368D02*
X84866450Y-102466034D01*
X84866450Y-102466034D02*
X84899783Y-102566034D01*
X84899783Y-102566034D02*
X84899783Y-102732701D01*
X84699783Y-102066034D02*
X84699783Y-101732701D01*
X84899783Y-102132701D02*
X84199783Y-101899368D01*
X84199783Y-101899368D02*
X84899783Y-101666034D01*
X82246450Y-103178701D02*
X82279783Y-103078701D01*
X82279783Y-103078701D02*
X82279783Y-102912035D01*
X82279783Y-102912035D02*
X82246450Y-102845368D01*
X82246450Y-102845368D02*
X82213116Y-102812035D01*
X82213116Y-102812035D02*
X82146450Y-102778701D01*
X82146450Y-102778701D02*
X82079783Y-102778701D01*
X82079783Y-102778701D02*
X82013116Y-102812035D01*
X82013116Y-102812035D02*
X81979783Y-102845368D01*
X81979783Y-102845368D02*
X81946450Y-102912035D01*
X81946450Y-102912035D02*
X81913116Y-103045368D01*
X81913116Y-103045368D02*
X81879783Y-103112035D01*
X81879783Y-103112035D02*
X81846450Y-103145368D01*
X81846450Y-103145368D02*
X81779783Y-103178701D01*
X81779783Y-103178701D02*
X81713116Y-103178701D01*
X81713116Y-103178701D02*
X81646450Y-103145368D01*
X81646450Y-103145368D02*
X81613116Y-103112035D01*
X81613116Y-103112035D02*
X81579783Y-103045368D01*
X81579783Y-103045368D02*
X81579783Y-102878701D01*
X81579783Y-102878701D02*
X81613116Y-102778701D01*
X82213116Y-102078701D02*
X82246450Y-102112034D01*
X82246450Y-102112034D02*
X82279783Y-102212034D01*
X82279783Y-102212034D02*
X82279783Y-102278701D01*
X82279783Y-102278701D02*
X82246450Y-102378701D01*
X82246450Y-102378701D02*
X82179783Y-102445368D01*
X82179783Y-102445368D02*
X82113116Y-102478701D01*
X82113116Y-102478701D02*
X81979783Y-102512034D01*
X81979783Y-102512034D02*
X81879783Y-102512034D01*
X81879783Y-102512034D02*
X81746450Y-102478701D01*
X81746450Y-102478701D02*
X81679783Y-102445368D01*
X81679783Y-102445368D02*
X81613116Y-102378701D01*
X81613116Y-102378701D02*
X81579783Y-102278701D01*
X81579783Y-102278701D02*
X81579783Y-102212034D01*
X81579783Y-102212034D02*
X81613116Y-102112034D01*
X81613116Y-102112034D02*
X81646450Y-102078701D01*
X82279783Y-101445368D02*
X82279783Y-101778701D01*
X82279783Y-101778701D02*
X81579783Y-101778701D01*
X78949916Y-103032701D02*
X78916583Y-103099368D01*
X78916583Y-103099368D02*
X78916583Y-103199368D01*
X78916583Y-103199368D02*
X78949916Y-103299368D01*
X78949916Y-103299368D02*
X79016583Y-103366035D01*
X79016583Y-103366035D02*
X79083250Y-103399368D01*
X79083250Y-103399368D02*
X79216583Y-103432701D01*
X79216583Y-103432701D02*
X79316583Y-103432701D01*
X79316583Y-103432701D02*
X79449916Y-103399368D01*
X79449916Y-103399368D02*
X79516583Y-103366035D01*
X79516583Y-103366035D02*
X79583250Y-103299368D01*
X79583250Y-103299368D02*
X79616583Y-103199368D01*
X79616583Y-103199368D02*
X79616583Y-103132701D01*
X79616583Y-103132701D02*
X79583250Y-103032701D01*
X79583250Y-103032701D02*
X79549916Y-102999368D01*
X79549916Y-102999368D02*
X79316583Y-102999368D01*
X79316583Y-102999368D02*
X79316583Y-103132701D01*
X79616583Y-102699368D02*
X78916583Y-102699368D01*
X78916583Y-102699368D02*
X79616583Y-102299368D01*
X79616583Y-102299368D02*
X78916583Y-102299368D01*
X79616583Y-101966035D02*
X78916583Y-101966035D01*
X78916583Y-101966035D02*
X78916583Y-101799368D01*
X78916583Y-101799368D02*
X78949916Y-101699368D01*
X78949916Y-101699368D02*
X79016583Y-101632702D01*
X79016583Y-101632702D02*
X79083250Y-101599368D01*
X79083250Y-101599368D02*
X79216583Y-101566035D01*
X79216583Y-101566035D02*
X79316583Y-101566035D01*
X79316583Y-101566035D02*
X79449916Y-101599368D01*
X79449916Y-101599368D02*
X79516583Y-101632702D01*
X79516583Y-101632702D02*
X79583250Y-101699368D01*
X79583250Y-101699368D02*
X79616583Y-101799368D01*
X79616583Y-101799368D02*
X79616583Y-101966035D01*
X75970183Y-103550168D02*
X76670183Y-103316835D01*
X76670183Y-103316835D02*
X75970183Y-103083501D01*
X76603516Y-102450168D02*
X76636850Y-102483501D01*
X76636850Y-102483501D02*
X76670183Y-102583501D01*
X76670183Y-102583501D02*
X76670183Y-102650168D01*
X76670183Y-102650168D02*
X76636850Y-102750168D01*
X76636850Y-102750168D02*
X76570183Y-102816835D01*
X76570183Y-102816835D02*
X76503516Y-102850168D01*
X76503516Y-102850168D02*
X76370183Y-102883501D01*
X76370183Y-102883501D02*
X76270183Y-102883501D01*
X76270183Y-102883501D02*
X76136850Y-102850168D01*
X76136850Y-102850168D02*
X76070183Y-102816835D01*
X76070183Y-102816835D02*
X76003516Y-102750168D01*
X76003516Y-102750168D02*
X75970183Y-102650168D01*
X75970183Y-102650168D02*
X75970183Y-102583501D01*
X75970183Y-102583501D02*
X76003516Y-102483501D01*
X76003516Y-102483501D02*
X76036850Y-102450168D01*
X76603516Y-101750168D02*
X76636850Y-101783501D01*
X76636850Y-101783501D02*
X76670183Y-101883501D01*
X76670183Y-101883501D02*
X76670183Y-101950168D01*
X76670183Y-101950168D02*
X76636850Y-102050168D01*
X76636850Y-102050168D02*
X76570183Y-102116835D01*
X76570183Y-102116835D02*
X76503516Y-102150168D01*
X76503516Y-102150168D02*
X76370183Y-102183501D01*
X76370183Y-102183501D02*
X76270183Y-102183501D01*
X76270183Y-102183501D02*
X76136850Y-102150168D01*
X76136850Y-102150168D02*
X76070183Y-102116835D01*
X76070183Y-102116835D02*
X76003516Y-102050168D01*
X76003516Y-102050168D02*
X75970183Y-101950168D01*
X75970183Y-101950168D02*
X75970183Y-101883501D01*
X75970183Y-101883501D02*
X76003516Y-101783501D01*
X76003516Y-101783501D02*
X76036850Y-101750168D01*
D13*
X130854819Y-107786666D02*
X130378628Y-108119999D01*
X130854819Y-108358094D02*
X129854819Y-108358094D01*
X129854819Y-108358094D02*
X129854819Y-107977142D01*
X129854819Y-107977142D02*
X129902438Y-107881904D01*
X129902438Y-107881904D02*
X129950057Y-107834285D01*
X129950057Y-107834285D02*
X130045295Y-107786666D01*
X130045295Y-107786666D02*
X130188152Y-107786666D01*
X130188152Y-107786666D02*
X130283390Y-107834285D01*
X130283390Y-107834285D02*
X130331009Y-107881904D01*
X130331009Y-107881904D02*
X130378628Y-107977142D01*
X130378628Y-107977142D02*
X130378628Y-108358094D01*
X130854819Y-106834285D02*
X130854819Y-107405713D01*
X130854819Y-107119999D02*
X129854819Y-107119999D01*
X129854819Y-107119999D02*
X129997676Y-107215237D01*
X129997676Y-107215237D02*
X130092914Y-107310475D01*
X130092914Y-107310475D02*
X130140533Y-107405713D01*
X134877200Y-109203332D02*
X134924819Y-109060475D01*
X134924819Y-109060475D02*
X134924819Y-108822380D01*
X134924819Y-108822380D02*
X134877200Y-108727142D01*
X134877200Y-108727142D02*
X134829580Y-108679523D01*
X134829580Y-108679523D02*
X134734342Y-108631904D01*
X134734342Y-108631904D02*
X134639104Y-108631904D01*
X134639104Y-108631904D02*
X134543866Y-108679523D01*
X134543866Y-108679523D02*
X134496247Y-108727142D01*
X134496247Y-108727142D02*
X134448628Y-108822380D01*
X134448628Y-108822380D02*
X134401009Y-109012856D01*
X134401009Y-109012856D02*
X134353390Y-109108094D01*
X134353390Y-109108094D02*
X134305771Y-109155713D01*
X134305771Y-109155713D02*
X134210533Y-109203332D01*
X134210533Y-109203332D02*
X134115295Y-109203332D01*
X134115295Y-109203332D02*
X134020057Y-109155713D01*
X134020057Y-109155713D02*
X133972438Y-109108094D01*
X133972438Y-109108094D02*
X133924819Y-109012856D01*
X133924819Y-109012856D02*
X133924819Y-108774761D01*
X133924819Y-108774761D02*
X133972438Y-108631904D01*
X133924819Y-108298570D02*
X134924819Y-108060475D01*
X134924819Y-108060475D02*
X134210533Y-107869999D01*
X134210533Y-107869999D02*
X134924819Y-107679523D01*
X134924819Y-107679523D02*
X133924819Y-107441428D01*
X134924819Y-106536666D02*
X134924819Y-107108094D01*
X134924819Y-106822380D02*
X133924819Y-106822380D01*
X133924819Y-106822380D02*
X134067676Y-106917618D01*
X134067676Y-106917618D02*
X134162914Y-107012856D01*
X134162914Y-107012856D02*
X134210533Y-107108094D01*
X134777200Y-87243332D02*
X134824819Y-87100475D01*
X134824819Y-87100475D02*
X134824819Y-86862380D01*
X134824819Y-86862380D02*
X134777200Y-86767142D01*
X134777200Y-86767142D02*
X134729580Y-86719523D01*
X134729580Y-86719523D02*
X134634342Y-86671904D01*
X134634342Y-86671904D02*
X134539104Y-86671904D01*
X134539104Y-86671904D02*
X134443866Y-86719523D01*
X134443866Y-86719523D02*
X134396247Y-86767142D01*
X134396247Y-86767142D02*
X134348628Y-86862380D01*
X134348628Y-86862380D02*
X134301009Y-87052856D01*
X134301009Y-87052856D02*
X134253390Y-87148094D01*
X134253390Y-87148094D02*
X134205771Y-87195713D01*
X134205771Y-87195713D02*
X134110533Y-87243332D01*
X134110533Y-87243332D02*
X134015295Y-87243332D01*
X134015295Y-87243332D02*
X133920057Y-87195713D01*
X133920057Y-87195713D02*
X133872438Y-87148094D01*
X133872438Y-87148094D02*
X133824819Y-87052856D01*
X133824819Y-87052856D02*
X133824819Y-86814761D01*
X133824819Y-86814761D02*
X133872438Y-86671904D01*
X133824819Y-86338570D02*
X134824819Y-86100475D01*
X134824819Y-86100475D02*
X134110533Y-85909999D01*
X134110533Y-85909999D02*
X134824819Y-85719523D01*
X134824819Y-85719523D02*
X133824819Y-85481428D01*
X133824819Y-85195713D02*
X133824819Y-84576666D01*
X133824819Y-84576666D02*
X134205771Y-84909999D01*
X134205771Y-84909999D02*
X134205771Y-84767142D01*
X134205771Y-84767142D02*
X134253390Y-84671904D01*
X134253390Y-84671904D02*
X134301009Y-84624285D01*
X134301009Y-84624285D02*
X134396247Y-84576666D01*
X134396247Y-84576666D02*
X134634342Y-84576666D01*
X134634342Y-84576666D02*
X134729580Y-84624285D01*
X134729580Y-84624285D02*
X134777200Y-84671904D01*
X134777200Y-84671904D02*
X134824819Y-84767142D01*
X134824819Y-84767142D02*
X134824819Y-85052856D01*
X134824819Y-85052856D02*
X134777200Y-85148094D01*
X134777200Y-85148094D02*
X134729580Y-85195713D01*
X134777200Y-98533332D02*
X134824819Y-98390475D01*
X134824819Y-98390475D02*
X134824819Y-98152380D01*
X134824819Y-98152380D02*
X134777200Y-98057142D01*
X134777200Y-98057142D02*
X134729580Y-98009523D01*
X134729580Y-98009523D02*
X134634342Y-97961904D01*
X134634342Y-97961904D02*
X134539104Y-97961904D01*
X134539104Y-97961904D02*
X134443866Y-98009523D01*
X134443866Y-98009523D02*
X134396247Y-98057142D01*
X134396247Y-98057142D02*
X134348628Y-98152380D01*
X134348628Y-98152380D02*
X134301009Y-98342856D01*
X134301009Y-98342856D02*
X134253390Y-98438094D01*
X134253390Y-98438094D02*
X134205771Y-98485713D01*
X134205771Y-98485713D02*
X134110533Y-98533332D01*
X134110533Y-98533332D02*
X134015295Y-98533332D01*
X134015295Y-98533332D02*
X133920057Y-98485713D01*
X133920057Y-98485713D02*
X133872438Y-98438094D01*
X133872438Y-98438094D02*
X133824819Y-98342856D01*
X133824819Y-98342856D02*
X133824819Y-98104761D01*
X133824819Y-98104761D02*
X133872438Y-97961904D01*
X133824819Y-97628570D02*
X134824819Y-97390475D01*
X134824819Y-97390475D02*
X134110533Y-97199999D01*
X134110533Y-97199999D02*
X134824819Y-97009523D01*
X134824819Y-97009523D02*
X133824819Y-96771428D01*
X133920057Y-96438094D02*
X133872438Y-96390475D01*
X133872438Y-96390475D02*
X133824819Y-96295237D01*
X133824819Y-96295237D02*
X133824819Y-96057142D01*
X133824819Y-96057142D02*
X133872438Y-95961904D01*
X133872438Y-95961904D02*
X133920057Y-95914285D01*
X133920057Y-95914285D02*
X134015295Y-95866666D01*
X134015295Y-95866666D02*
X134110533Y-95866666D01*
X134110533Y-95866666D02*
X134253390Y-95914285D01*
X134253390Y-95914285D02*
X134824819Y-96485713D01*
X134824819Y-96485713D02*
X134824819Y-95866666D01*
X125854819Y-75806666D02*
X125378628Y-76139999D01*
X125854819Y-76378094D02*
X124854819Y-76378094D01*
X124854819Y-76378094D02*
X124854819Y-75997142D01*
X124854819Y-75997142D02*
X124902438Y-75901904D01*
X124902438Y-75901904D02*
X124950057Y-75854285D01*
X124950057Y-75854285D02*
X125045295Y-75806666D01*
X125045295Y-75806666D02*
X125188152Y-75806666D01*
X125188152Y-75806666D02*
X125283390Y-75854285D01*
X125283390Y-75854285D02*
X125331009Y-75901904D01*
X125331009Y-75901904D02*
X125378628Y-75997142D01*
X125378628Y-75997142D02*
X125378628Y-76378094D01*
X125188152Y-74949523D02*
X125854819Y-74949523D01*
X124807200Y-75187618D02*
X125521485Y-75425713D01*
X125521485Y-75425713D02*
X125521485Y-74806666D01*
X130594819Y-85976666D02*
X130118628Y-86309999D01*
X130594819Y-86548094D02*
X129594819Y-86548094D01*
X129594819Y-86548094D02*
X129594819Y-86167142D01*
X129594819Y-86167142D02*
X129642438Y-86071904D01*
X129642438Y-86071904D02*
X129690057Y-86024285D01*
X129690057Y-86024285D02*
X129785295Y-85976666D01*
X129785295Y-85976666D02*
X129928152Y-85976666D01*
X129928152Y-85976666D02*
X130023390Y-86024285D01*
X130023390Y-86024285D02*
X130071009Y-86071904D01*
X130071009Y-86071904D02*
X130118628Y-86167142D01*
X130118628Y-86167142D02*
X130118628Y-86548094D01*
X129594819Y-85643332D02*
X129594819Y-85024285D01*
X129594819Y-85024285D02*
X129975771Y-85357618D01*
X129975771Y-85357618D02*
X129975771Y-85214761D01*
X129975771Y-85214761D02*
X130023390Y-85119523D01*
X130023390Y-85119523D02*
X130071009Y-85071904D01*
X130071009Y-85071904D02*
X130166247Y-85024285D01*
X130166247Y-85024285D02*
X130404342Y-85024285D01*
X130404342Y-85024285D02*
X130499580Y-85071904D01*
X130499580Y-85071904D02*
X130547200Y-85119523D01*
X130547200Y-85119523D02*
X130594819Y-85214761D01*
X130594819Y-85214761D02*
X130594819Y-85500475D01*
X130594819Y-85500475D02*
X130547200Y-85595713D01*
X130547200Y-85595713D02*
X130499580Y-85643332D01*
X130594819Y-97096666D02*
X130118628Y-97429999D01*
X130594819Y-97668094D02*
X129594819Y-97668094D01*
X129594819Y-97668094D02*
X129594819Y-97287142D01*
X129594819Y-97287142D02*
X129642438Y-97191904D01*
X129642438Y-97191904D02*
X129690057Y-97144285D01*
X129690057Y-97144285D02*
X129785295Y-97096666D01*
X129785295Y-97096666D02*
X129928152Y-97096666D01*
X129928152Y-97096666D02*
X130023390Y-97144285D01*
X130023390Y-97144285D02*
X130071009Y-97191904D01*
X130071009Y-97191904D02*
X130118628Y-97287142D01*
X130118628Y-97287142D02*
X130118628Y-97668094D01*
X129690057Y-96715713D02*
X129642438Y-96668094D01*
X129642438Y-96668094D02*
X129594819Y-96572856D01*
X129594819Y-96572856D02*
X129594819Y-96334761D01*
X129594819Y-96334761D02*
X129642438Y-96239523D01*
X129642438Y-96239523D02*
X129690057Y-96191904D01*
X129690057Y-96191904D02*
X129785295Y-96144285D01*
X129785295Y-96144285D02*
X129880533Y-96144285D01*
X129880533Y-96144285D02*
X130023390Y-96191904D01*
X130023390Y-96191904D02*
X130594819Y-96763332D01*
X130594819Y-96763332D02*
X130594819Y-96144285D01*
X132341905Y-70744819D02*
X132341905Y-69744819D01*
X132341905Y-69744819D02*
X132580000Y-69744819D01*
X132580000Y-69744819D02*
X132722857Y-69792438D01*
X132722857Y-69792438D02*
X132818095Y-69887676D01*
X132818095Y-69887676D02*
X132865714Y-69982914D01*
X132865714Y-69982914D02*
X132913333Y-70173390D01*
X132913333Y-70173390D02*
X132913333Y-70316247D01*
X132913333Y-70316247D02*
X132865714Y-70506723D01*
X132865714Y-70506723D02*
X132818095Y-70601961D01*
X132818095Y-70601961D02*
X132722857Y-70697200D01*
X132722857Y-70697200D02*
X132580000Y-70744819D01*
X132580000Y-70744819D02*
X132341905Y-70744819D01*
X133865714Y-70744819D02*
X133294286Y-70744819D01*
X133580000Y-70744819D02*
X133580000Y-69744819D01*
X133580000Y-69744819D02*
X133484762Y-69887676D01*
X133484762Y-69887676D02*
X133389524Y-69982914D01*
X133389524Y-69982914D02*
X133294286Y-70030533D01*
X125179580Y-86276666D02*
X125227200Y-86324285D01*
X125227200Y-86324285D02*
X125274819Y-86467142D01*
X125274819Y-86467142D02*
X125274819Y-86562380D01*
X125274819Y-86562380D02*
X125227200Y-86705237D01*
X125227200Y-86705237D02*
X125131961Y-86800475D01*
X125131961Y-86800475D02*
X125036723Y-86848094D01*
X125036723Y-86848094D02*
X124846247Y-86895713D01*
X124846247Y-86895713D02*
X124703390Y-86895713D01*
X124703390Y-86895713D02*
X124512914Y-86848094D01*
X124512914Y-86848094D02*
X124417676Y-86800475D01*
X124417676Y-86800475D02*
X124322438Y-86705237D01*
X124322438Y-86705237D02*
X124274819Y-86562380D01*
X124274819Y-86562380D02*
X124274819Y-86467142D01*
X124274819Y-86467142D02*
X124322438Y-86324285D01*
X124322438Y-86324285D02*
X124370057Y-86276666D01*
X124274819Y-85943332D02*
X124274819Y-85324285D01*
X124274819Y-85324285D02*
X124655771Y-85657618D01*
X124655771Y-85657618D02*
X124655771Y-85514761D01*
X124655771Y-85514761D02*
X124703390Y-85419523D01*
X124703390Y-85419523D02*
X124751009Y-85371904D01*
X124751009Y-85371904D02*
X124846247Y-85324285D01*
X124846247Y-85324285D02*
X125084342Y-85324285D01*
X125084342Y-85324285D02*
X125179580Y-85371904D01*
X125179580Y-85371904D02*
X125227200Y-85419523D01*
X125227200Y-85419523D02*
X125274819Y-85514761D01*
X125274819Y-85514761D02*
X125274819Y-85800475D01*
X125274819Y-85800475D02*
X125227200Y-85895713D01*
X125227200Y-85895713D02*
X125179580Y-85943332D01*
X125389580Y-96996666D02*
X125437200Y-97044285D01*
X125437200Y-97044285D02*
X125484819Y-97187142D01*
X125484819Y-97187142D02*
X125484819Y-97282380D01*
X125484819Y-97282380D02*
X125437200Y-97425237D01*
X125437200Y-97425237D02*
X125341961Y-97520475D01*
X125341961Y-97520475D02*
X125246723Y-97568094D01*
X125246723Y-97568094D02*
X125056247Y-97615713D01*
X125056247Y-97615713D02*
X124913390Y-97615713D01*
X124913390Y-97615713D02*
X124722914Y-97568094D01*
X124722914Y-97568094D02*
X124627676Y-97520475D01*
X124627676Y-97520475D02*
X124532438Y-97425237D01*
X124532438Y-97425237D02*
X124484819Y-97282380D01*
X124484819Y-97282380D02*
X124484819Y-97187142D01*
X124484819Y-97187142D02*
X124532438Y-97044285D01*
X124532438Y-97044285D02*
X124580057Y-96996666D01*
X124580057Y-96615713D02*
X124532438Y-96568094D01*
X124532438Y-96568094D02*
X124484819Y-96472856D01*
X124484819Y-96472856D02*
X124484819Y-96234761D01*
X124484819Y-96234761D02*
X124532438Y-96139523D01*
X124532438Y-96139523D02*
X124580057Y-96091904D01*
X124580057Y-96091904D02*
X124675295Y-96044285D01*
X124675295Y-96044285D02*
X124770533Y-96044285D01*
X124770533Y-96044285D02*
X124913390Y-96091904D01*
X124913390Y-96091904D02*
X125484819Y-96663332D01*
X125484819Y-96663332D02*
X125484819Y-96044285D01*
X125229580Y-108246666D02*
X125277200Y-108294285D01*
X125277200Y-108294285D02*
X125324819Y-108437142D01*
X125324819Y-108437142D02*
X125324819Y-108532380D01*
X125324819Y-108532380D02*
X125277200Y-108675237D01*
X125277200Y-108675237D02*
X125181961Y-108770475D01*
X125181961Y-108770475D02*
X125086723Y-108818094D01*
X125086723Y-108818094D02*
X124896247Y-108865713D01*
X124896247Y-108865713D02*
X124753390Y-108865713D01*
X124753390Y-108865713D02*
X124562914Y-108818094D01*
X124562914Y-108818094D02*
X124467676Y-108770475D01*
X124467676Y-108770475D02*
X124372438Y-108675237D01*
X124372438Y-108675237D02*
X124324819Y-108532380D01*
X124324819Y-108532380D02*
X124324819Y-108437142D01*
X124324819Y-108437142D02*
X124372438Y-108294285D01*
X124372438Y-108294285D02*
X124420057Y-108246666D01*
X125324819Y-107294285D02*
X125324819Y-107865713D01*
X125324819Y-107579999D02*
X124324819Y-107579999D01*
X124324819Y-107579999D02*
X124467676Y-107675237D01*
X124467676Y-107675237D02*
X124562914Y-107770475D01*
X124562914Y-107770475D02*
X124610533Y-107865713D01*
X113175714Y-116219104D02*
X113651904Y-116219104D01*
X113080476Y-116504819D02*
X113413809Y-115504819D01*
X113413809Y-115504819D02*
X113747142Y-116504819D01*
X114604285Y-116504819D02*
X114032857Y-116504819D01*
X114318571Y-116504819D02*
X114318571Y-115504819D01*
X114318571Y-115504819D02*
X114223333Y-115647676D01*
X114223333Y-115647676D02*
X114128095Y-115742914D01*
X114128095Y-115742914D02*
X114032857Y-115790533D01*
X115151904Y-75955180D02*
X115151904Y-75145657D01*
X115151904Y-75145657D02*
X115104285Y-75050419D01*
X115104285Y-75050419D02*
X115056666Y-75002800D01*
X115056666Y-75002800D02*
X114961428Y-74955180D01*
X114961428Y-74955180D02*
X114770952Y-74955180D01*
X114770952Y-74955180D02*
X114675714Y-75002800D01*
X114675714Y-75002800D02*
X114628095Y-75050419D01*
X114628095Y-75050419D02*
X114580476Y-75145657D01*
X114580476Y-75145657D02*
X114580476Y-75955180D01*
X114151904Y-75002800D02*
X114009047Y-74955180D01*
X114009047Y-74955180D02*
X113770952Y-74955180D01*
X113770952Y-74955180D02*
X113675714Y-75002800D01*
X113675714Y-75002800D02*
X113628095Y-75050419D01*
X113628095Y-75050419D02*
X113580476Y-75145657D01*
X113580476Y-75145657D02*
X113580476Y-75240895D01*
X113580476Y-75240895D02*
X113628095Y-75336133D01*
X113628095Y-75336133D02*
X113675714Y-75383752D01*
X113675714Y-75383752D02*
X113770952Y-75431371D01*
X113770952Y-75431371D02*
X113961428Y-75478990D01*
X113961428Y-75478990D02*
X114056666Y-75526609D01*
X114056666Y-75526609D02*
X114104285Y-75574228D01*
X114104285Y-75574228D02*
X114151904Y-75669466D01*
X114151904Y-75669466D02*
X114151904Y-75764704D01*
X114151904Y-75764704D02*
X114104285Y-75859942D01*
X114104285Y-75859942D02*
X114056666Y-75907561D01*
X114056666Y-75907561D02*
X113961428Y-75955180D01*
X113961428Y-75955180D02*
X113723333Y-75955180D01*
X113723333Y-75955180D02*
X113580476Y-75907561D01*
X112818571Y-75478990D02*
X112675714Y-75431371D01*
X112675714Y-75431371D02*
X112628095Y-75383752D01*
X112628095Y-75383752D02*
X112580476Y-75288514D01*
X112580476Y-75288514D02*
X112580476Y-75145657D01*
X112580476Y-75145657D02*
X112628095Y-75050419D01*
X112628095Y-75050419D02*
X112675714Y-75002800D01*
X112675714Y-75002800D02*
X112770952Y-74955180D01*
X112770952Y-74955180D02*
X113151904Y-74955180D01*
X113151904Y-74955180D02*
X113151904Y-75955180D01*
X113151904Y-75955180D02*
X112818571Y-75955180D01*
X112818571Y-75955180D02*
X112723333Y-75907561D01*
X112723333Y-75907561D02*
X112675714Y-75859942D01*
X112675714Y-75859942D02*
X112628095Y-75764704D01*
X112628095Y-75764704D02*
X112628095Y-75669466D01*
X112628095Y-75669466D02*
X112675714Y-75574228D01*
X112675714Y-75574228D02*
X112723333Y-75526609D01*
X112723333Y-75526609D02*
X112818571Y-75478990D01*
X112818571Y-75478990D02*
X113151904Y-75478990D01*
D11*
X99738095Y-97147419D02*
X99738095Y-97956942D01*
X99738095Y-97956942D02*
X99785714Y-98052180D01*
X99785714Y-98052180D02*
X99833333Y-98099800D01*
X99833333Y-98099800D02*
X99928571Y-98147419D01*
X99928571Y-98147419D02*
X100119047Y-98147419D01*
X100119047Y-98147419D02*
X100214285Y-98099800D01*
X100214285Y-98099800D02*
X100261904Y-98052180D01*
X100261904Y-98052180D02*
X100309523Y-97956942D01*
X100309523Y-97956942D02*
X100309523Y-97147419D01*
X100738095Y-97242657D02*
X100785714Y-97195038D01*
X100785714Y-97195038D02*
X100880952Y-97147419D01*
X100880952Y-97147419D02*
X101119047Y-97147419D01*
X101119047Y-97147419D02*
X101214285Y-97195038D01*
X101214285Y-97195038D02*
X101261904Y-97242657D01*
X101261904Y-97242657D02*
X101309523Y-97337895D01*
X101309523Y-97337895D02*
X101309523Y-97433133D01*
X101309523Y-97433133D02*
X101261904Y-97575990D01*
X101261904Y-97575990D02*
X100690476Y-98147419D01*
X100690476Y-98147419D02*
X101309523Y-98147419D01*
X81828866Y-75746877D02*
X81795533Y-75813544D01*
X81795533Y-75813544D02*
X81795533Y-75913544D01*
X81795533Y-75913544D02*
X81828866Y-76013544D01*
X81828866Y-76013544D02*
X81895533Y-76080211D01*
X81895533Y-76080211D02*
X81962200Y-76113544D01*
X81962200Y-76113544D02*
X82095533Y-76146877D01*
X82095533Y-76146877D02*
X82195533Y-76146877D01*
X82195533Y-76146877D02*
X82328866Y-76113544D01*
X82328866Y-76113544D02*
X82395533Y-76080211D01*
X82395533Y-76080211D02*
X82462200Y-76013544D01*
X82462200Y-76013544D02*
X82495533Y-75913544D01*
X82495533Y-75913544D02*
X82495533Y-75846877D01*
X82495533Y-75846877D02*
X82462200Y-75746877D01*
X82462200Y-75746877D02*
X82428866Y-75713544D01*
X82428866Y-75713544D02*
X82195533Y-75713544D01*
X82195533Y-75713544D02*
X82195533Y-75846877D01*
X82495533Y-75413544D02*
X81795533Y-75413544D01*
X81795533Y-75413544D02*
X82495533Y-75013544D01*
X82495533Y-75013544D02*
X81795533Y-75013544D01*
X82495533Y-74680211D02*
X81795533Y-74680211D01*
X81795533Y-74680211D02*
X81795533Y-74513544D01*
X81795533Y-74513544D02*
X81828866Y-74413544D01*
X81828866Y-74413544D02*
X81895533Y-74346878D01*
X81895533Y-74346878D02*
X81962200Y-74313544D01*
X81962200Y-74313544D02*
X82095533Y-74280211D01*
X82095533Y-74280211D02*
X82195533Y-74280211D01*
X82195533Y-74280211D02*
X82328866Y-74313544D01*
X82328866Y-74313544D02*
X82395533Y-74346878D01*
X82395533Y-74346878D02*
X82462200Y-74413544D01*
X82462200Y-74413544D02*
X82495533Y-74513544D01*
X82495533Y-74513544D02*
X82495533Y-74680211D01*
X86159133Y-76247544D02*
X86859133Y-76014211D01*
X86859133Y-76014211D02*
X86159133Y-75780877D01*
X86792466Y-75147544D02*
X86825800Y-75180877D01*
X86825800Y-75180877D02*
X86859133Y-75280877D01*
X86859133Y-75280877D02*
X86859133Y-75347544D01*
X86859133Y-75347544D02*
X86825800Y-75447544D01*
X86825800Y-75447544D02*
X86759133Y-75514211D01*
X86759133Y-75514211D02*
X86692466Y-75547544D01*
X86692466Y-75547544D02*
X86559133Y-75580877D01*
X86559133Y-75580877D02*
X86459133Y-75580877D01*
X86459133Y-75580877D02*
X86325800Y-75547544D01*
X86325800Y-75547544D02*
X86259133Y-75514211D01*
X86259133Y-75514211D02*
X86192466Y-75447544D01*
X86192466Y-75447544D02*
X86159133Y-75347544D01*
X86159133Y-75347544D02*
X86159133Y-75280877D01*
X86159133Y-75280877D02*
X86192466Y-75180877D01*
X86192466Y-75180877D02*
X86225800Y-75147544D01*
X86792466Y-74447544D02*
X86825800Y-74480877D01*
X86825800Y-74480877D02*
X86859133Y-74580877D01*
X86859133Y-74580877D02*
X86859133Y-74647544D01*
X86859133Y-74647544D02*
X86825800Y-74747544D01*
X86825800Y-74747544D02*
X86759133Y-74814211D01*
X86759133Y-74814211D02*
X86692466Y-74847544D01*
X86692466Y-74847544D02*
X86559133Y-74880877D01*
X86559133Y-74880877D02*
X86459133Y-74880877D01*
X86459133Y-74880877D02*
X86325800Y-74847544D01*
X86325800Y-74847544D02*
X86259133Y-74814211D01*
X86259133Y-74814211D02*
X86192466Y-74747544D01*
X86192466Y-74747544D02*
X86159133Y-74647544D01*
X86159133Y-74647544D02*
X86159133Y-74580877D01*
X86159133Y-74580877D02*
X86192466Y-74480877D01*
X86192466Y-74480877D02*
X86225800Y-74447544D01*
X92725800Y-76480877D02*
X92759133Y-76380877D01*
X92759133Y-76380877D02*
X92759133Y-76214211D01*
X92759133Y-76214211D02*
X92725800Y-76147544D01*
X92725800Y-76147544D02*
X92692466Y-76114211D01*
X92692466Y-76114211D02*
X92625800Y-76080877D01*
X92625800Y-76080877D02*
X92559133Y-76080877D01*
X92559133Y-76080877D02*
X92492466Y-76114211D01*
X92492466Y-76114211D02*
X92459133Y-76147544D01*
X92459133Y-76147544D02*
X92425800Y-76214211D01*
X92425800Y-76214211D02*
X92392466Y-76347544D01*
X92392466Y-76347544D02*
X92359133Y-76414211D01*
X92359133Y-76414211D02*
X92325800Y-76447544D01*
X92325800Y-76447544D02*
X92259133Y-76480877D01*
X92259133Y-76480877D02*
X92192466Y-76480877D01*
X92192466Y-76480877D02*
X92125800Y-76447544D01*
X92125800Y-76447544D02*
X92092466Y-76414211D01*
X92092466Y-76414211D02*
X92059133Y-76347544D01*
X92059133Y-76347544D02*
X92059133Y-76180877D01*
X92059133Y-76180877D02*
X92092466Y-76080877D01*
X92692466Y-75380877D02*
X92725800Y-75414210D01*
X92725800Y-75414210D02*
X92759133Y-75514210D01*
X92759133Y-75514210D02*
X92759133Y-75580877D01*
X92759133Y-75580877D02*
X92725800Y-75680877D01*
X92725800Y-75680877D02*
X92659133Y-75747544D01*
X92659133Y-75747544D02*
X92592466Y-75780877D01*
X92592466Y-75780877D02*
X92459133Y-75814210D01*
X92459133Y-75814210D02*
X92359133Y-75814210D01*
X92359133Y-75814210D02*
X92225800Y-75780877D01*
X92225800Y-75780877D02*
X92159133Y-75747544D01*
X92159133Y-75747544D02*
X92092466Y-75680877D01*
X92092466Y-75680877D02*
X92059133Y-75580877D01*
X92059133Y-75580877D02*
X92059133Y-75514210D01*
X92059133Y-75514210D02*
X92092466Y-75414210D01*
X92092466Y-75414210D02*
X92125800Y-75380877D01*
X92759133Y-74747544D02*
X92759133Y-75080877D01*
X92759133Y-75080877D02*
X92059133Y-75080877D01*
X96775800Y-76480877D02*
X96809133Y-76380877D01*
X96809133Y-76380877D02*
X96809133Y-76214211D01*
X96809133Y-76214211D02*
X96775800Y-76147544D01*
X96775800Y-76147544D02*
X96742466Y-76114211D01*
X96742466Y-76114211D02*
X96675800Y-76080877D01*
X96675800Y-76080877D02*
X96609133Y-76080877D01*
X96609133Y-76080877D02*
X96542466Y-76114211D01*
X96542466Y-76114211D02*
X96509133Y-76147544D01*
X96509133Y-76147544D02*
X96475800Y-76214211D01*
X96475800Y-76214211D02*
X96442466Y-76347544D01*
X96442466Y-76347544D02*
X96409133Y-76414211D01*
X96409133Y-76414211D02*
X96375800Y-76447544D01*
X96375800Y-76447544D02*
X96309133Y-76480877D01*
X96309133Y-76480877D02*
X96242466Y-76480877D01*
X96242466Y-76480877D02*
X96175800Y-76447544D01*
X96175800Y-76447544D02*
X96142466Y-76414211D01*
X96142466Y-76414211D02*
X96109133Y-76347544D01*
X96109133Y-76347544D02*
X96109133Y-76180877D01*
X96109133Y-76180877D02*
X96142466Y-76080877D01*
X96809133Y-75780877D02*
X96109133Y-75780877D01*
X96109133Y-75780877D02*
X96109133Y-75614210D01*
X96109133Y-75614210D02*
X96142466Y-75514210D01*
X96142466Y-75514210D02*
X96209133Y-75447544D01*
X96209133Y-75447544D02*
X96275800Y-75414210D01*
X96275800Y-75414210D02*
X96409133Y-75380877D01*
X96409133Y-75380877D02*
X96509133Y-75380877D01*
X96509133Y-75380877D02*
X96642466Y-75414210D01*
X96642466Y-75414210D02*
X96709133Y-75447544D01*
X96709133Y-75447544D02*
X96775800Y-75514210D01*
X96775800Y-75514210D02*
X96809133Y-75614210D01*
X96809133Y-75614210D02*
X96809133Y-75780877D01*
X96609133Y-75114210D02*
X96609133Y-74780877D01*
X96809133Y-75180877D02*
X96109133Y-74947544D01*
X96109133Y-74947544D02*
X96809133Y-74714210D01*
%TO.C,U1*%
X74830000Y-98920000D02*
X88830000Y-98920000D01*
X88830000Y-112920000D02*
X74830000Y-112920000D01*
X88830000Y-98920000D02*
X88830000Y-112920000D01*
X74830000Y-112920000D02*
X74830000Y-98920000D01*
%TO.C,R1*%
D14*
X132320000Y-110490000D02*
X132320000Y-109540000D01*
X132320000Y-104750000D02*
X132320000Y-105700000D01*
X131400000Y-105700000D02*
X133240000Y-105700000D01*
X133240000Y-109540000D01*
X131400000Y-109540000D01*
X131400000Y-105700000D01*
%TO.C,SW1*%
X139470000Y-104370000D02*
X137970000Y-104370000D01*
X135470000Y-105620000D02*
X135470000Y-110120000D01*
X141970000Y-110120000D02*
X141970000Y-105620000D01*
X137970000Y-111370000D02*
X139470000Y-111370000D01*
%TO.C,SW3*%
X137870000Y-89410000D02*
X139370000Y-89410000D01*
X141870000Y-88160000D02*
X141870000Y-83660000D01*
X135370000Y-83660000D02*
X135370000Y-88160000D01*
X139370000Y-82410000D02*
X137870000Y-82410000D01*
%TO.C,SW2*%
X137870000Y-100700000D02*
X139370000Y-100700000D01*
X141870000Y-99450000D02*
X141870000Y-94950000D01*
X135370000Y-94950000D02*
X135370000Y-99450000D01*
X139370000Y-93700000D02*
X137870000Y-93700000D01*
%TO.C,R4*%
X127320000Y-78510000D02*
X127320000Y-77560000D01*
X127320000Y-72770000D02*
X127320000Y-73720000D01*
X126400000Y-73720000D02*
X128240000Y-73720000D01*
X128240000Y-77560000D01*
X126400000Y-77560000D01*
X126400000Y-73720000D01*
%TO.C,R3*%
X132060000Y-88680000D02*
X132060000Y-87730000D01*
X132060000Y-82940000D02*
X132060000Y-83890000D01*
X131140000Y-83890000D02*
X132980000Y-83890000D01*
X132980000Y-87730000D01*
X131140000Y-87730000D01*
X131140000Y-83890000D01*
%TO.C,R2*%
X132060000Y-99800000D02*
X132060000Y-98850000D01*
X132060000Y-94060000D02*
X132060000Y-95010000D01*
X131140000Y-95010000D02*
X132980000Y-95010000D01*
X132980000Y-98850000D01*
X131140000Y-98850000D01*
X131140000Y-95010000D01*
%TO.C,D1*%
X130520000Y-72705000D02*
X130520000Y-75795000D01*
X130520000Y-72705170D02*
G75*
G02*
X136070000Y-74250000I2560000J-1544830D01*
G01*
X136070000Y-74250000D02*
G75*
G02*
X130520000Y-75794830I-2990000J0D01*
G01*
X135580000Y-74250000D02*
G75*
G02*
X130580000Y-74250000I-2500000J0D01*
G01*
X130580000Y-74250000D02*
G75*
G02*
X135580000Y-74250000I2500000J0D01*
G01*
%TO.C,C3*%
X125950000Y-88580000D02*
X125950000Y-83640000D01*
X126280000Y-88580000D02*
X125950000Y-88580000D01*
X128690000Y-88580000D02*
X128360000Y-88580000D01*
X125950000Y-83640000D02*
X126280000Y-83640000D01*
X128360000Y-83640000D02*
X128690000Y-83640000D01*
X128690000Y-83640000D02*
X128690000Y-88580000D01*
%TO.C,C2*%
X126160000Y-99300000D02*
X126160000Y-94360000D01*
X126490000Y-99300000D02*
X126160000Y-99300000D01*
X128900000Y-99300000D02*
X128570000Y-99300000D01*
X126160000Y-94360000D02*
X126490000Y-94360000D01*
X128570000Y-94360000D02*
X128900000Y-94360000D01*
X128900000Y-94360000D02*
X128900000Y-99300000D01*
%TO.C,C1*%
X126000000Y-110550000D02*
X126000000Y-105610000D01*
X126330000Y-110550000D02*
X126000000Y-110550000D01*
X128740000Y-110550000D02*
X128410000Y-110550000D01*
X126000000Y-105610000D02*
X126330000Y-105610000D01*
X128410000Y-105610000D02*
X128740000Y-105610000D01*
X128740000Y-105610000D02*
X128740000Y-110550000D01*
%TO.C,A1*%
X122910000Y-114910000D02*
X122910000Y-112240000D01*
X122910000Y-109700000D02*
X122910000Y-71470000D01*
X122910000Y-71470000D02*
X117830000Y-71470000D01*
X120240000Y-112240000D02*
X122910000Y-112240000D01*
X120240000Y-109700000D02*
X122910000Y-109700000D01*
X120240000Y-109700000D02*
X120240000Y-112240000D01*
X120240000Y-109700000D02*
X120240000Y-74140000D01*
X120240000Y-74140000D02*
X122910000Y-74140000D01*
X117830000Y-79350000D02*
X109950000Y-79350000D01*
X117830000Y-68930000D02*
X117830000Y-79350000D01*
X109950000Y-79350000D02*
X109950000Y-68930000D01*
X109950000Y-68930000D02*
X117830000Y-68930000D01*
X107540000Y-112240000D02*
X107540000Y-74140000D01*
X107540000Y-112240000D02*
X104870000Y-112240000D01*
X107540000Y-74140000D02*
X104870000Y-74140000D01*
X104870000Y-114910000D02*
X122910000Y-114910000D01*
X104870000Y-71470000D02*
X109950000Y-71470000D01*
X104870000Y-71470000D02*
X104870000Y-114910000D01*
%TO.C,U2*%
D11*
X74850000Y-68930000D02*
X102850000Y-68930000D01*
X74850000Y-96930000D02*
X74850000Y-68930000D01*
X102850000Y-68930000D02*
X102850000Y-96930000D01*
X102850000Y-96930000D02*
X74850000Y-96930000D01*
%TD*%
M02*
