M48
; DRILL file KiCad 10.0.0 date 2026-08-21T11:50:00
; FORMAT={-:-/ absolute / metric / decimal}
; #@! TF.CreationDate,2026-08-21T11:50:00+05:30
; #@! TF.GenerationSoftware,Kicad,Pcbnew,10.0.0
; #@! TF.FileFunction,Plated,1,2,PTH
FMAT,2
METRIC
; #@! TA.AperFunction,Plated,PTH,ViaDrill
T1C0.300
; #@! TA.AperFunction,Plated,PTH,ComponentDrill
T2C0.700
; #@! TA.AperFunction,Plated,PTH,ComponentDrill
T3C0.800
; #@! TA.AperFunction,Plated,PTH,ComponentDrill
T4C0.900
; #@! TA.AperFunction,Plated,PTH,ComponentDrill
T5C1.000
; #@! TA.AperFunction,Plated,PTH,ComponentDrill
T6C1.100
%
G90
G05
T1
X86.269Y-92.401
X86.269Y-92.401
X93.75Y-90.0
T2
X127.32Y-71.83
X127.32Y-79.45
X132.06Y-82.0
X132.06Y-89.62
X132.06Y-93.12
X132.06Y-100.74
X132.32Y-103.81
X132.32Y-111.43
T3
X76.151Y-100.22
X79.046Y-100.22
X81.942Y-100.22
X82.205Y-72.79
X84.736Y-100.22
X86.269Y-72.79
X87.53Y-100.22
X92.365Y-72.79
X96.4Y-72.79
X127.32Y-83.61
X127.32Y-88.61
X127.37Y-105.58
X127.37Y-110.58
X127.53Y-94.33
X127.53Y-99.33
T4
X131.81Y-74.25
X134.35Y-74.25
T5
X106.27Y-75.41
X106.27Y-77.95
X106.27Y-80.49
X106.27Y-83.03
X106.27Y-85.57
X106.27Y-88.11
X106.27Y-90.65
X106.27Y-93.19
X106.27Y-95.73
X106.27Y-98.27
X106.27Y-100.81
X106.27Y-103.35
X106.27Y-105.89
X106.27Y-108.43
X106.27Y-110.97
X121.51Y-75.41
X121.51Y-77.95
X121.51Y-80.49
X121.51Y-83.03
X121.51Y-85.57
X121.51Y-88.11
X121.51Y-90.65
X121.51Y-93.19
X121.51Y-95.73
X121.51Y-98.27
X121.51Y-100.81
X121.51Y-103.35
X121.51Y-105.89
X121.51Y-108.43
X121.51Y-110.97
T6
X136.37Y-82.66
X136.37Y-89.16
X136.37Y-93.95
X136.37Y-100.45
X136.47Y-104.62
X136.47Y-111.12
X140.87Y-82.66
X140.87Y-89.16
X140.87Y-93.95
X140.87Y-100.45
X140.97Y-104.62
X140.97Y-111.12
M30
